<svg version="1.1" viewBox="0.0 0.0 961.4383202099738 512.7191601049868" fill="none" stroke="none" stroke-linecap="square" stroke-miterlimit="10" xmlns:xlink="http://www.w3.org/1999/xlink" xmlns="http://www.w3.org/2000/svg"><clipPath id="p.0"><path d="m0 0l961.4383 0l0 512.7192l-961.4383 0l0 -512.7192z" clip-rule="nonzero"/></clipPath><g clip-path="url(#p.0)"><path fill="#000000" fill-opacity="0.0" d="m0 0l961.4383 0l0 512.7192l-961.4383 0z" fill-rule="evenodd"/><path fill="#183d54" d="m402.7454 93.53565l0 0c0 -5.9520416 4.8251038 -10.7771225 10.77713 -10.7771225l131.51666 0c2.8582153 0 5.5994263 1.1354446 7.6205444 3.1565475c2.0211182 2.021103 3.1565552 4.7622986 3.1565552 7.620575l0 43.10717c0 5.9520416 -4.8250732 10.77713 -10.7771 10.77713l-131.51666 0c-5.9520264 0 -10.77713 -4.8250885 -10.77713 -10.77713z" fill-rule="evenodd"/><path fill="#ffffff" d="m433.93225 107.47549l4.0625 5.90625l4.03125 -5.90625l2.25 0l-5.078125 7.140625l5.5625 7.953125l-2.359375 0l-4.484375 -6.703125l-4.5 6.703125l-2.21875 0l5.5 -7.953125l-5.078125 -7.140625l2.3125 0zm14.905518 0l8.734375 12.53125l0.046875 0l0 -12.53125l1.796875 0l0 15.09375l-2.265625 0l-8.734375 -12.546875l-0.046875 0l0 12.546875l-1.796875 0l0 -15.09375l2.265625 0zm18.577728 4.859375q2.21875 0 3.453125 1.40625q1.25 1.390625 1.28125 3.9375l0 0.40625l-8.0625 0q0.125 1.390625 1.03125 2.296875q0.921875 0.890625 2.25 0.90625q2.03125 0 3.15625 -1.515625l1.265625 0.984375q-0.796875 1.015625 -1.859375 1.546875q-1.0625 0.515625 -2.5625 0.515625q-2.28125 0 -3.671875 -1.46875q-1.375 -1.484375 -1.40625 -3.765625q0 -2.265625 1.421875 -3.734375q1.421875 -1.46875 3.703125 -1.515625zm2.9375 4.34375q-0.0625 -1.296875 -0.84375 -2.046875q-0.78125 -0.765625 -2.1875 -0.765625q-1.28125 0 -2.15625 0.734375q-0.875 0.71875 -1.078125 2.078125l6.265625 0zm6.88974 -6.921875l0 2.828125l2.9375 0l0 1.40625l-2.9375 0l0 5.34375q0 1.1875 0.375 1.578125q0.390625 0.375 1.125 0.375q0.828125 0 1.46875 -0.34375l0.0625 1.515625q-0.859375 0.359375 -1.9375 0.359375q-1.546875 0 -2.15625 -0.75q-0.59375 -0.765625 -0.59375 -2.484375l0 -5.59375l-2.1875 0l0 -1.40625l2.1875 0l0 -2.828125l1.65625 0zm5.554413 2.828125l2.28125 7.6875l0.03125 0l2.578125 -7.6875l1.75 0l2.625 7.6875l0.046875 0l2.265625 -7.6875l1.78125 0l-3.21875 9.984375l-1.640625 0l-2.828125 -7.671875l-0.046875 0l-2.515625 7.671875l-1.703125 0l-3.25 -9.984375l1.84375 0zm19.9917 -0.25q2.328125 0 3.796875 1.4375q1.484375 1.4375 1.546875 3.8125q0 2.28125 -1.5 3.75q-1.484375 1.453125 -3.84375 1.484375q-2.34375 0 -3.8125 -1.46875q-1.46875 -1.484375 -1.515625 -3.765625q0 -2.3125 1.484375 -3.765625q1.5 -1.46875 3.84375 -1.484375zm-3.53125 5.25q0 1.640625 0.984375 2.65625q1.0 1.0 2.546875 1.046875q1.5625 0 2.546875 -1.03125q0.984375 -1.03125 1.0 -2.671875q0 -1.625 -1.0 -2.671875q-0.984375 -1.046875 -2.5625 -1.046875q-1.53125 0 -2.515625 1.03125q-0.984375 1.03125 -1.0 2.6875zm16.356476 -5.25q0.390625 0 0.6875 0.109375l-0.109375 1.671875q-0.46875 -0.125 -0.90625 -0.125q-1.4375 0 -2.1875 0.953125q-0.734375 0.953125 -0.734375 2.671875l0 4.953125l-1.6562805 0l0 -7.765625q0 -0.296875 -0.078125 -2.21875l1.5781555 0q0.03125 1.5 0.03125 1.640625l0.046875 0q0.40625 -0.84375 1.3125 -1.359375q0.90625 -0.53125 2.015625 -0.53125zm4.2575073 -5.890625l0 10.53125l4.546875 -4.390625l2.375 0l-4.828125 4.546875l5.3125 5.4375l-2.453125 0l-4.953125 -5.25l0 5.25l-1.65625 0l0 -16.125l1.65625 0z" fill-rule="nonzero"/><path fill="#183d54" d="m136.3517 158.19707l0 0c0 -5.9520416 4.8250885 -10.777115 10.77713 -10.777115l216.08354 0c2.8582764 0 5.5994873 1.135437 7.620575 3.15654c2.0211182 2.021103 3.1565552 4.7622986 3.1565552 7.620575l0 43.107178c0 5.9520416 -4.8250732 10.777115 -10.77713 10.777115l-216.08354 0c-5.9520416 0 -10.77713 -4.8250732 -10.77713 -10.777115z" fill-rule="evenodd"/><path fill="#ffffff" d="m154.47533 172.1369l4.0625 5.90625l4.03125 -5.90625l2.25 0l-5.078125 7.140625l5.5625 7.953125l-2.359375 0l-4.484375 -6.703125l-4.5 6.703125l-2.21875 0l5.5 -7.953125l-5.078125 -7.140625l2.3125 0zm17.233643 0q2.421875 0 3.78125 1.046875q1.359375 1.03125 1.390625 3.078125q0 1.984375 -1.328125 3.0625q-1.3125 1.078125 -3.53125 1.125l-3.109375 0l0 6.78125l-1.796875 0l0 -15.09375l4.59375 0zm0.3125 6.640625q1.359375 0 2.140625 -0.65625q0.796875 -0.65625 0.796875 -1.828125q0 -1.171875 -0.78125 -1.828125q-0.765625 -0.671875 -2.15625 -0.671875l-3.109375 0l0 4.984375l3.109375 0zm12.194504 -1.78125q2.328125 0 3.796875 1.4375q1.484375 1.4375 1.546875 3.8125q0 2.28125 -1.5 3.75q-1.484375 1.453125 -3.84375 1.484375q-2.34375 0 -3.8125 -1.46875q-1.46875 -1.484375 -1.515625 -3.765625q0 -2.3125 1.484375 -3.765625q1.5 -1.46875 3.84375 -1.484375zm-3.53125 5.25q0 1.640625 0.984375 2.65625q1.0 1.0 2.546875 1.046875q1.5625 0 2.546875 -1.03125q0.984375 -1.03125 1.0 -2.671875q0 -1.625 -1.0 -2.671875q-0.984375 -1.046875 -2.5625 -1.046875q-1.53125 0 -2.515625 1.03125q-0.984375 1.03125 -1.0 2.6875zm14.497086 -5.25q2.390625 0.015625 3.390625 1.8125l-1.375 0.921875q-0.734375 -1.203125 -2.125 -1.203125q-0.828125 0 -1.390625 0.390625q-0.5625 0.375 -0.5625 1.0q0 1.0 2.5 1.453125q1.78125 0.3125 2.53125 1.046875q0.75 0.71875 0.75 1.9375q0 1.46875 -1.09375 2.296875q-1.09375 0.828125 -2.90625 0.828125q-1.40625 0 -2.3125 -0.4375q-0.90625 -0.453125 -1.5625 -1.40625l1.328125 -1.03125q0.609375 0.75 1.203125 1.046875q0.609375 0.296875 1.34375 0.296875q0.96875 0 1.578125 -0.40625q0.625 -0.421875 0.625 -1.125q0 -0.734375 -0.65625 -1.09375q-0.640625 -0.359375 -2.15625 -0.65625q-1.5 -0.328125 -2.171875 -0.953125q-0.671875 -0.640625 -0.671875 -1.78125q0 -1.25 1.03125 -2.078125q1.046875 -0.84375 2.703125 -0.859375zm8.554565 -2.578125l0 2.828125l2.9375 0l0 1.40625l-2.9375 0l0 5.34375q0 1.1875 0.375 1.578125q0.390625 0.375 1.125 0.375q0.828125 0 1.46875 -0.34375l0.0625 1.515625q-0.859375 0.359375 -1.9375 0.359375q-1.546875 0 -2.15625 -0.75q-0.59375 -0.765625 -0.59375 -2.484375l0 -5.59375l-2.1875 0l0 -1.40625l2.1875 0l0 -2.828125l1.65625 0zm9.710663 2.578125q1.140625 0 2.109375 0.53125q0.984375 0.53125 1.421875 1.421875l0.046875 0l0 -1.703125l1.65625 0l0 9.640625q0 2.5625 -1.359375 3.984375q-1.359375 1.4375 -4.078125 1.484375q-1.46875 0 -2.671875 -0.4375q-1.1875 -0.421875 -2.234375 -1.46875l1.203125 -1.359375q1.59375 1.71875 3.703125 1.71875q3.78125 0 3.78125 -4.0l0 -1.3125l-0.046875 0q-0.546875 0.90625 -1.53125 1.390625q-0.984375 0.46875 -2.0 0.46875q-2.3125 0 -3.78125 -1.4375q-1.46875 -1.4375 -1.515625 -3.671875q0 -2.421875 1.453125 -3.828125q1.453125 -1.40625 3.84375 -1.421875zm-3.5 5.25q0 1.484375 1.015625 2.53125q1.03125 1.03125 2.5 1.046875q1.625 0 2.59375 -1.046875q0.96875 -1.046875 0.96875 -2.578125q0 -1.640625 -1.0 -2.640625q-0.984375 -1.015625 -2.578125 -1.03125q-1.515625 0 -2.515625 1.078125q-0.984375 1.0625 -0.984375 2.640625zm16.71904 -5.25q0.390625 0 0.6875 0.109375l-0.109375 1.671875q-0.46875 -0.125 -0.90625 -0.125q-1.4375 0 -2.1875 0.953125q-0.734375 0.953125 -0.734375 2.671875l0 4.953125l-1.65625 0l0 -7.765625q0 -0.296875 -0.078125 -2.21875l1.578125 0q0.03125 1.5 0.03125 1.640625l0.046875 0q0.40625 -0.84375 1.3125 -1.359375q0.90625 -0.53125 2.015625 -0.53125zm6.76416 0q2.21875 0 3.453125 1.40625q1.25 1.390625 1.28125 3.9375l0 0.40625l-8.0625 0q0.125 1.390625 1.03125 2.296875q0.921875 0.890625 2.25 0.90625q2.03125 0 3.15625 -1.515625l1.265625 0.984375q-0.796875 1.015625 -1.859375 1.546875q-1.0625 0.515625 -2.5625 0.515625q-2.28125 0 -3.671875 -1.46875q-1.375 -1.484375 -1.40625 -3.765625q0 -2.265625 1.421875 -3.734375q1.421875 -1.46875 3.703125 -1.515625zm2.9375 4.34375q-0.0625 -1.296875 -0.84375 -2.046875q-0.78125 -0.765625 -2.1875 -0.765625q-1.28125 0 -2.15625 0.734375q-0.875 0.71875 -1.078125 2.078125l6.265625 0zm9.092865 -9.59375q2.75 0 4.21875 1.765625l-1.46875 1.28125q-0.859375 -1.34375 -2.75 -1.390625q-1.4375 0 -2.328125 0.6875q-0.890625 0.6875 -0.890625 1.859375q0 1.015625 0.671875 1.625q0.6875 0.59375 2.5625 1.171875q2.4375 0.703125 3.4375 1.71875q1.015625 1.0 1.015625 2.734375q0 2.0 -1.5 3.203125q-1.484375 1.1875 -3.8125 1.21875q-1.546875 0 -2.765625 -0.546875q-1.21875 -0.5625 -1.875 -1.546875l1.53125 -1.265625q0.5 0.8125 1.359375 1.25q0.875 0.4375 1.859375 0.4375q1.34375 0 2.3125 -0.75q0.96875 -0.765625 0.96875 -1.875q0 -1.0 -0.5625 -1.578125q-0.5625 -0.578125 -1.859375 -0.984375l-1.734375 -0.5625q-1.9375 -0.671875 -2.734375 -1.65625q-0.796875 -1.0 -0.796875 -2.453125q0 -1.90625 1.421875 -3.109375q1.4375 -1.21875 3.71875 -1.234375zm14.32724 0q2.21875 0 3.96875 1.015625q1.75 1.015625 2.765625 2.78125q1.015625 1.765625 1.03125 3.953125q0 2.0 -1.046875 3.734375q-1.03125 1.734375 -2.625 2.421875l0 0.046875l4.671875 0l0 1.53125l-8.8125 0q-3.234375 0 -5.453125 -2.21875q-2.203125 -2.21875 -2.265625 -5.515625q0 -2.1875 1.015625 -3.953125q1.03125 -1.765625 2.828125 -2.78125q1.8125 -1.015625 3.921875 -1.015625zm-5.84375 7.75q0 2.546875 1.6875 4.296875q1.6875 1.734375 4.15625 1.78125q2.5 0 4.140625 -1.765625q1.65625 -1.765625 1.703125 -4.3125q0 -2.59375 -1.671875 -4.328125q-1.671875 -1.734375 -4.1875 -1.765625q-2.453125 0 -4.109375 1.734375q-1.65625 1.734375 -1.71875 4.359375zm18.53772 -7.359375l0 13.4375l6.90625 0l0 1.65625l-8.703125 0l0 -15.09375l1.796875 0zm10.664124 0l0 15.09375l-1.796875 0l0 -15.09375l1.796875 0zm8.357819 4.859375q1.875 0 2.828125 1.09375q0.96875 1.078125 0.96875 2.890625l0 6.25l-1.671875 0l0 -6.0625q0 -1.140625 -0.53125 -1.875q-0.53125 -0.75 -1.75 -0.765625q-1.53125 0 -2.3125 1.015625q-0.78125 1.015625 -0.78125 2.796875l0 4.890625l-1.65625 0l0 -7.765625q0 -0.109375 -0.078125 -2.21875l1.578125 0q0.03125 1.5 0.03125 1.640625l0.046875 0q0.40625 -0.84375 1.3125 -1.359375q0.90625 -0.53125 2.015625 -0.53125zm9.999115 0q2.390625 0.015625 3.390625 1.8125l-1.375 0.921875q-0.734375 -1.203125 -2.125 -1.203125q-0.828125 0 -1.390625 0.390625q-0.5625 0.375 -0.5625 1.0q0 1.0 2.5 1.453125q1.78125 0.3125 2.53125 1.046875q0.75 0.71875 0.75 1.9375q0 1.46875 -1.09375 2.296875q-1.09375 0.828125 -2.90625 0.828125q-1.40625 0 -2.3125 -0.4375q-0.90625 -0.453125 -1.5625 -1.40625l1.328125 -1.03125q0.609375 0.75 1.203125 1.046875q0.609375 0.296875 1.34375 0.296875q0.96875 0 1.578125 -0.40625q0.625 -0.421875 0.625 -1.125q0 -0.734375 -0.65625 -1.09375q-0.640625 -0.359375 -2.15625 -0.65625q-1.5 -0.328125 -2.171875 -0.953125q-0.671875 -0.640625 -0.671875 -1.78125q0 -1.25 1.03125 -2.078125q1.046875 -0.84375 2.703125 -0.859375zm8.554565 -2.578125l0 2.828125l2.9375 0l0 1.40625l-2.9375 0l0 5.34375q0 1.1875 0.375 1.578125q0.390625 0.375 1.125 0.375q0.828125 0 1.46875 -0.34375l0.0625 1.515625q-0.859375 0.359375 -1.9375 0.359375q-1.546875 0 -2.15625 -0.75q-0.59375 -0.765625 -0.59375 -2.484375l0 -5.59375l-2.1875 0l0 -1.40625l2.1875 0l0 -2.828125l1.65625 0zm8.835663 2.578125q2.171875 0 3.15625 1.03125q1.0 1.015625 1.015625 3.078125l0 4.484375q0 0.640625 0.15625 1.640625l-1.609375 0q-0.09375 -0.1875 -0.09375 -1.5l-0.046875 0q-1.125 1.71875 -3.28125 1.75q-1.640625 0 -2.6875 -0.8125q-1.03125 -0.828125 -1.03125 -2.140625q0 -1.8125 1.484375 -2.65625q1.5 -0.84375 4.6875 -0.84375l0.765625 0l0 -0.28125q0 -2.171875 -2.484375 -2.21875q-1.78125 0 -2.953125 1.09375l-1.046875 -1.09375q1.53125 -1.484375 3.96875 -1.53125zm-2.625 7.359375q0 1.6875 2.1875 1.71875q1.3125 0 2.125 -0.828125q0.828125 -0.828125 0.828125 -2.4375l0 -0.375l-1.84375 0q-1.46875 0 -2.375 0.46875q-0.90625 0.46875 -0.921875 1.453125zm14.756836 -7.359375q1.875 0 2.828125 1.09375q0.96875 1.078125 0.96875 2.890625l0 6.25l-1.671875 0l0 -6.0625q0 -1.140625 -0.53125 -1.875q-0.53125 -0.75 -1.75 -0.765625q-1.53125 0 -2.3125 1.015625q-0.78125 1.015625 -0.78125 2.796875l0 4.890625l-1.65625 0l0 -7.765625q0 -0.109375 -0.078125 -2.21875l1.578125 0q0.03125 1.5 0.03125 1.640625l0.046875 0q0.40625 -0.84375 1.3125 -1.359375q0.90625 -0.53125 2.015625 -0.53125zm11.561615 0q2.359375 0 3.8125 1.578125l-1.3125 1.171875q-1.015625 -1.21875 -2.53125 -1.21875q-1.546875 0 -2.453125 1.015625q-0.90625 1.015625 -0.90625 2.703125q0 1.59375 0.96875 2.640625q0.96875 1.046875 2.390625 1.0625q1.65625 0 2.546875 -1.234375l1.234375 1.171875q-1.390625 1.578125 -3.78125 1.59375q-2.28125 -0.015625 -3.703125 -1.4375q-1.40625 -1.4375 -1.453125 -3.796875q0.03125 -2.390625 1.5 -3.8125q1.46875 -1.4375 3.6875 -1.4375zm10.217712 0q2.21875 0 3.453125 1.40625q1.25 1.390625 1.28125 3.9375l0 0.40625l-8.0625 0q0.125 1.390625 1.03125 2.296875q0.921875 0.890625 2.25 0.90625q2.03125 0 3.15625 -1.515625l1.265625 0.984375q-0.796875 1.015625 -1.859375 1.546875q-1.0625 0.515625 -2.5625 0.515625q-2.28125 0 -3.671875 -1.46875q-1.375 -1.484375 -1.40625 -3.765625q0 -2.265625 1.421875 -3.734375q1.421875 -1.46875 3.703125 -1.515625zm2.9375 4.34375q-0.0625 -1.296875 -0.84375 -2.046875q-0.78125 -0.765625 -2.1875 -0.765625q-1.28125 0 -2.15625 0.734375q-0.875 0.71875 -1.078125 2.078125l6.265625 0z" fill-rule="nonzero"/><path fill="#183d54" d="m584.5722 158.19707l0 0c0 -5.9520416 4.8250732 -10.777115 10.7771 -10.777115l216.08356 0c2.8582764 0 5.5994873 1.135437 7.6205444 3.15654c2.0211182 2.021103 3.1565552 4.7622986 3.1565552 7.620575l0 43.107178c0 5.9520416 -4.8250732 10.777115 -10.7771 10.777115l-216.08356 0c-5.9520264 0 -10.7771 -4.8250732 -10.7771 -10.777115z" fill-rule="evenodd"/><path stroke="#000000" stroke-width="1.0" stroke-linejoin="round" stroke-linecap="butt" d="m584.5722 158.19707l0 0c0 -5.9520416 4.8250732 -10.777115 10.7771 -10.777115l216.08356 0c2.8582764 0 5.5994873 1.135437 7.6205444 3.15654c2.0211182 2.021103 3.1565552 4.7622986 3.1565552 7.620575l0 43.107178c0 5.9520416 -4.8250732 10.777115 -10.7771 10.777115l-216.08356 0c-5.9520264 0 -10.7771 -4.8250732 -10.7771 -10.777115z" fill-rule="evenodd"/><path fill="#ffffff" d="m602.6958 172.1369l4.0625 5.90625l4.03125 -5.90625l2.25 0l-5.078125 7.140625l5.5625 7.953125l-2.359375 0l-4.484375 -6.703125l-4.5 6.703125l-2.21875 0l5.5 -7.953125l-5.078125 -7.140625l2.3125 0zm17.233643 0q2.421875 0 3.78125 1.046875q1.359375 1.03125 1.390625 3.078125q0 1.984375 -1.328125 3.0625q-1.3125 1.078125 -3.53125 1.125l-3.109375 0l0 6.78125l-1.796875 0l0 -15.09375l4.59375 0zm0.3125 6.640625q1.359375 0 2.140625 -0.65625q0.796875 -0.65625 0.796875 -1.828125q0 -1.171875 -0.78125 -1.828125q-0.765625 -0.671875 -2.15625 -0.671875l-3.109375 0l0 4.984375l3.109375 0zm12.194519 -1.78125q2.328125 0 3.796875 1.4375q1.484375 1.4375 1.546875 3.8125q0 2.28125 -1.5 3.75q-1.484375 1.453125 -3.84375 1.484375q-2.34375 0 -3.8125 -1.46875q-1.46875 -1.484375 -1.515625 -3.765625q0 -2.3125 1.484375 -3.765625q1.5 -1.46875 3.84375 -1.484375zm-3.53125 5.25q0 1.640625 0.984375 2.65625q1.0 1.0 2.546875 1.046875q1.5625 0 2.546875 -1.03125q0.984375 -1.03125 1.0 -2.671875q0 -1.625 -1.0 -2.671875q-0.984375 -1.046875 -2.5625 -1.046875q-1.53125 0 -2.515625 1.03125q-0.984375 1.03125 -1.0 2.6875zm14.49707 -5.25q2.390625 0.015625 3.390625 1.8125l-1.375 0.921875q-0.734375 -1.203125 -2.125 -1.203125q-0.828125 0 -1.390625 0.390625q-0.5625 0.375 -0.5625 1.0q0 1.0 2.5 1.453125q1.78125 0.3125 2.53125 1.046875q0.75 0.71875 0.75 1.9375q0 1.46875 -1.09375 2.296875q-1.09375 0.828125 -2.90625 0.828125q-1.40625 0 -2.3125 -0.4375q-0.90625 -0.453125 -1.5625 -1.40625l1.328125 -1.03125q0.609375 0.75 1.203125 1.046875q0.609375 0.296875 1.34375 0.296875q0.96875 0 1.578125 -0.40625q0.625 -0.421875 0.625 -1.125q0 -0.734375 -0.65625 -1.09375q-0.640625 -0.359375 -2.15625 -0.65625q-1.5 -0.328125 -2.171875 -0.953125q-0.671875 -0.640625 -0.671875 -1.78125q0 -1.25 1.03125 -2.078125q1.046875 -0.84375 2.703125 -0.859375zm8.554565 -2.578125l0 2.828125l2.9375 0l0 1.40625l-2.9375 0l0 5.34375q0 1.1875 0.375 1.578125q0.390625 0.375 1.125 0.375q0.828125 0 1.46875 -0.34375l0.0625 1.515625q-0.859375 0.359375 -1.9375 0.359375q-1.546875 0 -2.15625 -0.75q-0.59375 -0.765625 -0.59375 -2.484375l0 -5.59375l-2.1875 0l0 -1.40625l2.1875 0l0 -2.828125l1.65625 0zm9.710632 2.578125q1.140625 0 2.109375 0.53125q0.984375 0.53125 1.421875 1.421875l0.046875 0l0 -1.703125l1.65625 0l0 9.640625q0 2.5625 -1.359375 3.984375q-1.359375 1.4375 -4.078125 1.484375q-1.46875 0 -2.671875 -0.4375q-1.1875 -0.421875 -2.234375 -1.46875l1.203125 -1.359375q1.59375 1.71875 3.703125 1.71875q3.78125 0 3.78125 -4.0l0 -1.3125l-0.046875 0q-0.546875 0.90625 -1.53125 1.390625q-0.984375 0.46875 -2.0 0.46875q-2.3125 0 -3.78125 -1.4375q-1.46875 -1.4375 -1.515625 -3.671875q0 -2.421875 1.453125 -3.828125q1.453125 -1.40625 3.84375 -1.421875zm-3.5 5.25q0 1.484375 1.015625 2.53125q1.03125 1.03125 2.5 1.046875q1.625 0 2.59375 -1.046875q0.96875 -1.046875 0.96875 -2.578125q0 -1.640625 -1.0 -2.640625q-0.984375 -1.015625 -2.578125 -1.03125q-1.515625 0 -2.515625 1.078125q-0.984375 1.0625 -0.984375 2.640625zm16.719055 -5.25q0.390625 0 0.6875 0.109375l-0.109375 1.671875q-0.46875 -0.125 -0.90625 -0.125q-1.4375 0 -2.1875 0.953125q-0.734375 0.953125 -0.734375 2.671875l0 4.953125l-1.65625 0l0 -7.765625q0 -0.296875 -0.078125 -2.21875l1.578125 0q0.03125 1.5 0.03125 1.640625l0.046875 0q0.40625 -0.84375 1.3125 -1.359375q0.90625 -0.53125 2.015625 -0.53125zm6.76416 0q2.21875 0 3.453125 1.40625q1.25 1.390625 1.28125 3.9375l0 0.40625l-8.0625 0q0.125 1.390625 1.03125 2.296875q0.921875 0.890625 2.25 0.90625q2.03125 0 3.15625 -1.515625l1.265625 0.984375q-0.796875 1.015625 -1.859375 1.546875q-1.0625 0.515625 -2.5625 0.515625q-2.28125 0 -3.671875 -1.46875q-1.375 -1.484375 -1.40625 -3.765625q0 -2.265625 1.421875 -3.734375q1.421875 -1.46875 3.703125 -1.515625zm2.9375 4.34375q-0.0625 -1.296875 -0.84375 -2.046875q-0.78125 -0.765625 -2.1875 -0.765625q-1.28125 0 -2.15625 0.734375q-0.875 0.71875 -1.078125 2.078125l6.265625 0zm9.0928955 -9.59375q2.75 0 4.21875 1.765625l-1.46875 1.28125q-0.859375 -1.34375 -2.75 -1.390625q-1.4375 0 -2.328125 0.6875q-0.890625 0.6875 -0.890625 1.859375q0 1.015625 0.671875 1.625q0.6875 0.59375 2.5625 1.171875q2.4375 0.703125 3.4375 1.71875q1.015625 1.0 1.015625 2.734375q0 2.0 -1.5 3.203125q-1.484375 1.1875 -3.8125 1.21875q-1.546875 0 -2.765625 -0.546875q-1.21875 -0.5625 -1.875 -1.546875l1.53125 -1.265625q0.5 0.8125 1.359375 1.25q0.875 0.4375 1.859375 0.4375q1.34375 0 2.3125 -0.75q0.96875 -0.765625 0.96875 -1.875q0 -1.0 -0.5625 -1.578125q-0.5625 -0.578125 -1.859375 -0.984375l-1.734375 -0.5625q-1.9375 -0.671875 -2.734375 -1.65625q-0.796875 -1.0 -0.796875 -2.453125q0 -1.90625 1.421875 -3.109375q1.4375 -1.21875 3.71875 -1.234375zm14.327209 0q2.21875 0 3.96875 1.015625q1.75 1.015625 2.765625 2.78125q1.015625 1.765625 1.03125 3.953125q0 2.0 -1.046875 3.734375q-1.03125 1.734375 -2.625 2.421875l0 0.046875l4.671875 0l0 1.53125l-8.8125 0q-3.234375 0 -5.453125 -2.21875q-2.203125 -2.21875 -2.265625 -5.515625q0 -2.1875 1.015625 -3.953125q1.03125 -1.765625 2.828125 -2.78125q1.8125 -1.015625 3.921875 -1.015625zm-5.84375 7.75q0 2.546875 1.6875 4.296875q1.6875 1.734375 4.15625 1.78125q2.5 0 4.140625 -1.765625q1.65625 -1.765625 1.703125 -4.3125q0 -2.59375 -1.671875 -4.328125q-1.671875 -1.734375 -4.1875 -1.765625q-2.453125 0 -4.109375 1.734375q-1.65625 1.734375 -1.71875 4.359375zm18.53772 -7.359375l0 13.4375l6.90625 0l0 1.65625l-8.703125 0l0 -15.09375l1.796875 0zm10.664124 0l0 15.09375l-1.796875 0l0 -15.09375l1.796875 0zm8.357849 4.859375q1.875 0 2.828125 1.09375q0.96875 1.078125 0.96875 2.890625l0 6.25l-1.671875 0l0 -6.0625q0 -1.140625 -0.53125 -1.875q-0.53125 -0.75 -1.75 -0.765625q-1.53125 0 -2.3125 1.015625q-0.78125 1.015625 -0.78125 2.796875l0 4.890625l-1.65625 0l0 -7.765625q0 -0.109375 -0.078125 -2.21875l1.578125 0q0.03125 1.5 0.03125 1.640625l0.046875 0q0.40625 -0.84375 1.3125 -1.359375q0.90625 -0.53125 2.015625 -0.53125zm9.999084 0q2.390625 0.015625 3.390625 1.8125l-1.375 0.921875q-0.734375 -1.203125 -2.125 -1.203125q-0.828125 0 -1.390625 0.390625q-0.5625 0.375 -0.5625 1.0q0 1.0 2.5 1.453125q1.78125 0.3125 2.53125 1.046875q0.75 0.71875 0.75 1.9375q0 1.46875 -1.09375 2.296875q-1.09375 0.828125 -2.90625 0.828125q-1.40625 0 -2.3125 -0.4375q-0.90625 -0.453125 -1.5625 -1.40625l1.328125 -1.03125q0.609375 0.75 1.203125 1.046875q0.609375 0.296875 1.34375 0.296875q0.96875 0 1.578125 -0.40625q0.625 -0.421875 0.625 -1.125q0 -0.734375 -0.65625 -1.09375q-0.640625 -0.359375 -2.15625 -0.65625q-1.5 -0.328125 -2.171875 -0.953125q-0.671875 -0.640625 -0.671875 -1.78125q0 -1.25 1.03125 -2.078125q1.046875 -0.84375 2.703125 -0.859375zm8.554565 -2.578125l0 2.828125l2.9375 0l0 1.40625l-2.9375 0l0 5.34375q0 1.1875 0.375 1.578125q0.390625 0.375 1.125 0.375q0.828125 0 1.46875 -0.34375l0.0625 1.515625q-0.859375 0.359375 -1.9375 0.359375q-1.546875 0 -2.15625 -0.75q-0.59375 -0.765625 -0.59375 -2.484375l0 -5.59375l-2.1875 0l0 -1.40625l2.1875 0l0 -2.828125l1.65625 0zm8.835693 2.578125q2.171875 0 3.15625 1.03125q1.0 1.015625 1.015625 3.078125l0 4.484375q0 0.640625 0.15625 1.640625l-1.609375 0q-0.09375 -0.1875 -0.09375 -1.5l-0.046875 0q-1.125 1.71875 -3.28125 1.75q-1.640625 0 -2.6875 -0.8125q-1.03125 -0.828125 -1.03125 -2.140625q0 -1.8125 1.484375 -2.65625q1.5 -0.84375 4.6875 -0.84375l0.765625 0l0 -0.28125q0 -2.171875 -2.484375 -2.21875q-1.78125 0 -2.953125 1.09375l-1.046875 -1.09375q1.53125 -1.484375 3.96875 -1.53125zm-2.625 7.359375q0 1.6875 2.1875 1.71875q1.3125 0 2.125 -0.828125q0.828125 -0.828125 0.828125 -2.4375l0 -0.375l-1.84375 0q-1.46875 0 -2.375 0.46875q-0.90625 0.46875 -0.921875 1.453125zm14.756836 -7.359375q1.875 0 2.828125 1.09375q0.96875 1.078125 0.96875 2.890625l0 6.25l-1.671875 0l0 -6.0625q0 -1.140625 -0.53125 -1.875q-0.53125 -0.75 -1.75 -0.765625q-1.53125 0 -2.3125 1.015625q-0.78125 1.015625 -0.78125 2.796875l0 4.890625l-1.65625 0l0 -7.765625q0 -0.109375 -0.078125 -2.21875l1.578125 0q0.03125 1.5 0.03125 1.640625l0.046875 0q0.40625 -0.84375 1.3125 -1.359375q0.90625 -0.53125 2.015625 -0.53125zm11.561584 0q2.359375 0 3.8125 1.578125l-1.3125 1.171875q-1.015625 -1.21875 -2.53125 -1.21875q-1.546875 0 -2.453125 1.015625q-0.90625 1.015625 -0.90625 2.703125q0 1.59375 0.96875 2.640625q0.96875 1.046875 2.390625 1.0625q1.65625 0 2.546875 -1.234375l1.234375 1.171875q-1.390625 1.578125 -3.78125 1.59375q-2.28125 -0.015625 -3.703125 -1.4375q-1.40625 -1.4375 -1.453125 -3.796875q0.03125 -2.390625 1.5 -3.8125q1.46875 -1.4375 3.6875 -1.4375zm10.217712 0q2.21875 0 3.453125 1.40625q1.25 1.390625 1.28125 3.9375l0 0.40625l-8.0625 0q0.125 1.390625 1.03125 2.296875q0.921875 0.890625 2.25 0.90625q2.03125 0 3.15625 -1.515625l1.265625 0.984375q-0.796875 1.015625 -1.859375 1.546875q-1.0625 0.515625 -2.5625 0.515625q-2.28125 0 -3.671875 -1.46875q-1.375 -1.484375 -1.40625 -3.765625q0 -2.265625 1.421875 -3.734375q1.421875 -1.46875 3.703125 -1.515625zm2.9375 4.34375q-0.0625 -1.296875 -0.84375 -2.046875q-0.78125 -0.765625 -2.1875 -0.765625q-1.28125 0 -2.15625 0.734375q-0.875 0.71875 -1.078125 2.078125l6.265625 0z" fill-rule="nonzero"/><path fill="#000000" fill-opacity="0.0" d="m255.17061 147.41995c0 -16.157486 73.79527 -32.314964 147.59056 -32.314964" fill-rule="evenodd"/><path stroke="#000000" stroke-width="1.0" stroke-linejoin="round" stroke-linecap="butt" d="m255.17061 147.41995c0 -8.078751 18.448807 -16.157486 46.122055 -22.216537c13.836609 -3.0295334 29.97931 -5.554138 47.275085 -7.3213577c8.647888 -0.8836136 17.584045 -1.5778809 26.664276 -2.0512466c4.540161 -0.23667908 9.116364 -0.41814423 13.71051 -0.54042816c2.2971191 -0.06113434 4.5987244 -0.10748291 6.9025574 -0.1385498l0.91619873 -0.010826111" fill-rule="evenodd"/><path fill="#000000" stroke="#000000" stroke-width="1.0" stroke-linecap="butt" d="m396.77118 116.79271l4.5281067 -1.6789474l-4.547943 -1.6244583z" fill-rule="evenodd"/><path fill="#000000" fill-opacity="0.0" d="m703.39105 147.41995c0 -16.157486 -73.77948 -32.314964 -147.55902 -32.314964" fill-rule="evenodd"/><path stroke="#000000" stroke-width="1.0" stroke-linejoin="round" stroke-linecap="butt" d="m703.39105 147.41995c0 -8.078751 -18.444885 -16.157486 -46.112183 -22.216537c-13.833679 -3.0295334 -29.972961 -5.554138 -47.265015 -7.3213577c-8.646057 -0.8836136 -17.580322 -1.5778809 -26.65863 -2.0512466c-4.5391846 -0.23667908 -9.114319 -0.41814423 -13.70752 -0.54042816c-2.2966309 -0.06113434 -4.5977783 -0.10748291 -6.901123 -0.1385498l-0.91467285 -0.010818481" fill-rule="evenodd"/><path fill="#000000" stroke="#000000" stroke-width="1.0" stroke-linecap="butt" d="m561.84186 113.48932l-4.5479736 1.6244507l4.528137 1.6789551z" fill-rule="evenodd"/><path fill="#f3f3f3" d="m66.54068 272.43832l377.25986 0l0 201.92126l-377.25986 0z" fill-rule="evenodd"/><path stroke="#000000" stroke-width="1.0" stroke-linejoin="round" stroke-linecap="butt" stroke-dasharray="1.0,3.0" d="m66.54068 272.43832l377.25986 0l0 201.92126l-377.25986 0z" fill-rule="evenodd"/><path fill="#000000" d="m175.00336 448.07645l7.875 11.1875l0.03125 0l0 -11.1875l1.34375 0l0 13.203125l-1.671875 0l-7.875 -11.3125l-0.03125 0l0 11.3125l-1.34375 0l0 -13.203125l1.671875 0zm16.014572 4.25q1.5 0 2.34375 0.84375q0.859375 0.828125 0.859375 2.203125l0 4.046875q0 0.859375 0.15625 1.859375l-1.203125 0q-0.109375 -0.578125 -0.109375 -1.421875l-0.03125 0q-0.546875 0.859375 -1.28125 1.25q-0.734375 0.390625 -1.796875 0.390625q-1.34375 0 -2.1875 -0.703125q-0.828125 -0.703125 -0.828125 -1.84375q0 -1.578125 1.3125 -2.296875q1.328125 -0.734375 4.171875 -0.734375l0.5625 0l0 -0.1875q0 -1.1875 -0.546875 -1.734375q-0.546875 -0.546875 -1.6875 -0.546875q-1.53125 0 -2.671875 1.015625l-0.75 -0.875q1.234375 -1.265625 3.6875 -1.265625zm-2.734375 6.453125q0 0.75 0.5625 1.1875q0.578125 0.421875 1.5 0.421875q1.1875 0 1.90625 -0.734375q0.734375 -0.75 0.734375 -2.25l0 -0.46875l-0.859375 0q-1.75 0 -2.796875 0.453125q-1.046875 0.4375 -1.046875 1.390625zm12.870102 -6.453125q2.078125 0 2.78125 1.8125q0.390625 -0.859375 1.1875 -1.328125q0.8125 -0.484375 1.703125 -0.484375q1.625 0 2.4375 0.875q0.828125 0.875 0.828125 2.46875l0 5.609375l-1.21875 0l0 -5.1875q0 -1.359375 -0.515625 -2.0q-0.515625 -0.640625 -1.6875 -0.640625q-1.21875 0 -1.84375 0.875q-0.625 0.859375 -0.625 2.234375l0 4.71875l-1.234375 0l0 -5.1875q0 -1.359375 -0.5 -2.0q-0.5 -0.640625 -1.671875 -0.640625q-1.109375 0 -1.796875 0.921875q-0.6875 0.90625 -0.6875 2.46875l0 4.4375l-1.234375 0l0 -6.90625q0 -1.046875 -0.09375 -1.828125l1.328125 0l0 1.328125l0.03125 0q0.40625 -0.6875 1.1875 -1.109375q0.796875 -0.4375 1.625 -0.4375zm15.754501 0q1.921875 0 3.0625 1.265625q1.140625 1.25 1.140625 3.28125l0 0.375l-7.28125 0q0.140625 1.359375 1.03125 2.25q0.90625 0.890625 2.171875 0.890625q0.84375 0 1.59375 -0.40625q0.765625 -0.40625 1.203125 -1.109375l0.953125 0.78125q-1.484375 1.84375 -3.75 1.84375q-1.9375 0 -3.234375 -1.296875q-1.28125 -1.3125 -1.28125 -3.28125q0 -1.921875 1.265625 -3.25q1.28125 -1.34375 3.125 -1.34375zm2.859375 3.921875q0 -1.296875 -0.78125 -2.046875q-0.78125 -0.75 -2.0625 -0.75q-1.140625 0 -2.078125 0.828125q-0.9375 0.828125 -0.984375 1.96875l5.90625 0zm6.388504 -3.921875q2.171875 0 2.921875 1.5625l-1.109375 0.734375q-0.609375 -1.171875 -1.890625 -1.171875q-0.78125 0 -1.296875 0.359375q-0.5 0.34375 -0.5 0.9375q0 0.578125 0.40625 0.890625q0.40625 0.3125 1.609375 0.5625q1.578125 0.34375 2.109375 0.765625q0.546875 0.40625 0.75 0.921875q0.21875 0.5 0.21875 0.921875q0 1.25 -0.9375 1.96875q-0.9375 0.71875 -2.46875 0.71875q-2.21875 0 -3.359375 -1.6875l1.0625 -0.734375q0.859375 1.3125 2.296875 1.3125q0.921875 0 1.484375 -0.40625q0.578125 -0.40625 0.578125 -1.09375q0 -0.5625 -0.484375 -0.90625q-0.484375 -0.34375 -1.875 -0.625q-2.734375 -0.53125 -2.734375 -2.40625q0 -1.1875 0.890625 -1.90625q0.890625 -0.71875 2.328125 -0.71875zm9.791321 0q2.0 0 3.328125 1.296875q1.328125 1.296875 1.328125 3.296875q0 1.984375 -1.328125 3.28125q-1.3125 1.296875 -3.328125 1.296875q-0.984375 0 -1.921875 -0.4375q-0.921875 -0.453125 -1.46875 -1.234375l-0.03125 0l0 6.828125l-1.234375 0l0 -14.109375l1.234375 0l0 1.453125l0.03125 0q0.546875 -0.78125 1.46875 -1.21875q0.921875 -0.453125 1.921875 -0.453125zm-3.484375 4.59375q0 1.453125 1.0 2.46875q1.0 1.0 2.484375 1.0q1.484375 0 2.390625 -0.984375q0.921875 -0.984375 0.921875 -2.484375q0 -1.546875 -0.953125 -2.5q-0.9375 -0.96875 -2.375 -0.96875q-1.484375 0 -2.484375 1.0q-0.984375 1.0 -0.984375 2.46875zm13.852097 -4.59375q1.5 0 2.34375 0.84375q0.859375 0.828125 0.859375 2.203125l0 4.046875q0 0.859375 0.15625 1.859375l-1.203125 0q-0.109375 -0.578125 -0.109375 -1.421875l-0.03125 0q-0.546875 0.859375 -1.28125 1.25q-0.734375 0.390625 -1.796875 0.390625q-1.34375 0 -2.1875 -0.703125q-0.828125 -0.703125 -0.828125 -1.84375q0 -1.578125 1.3125 -2.296875q1.328125 -0.734375 4.171875 -0.734375l0.5625 0l0 -0.1875q0 -1.1875 -0.546875 -1.734375q-0.546875 -0.546875 -1.6875 -0.546875q-1.53125 0 -2.671875 1.015625l-0.75 -0.875q1.234375 -1.265625 3.6875 -1.265625zm-2.734375 6.453125q0 0.75 0.5625 1.1875q0.578125 0.421875 1.5 0.421875q1.1875 0 1.90625 -0.734375q0.734375 -0.75 0.734375 -2.25l0 -0.46875l-0.859375 0q-1.75 0 -2.796875 0.453125q-1.046875 0.4375 -1.046875 1.390625zm12.901352 -6.453125q1.96875 0 3.265625 1.515625l-1.015625 0.765625q-0.796875 -1.15625 -2.21875 -1.15625q-1.453125 0 -2.359375 0.96875q-0.890625 0.96875 -0.890625 2.5q0 1.5625 0.890625 2.515625q0.90625 0.953125 2.296875 0.953125q1.5 0 2.28125 -1.15625l1.015625 0.765625q-1.25 1.5 -3.3125 1.5q-2.015625 0 -3.265625 -1.296875q-1.25 -1.3125 -1.25 -3.28125q0 -2.015625 1.265625 -3.296875q1.28125 -1.296875 3.296875 -1.296875zm8.820435 0q1.921875 0 3.0625 1.265625q1.140625 1.25 1.140625 3.28125l0 0.375l-7.28125 0q0.140625 1.359375 1.03125 2.25q0.90625 0.890625 2.171875 0.890625q0.84375 0 1.59375 -0.40625q0.765625 -0.40625 1.203125 -1.109375l0.953125 0.78125q-1.484375 1.84375 -3.75 1.84375q-1.9375 0 -3.234375 -1.296875q-1.28125 -1.3125 -1.28125 -3.28125q0 -1.921875 1.265625 -3.25q1.28125 -1.34375 3.125 -1.34375zm2.859375 3.921875q0 -1.296875 -0.78125 -2.046875q-0.78125 -0.75 -2.0625 -0.75q-1.140625 0 -2.078125 0.828125q-0.9375 0.828125 -0.984375 1.96875l5.90625 0zm4.8260193 -3.796875q0.421875 0 0.703125 0.296875q0.296875 0.296875 0.296875 0.71875q0 0.40625 -0.296875 0.703125q-0.28125 0.296875 -0.703125 0.296875q-0.453125 0 -0.734375 -0.296875q-0.28125 -0.296875 -0.28125 -0.703125q0 -0.421875 0.296875 -0.71875q0.296875 -0.296875 0.71875 -0.296875zm0 6.921875q0.421875 0 0.703125 0.296875q0.296875 0.296875 0.296875 0.71875q0 0.40625 -0.296875 0.703125q-0.28125 0.296875 -0.703125 0.296875q-0.453125 0 -0.734375 -0.296875q-0.28125 -0.296875 -0.28125 -0.703125q0 -0.421875 0.296875 -0.71875q0.296875 -0.296875 0.71875 -0.296875zm11.122864 -9.28125l0 2.453125l2.515625 0l0 1.125l-2.515625 0l0 5.21875q0 0.71875 0.265625 1.109375q0.265625 0.390625 1.0 0.390625q0.640625 0 1.265625 -0.34375l0.0625 1.140625q-0.734375 0.3125 -1.671875 0.3125q-1.015625 0 -1.59375 -0.59375q-0.5625 -0.59375 -0.5625 -1.65625l0 -5.578125l-1.84375 0l0 -1.125l1.84375 0l0 -2.453125l1.234375 0zm8.131378 2.234375q1.921875 0 3.0625 1.265625q1.140625 1.25 1.140625 3.28125l0 0.375l-7.28125 0q0.140625 1.359375 1.03125 2.25q0.90625 0.890625 2.171875 0.890625q0.84375 0 1.59375 -0.40625q0.765625 -0.40625 1.203125 -1.109375l0.953125 0.78125q-1.484375 1.84375 -3.75 1.84375q-1.9375 0 -3.234375 -1.296875q-1.28125 -1.3125 -1.28125 -3.28125q0 -1.921875 1.265625 -3.25q1.28125 -1.34375 3.125 -1.34375zm2.859375 3.921875q0 -1.296875 -0.78125 -2.046875q-0.78125 -0.75 -2.0625 -0.75q-1.140625 0 -2.078125 0.828125q-0.9375 0.828125 -0.984375 1.96875l5.90625 0zm7.200989 -3.921875q1.5 0 2.34375 0.84375q0.859375 0.828125 0.859375 2.203125l0 4.046875q0 0.859375 0.15625 1.859375l-1.203125 0q-0.109375 -0.578125 -0.109375 -1.421875l-0.03125 0q-0.546875 0.859375 -1.28125 1.25q-0.734375 0.390625 -1.796875 0.390625q-1.34375 0 -2.1875 -0.703125q-0.828125 -0.703125 -0.828125 -1.84375q0 -1.578125 1.3125 -2.296875q1.328125 -0.734375 4.171875 -0.734375l0.5625 0l0 -0.1875q0 -1.1875 -0.546875 -1.734375q-0.546875 -0.546875 -1.6875 -0.546875q-1.53125 0 -2.671875 1.015625l-0.75 -0.875q1.234375 -1.265625 3.6875 -1.265625zm-2.734375 6.453125q0 0.75 0.5625 1.1875q0.578125 0.421875 1.5 0.421875q1.1875 0 1.90625 -0.734375q0.734375 -0.75 0.734375 -2.25l0 -0.46875l-0.859375 0q-1.75 0 -2.796875 0.453125q-1.046875 0.4375 -1.046875 1.390625zm12.870117 -6.453125q2.078125 0 2.78125 1.8125q0.390625 -0.859375 1.1875 -1.328125q0.8125 -0.484375 1.703125 -0.484375q1.625 0 2.4375 0.875q0.828125 0.875 0.828125 2.46875l0 5.609375l-1.21875 0l0 -5.1875q0 -1.359375 -0.515625 -2.0q-0.515625 -0.640625 -1.6875 -0.640625q-1.21875 0 -1.84375 0.875q-0.625 0.859375 -0.625 2.234375l0 4.71875l-1.234375 0l0 -5.1875q0 -1.359375 -0.5 -2.0q-0.5 -0.640625 -1.671875 -0.640625q-1.109375 0 -1.796875 0.921875q-0.6875 0.90625 -0.6875 2.46875l0 4.4375l-1.234375 0l0 -6.90625q0 -1.046875 -0.09375 -1.828125l1.328125 0l0 1.328125l0.03125 0q0.40625 -0.6875 1.1875 -1.109375q0.796875 -0.4375 1.625 -0.4375zm15.973236 3.859375l0 1.234375l-4.796875 0l0 -1.234375l4.796875 0zm5.6812744 -3.859375q1.5 0 2.34375 0.84375q0.859375 0.828125 0.859375 2.203125l0 4.046875q0 0.859375 0.15625 1.859375l-1.203125 0q-0.109375 -0.578125 -0.109375 -1.421875l-0.03125 0q-0.546875 0.859375 -1.28125 1.25q-0.734375 0.390625 -1.796875 0.390625q-1.34375 0 -2.1875 -0.703125q-0.828125 -0.703125 -0.828125 -1.84375q0 -1.578125 1.3125 -2.296875q1.328125 -0.734375 4.171875 -0.734375l0.5625 0l0 -0.1875q0 -1.1875 -0.546875 -1.734375q-0.546875 -0.546875 -1.6875 -0.546875q-1.53125 0 -2.671875 1.015625l-0.75 -0.875q1.234375 -1.265625 3.6875 -1.265625zm-2.734375 6.453125q0 0.75 0.5625 1.1875q0.578125 0.421875 1.5 0.421875q1.1875 0 1.90625 -0.734375q0.734375 -0.75 0.734375 -2.25l0 -0.46875l-0.859375 0q-1.75 0 -2.796875 0.453125q-1.046875 0.4375 -1.046875 1.390625z" fill-rule="nonzero"/><path fill="#f3f3f3" d="m514.76117 272.43832l377.25983 0l0 201.92126l-377.25983 0z" fill-rule="evenodd"/><path stroke="#000000" stroke-width="1.0" stroke-linejoin="round" stroke-linecap="butt" stroke-dasharray="1.0,3.0" d="m514.76117 272.43832l377.25983 0l0 201.92126l-377.25983 0z" fill-rule="evenodd"/><path fill="#000000" d="m622.36566 448.07645l7.875 11.1875l0.03125 0l0 -11.1875l1.34375 0l0 13.203125l-1.671875 0l-7.875 -11.3125l-0.03125 0l0 11.3125l-1.34375 0l0 -13.203125l1.671875 0zm16.014587 4.25q1.5 0 2.34375 0.84375q0.859375 0.828125 0.859375 2.203125l0 4.046875q0 0.859375 0.15625 1.859375l-1.203125 0q-0.109375 -0.578125 -0.109375 -1.421875l-0.03125 0q-0.546875 0.859375 -1.28125 1.25q-0.734375 0.390625 -1.796875 0.390625q-1.34375 0 -2.1875 -0.703125q-0.828125 -0.703125 -0.828125 -1.84375q0 -1.578125 1.3125 -2.296875q1.328125 -0.734375 4.171875 -0.734375l0.5625 0l0 -0.1875q0 -1.1875 -0.546875 -1.734375q-0.546875 -0.546875 -1.6875 -0.546875q-1.53125 0 -2.671875 1.015625l-0.75 -0.875q1.234375 -1.265625 3.6875 -1.265625zm-2.734375 6.453125q0 0.75 0.5625 1.1875q0.578125 0.421875 1.5 0.421875q1.1875 0 1.90625 -0.734375q0.734375 -0.75 0.734375 -2.25l0 -0.46875l-0.859375 0q-1.75 0 -2.796875 0.453125q-1.046875 0.4375 -1.046875 1.390625zm12.870056 -6.453125q2.078125 0 2.78125 1.8125q0.390625 -0.859375 1.1875 -1.328125q0.8125 -0.484375 1.703125 -0.484375q1.625 0 2.4375 0.875q0.828125 0.875 0.828125 2.46875l0 5.609375l-1.21875 0l0 -5.1875q0 -1.359375 -0.515625 -2.0q-0.515625 -0.640625 -1.6875 -0.640625q-1.21875 0 -1.84375 0.875q-0.625 0.859375 -0.625 2.234375l0 4.71875l-1.234375 0l0 -5.1875q0 -1.359375 -0.5 -2.0q-0.5 -0.640625 -1.671875 -0.640625q-1.109375 0 -1.796875 0.921875q-0.6875 0.90625 -0.6875 2.46875l0 4.4375l-1.234375 0l0 -6.90625q0 -1.046875 -0.09375 -1.828125l1.328125 0l0 1.328125l0.03125 0q0.40625 -0.6875 1.1875 -1.109375q0.796875 -0.4375 1.625 -0.4375zm15.754517 0q1.921875 0 3.0625 1.265625q1.140625 1.25 1.140625 3.28125l0 0.375l-7.28125 0q0.140625 1.359375 1.03125 2.25q0.90625 0.890625 2.171875 0.890625q0.84375 0 1.59375 -0.40625q0.765625 -0.40625 1.203125 -1.109375l0.953125 0.78125q-1.484375 1.84375 -3.75 1.84375q-1.9375 0 -3.234375 -1.296875q-1.28125 -1.3125 -1.28125 -3.28125q0 -1.921875 1.265625 -3.25q1.28125 -1.34375 3.125 -1.34375zm2.859375 3.921875q0 -1.296875 -0.78125 -2.046875q-0.78125 -0.75 -2.0625 -0.75q-1.140625 0 -2.078125 0.828125q-0.9375 0.828125 -0.984375 1.96875l5.90625 0zm6.388489 -3.921875q2.171875 0 2.921875 1.5625l-1.109375 0.734375q-0.609375 -1.171875 -1.890625 -1.171875q-0.78125 0 -1.296875 0.359375q-0.5 0.34375 -0.5 0.9375q0 0.578125 0.40625 0.890625q0.40625 0.3125 1.609375 0.5625q1.578125 0.34375 2.109375 0.765625q0.546875 0.40625 0.75 0.921875q0.21875 0.5 0.21875 0.921875q0 1.25 -0.9375 1.96875q-0.9375 0.71875 -2.46875 0.71875q-2.21875 0 -3.359375 -1.6875l1.0625 -0.734375q0.859375 1.3125 2.296875 1.3125q0.921875 0 1.484375 -0.40625q0.578125 -0.40625 0.578125 -1.09375q0 -0.5625 -0.484375 -0.90625q-0.484375 -0.34375 -1.875 -0.625q-2.734375 -0.53125 -2.734375 -2.40625q0 -1.1875 0.890625 -1.90625q0.890625 -0.71875 2.328125 -0.71875zm9.791321 0q2.0 0 3.328125 1.296875q1.328125 1.296875 1.328125 3.296875q0 1.984375 -1.328125 3.28125q-1.3125 1.296875 -3.328125 1.296875q-0.984375 0 -1.921875 -0.4375q-0.921875 -0.453125 -1.46875 -1.234375l-0.03125 0l0 6.828125l-1.234375 0l0 -14.109375l1.234375 0l0 1.453125l0.03125 0q0.546875 -0.78125 1.46875 -1.21875q0.921875 -0.453125 1.921875 -0.453125zm-3.484375 4.59375q0 1.453125 1.0 2.46875q1.0 1.0 2.484375 1.0q1.484375 0 2.390625 -0.984375q0.921875 -0.984375 0.921875 -2.484375q0 -1.546875 -0.953125 -2.5q-0.9375 -0.96875 -2.375 -0.96875q-1.484375 0 -2.484375 1.0q-0.984375 1.0 -0.984375 2.46875zm13.852112 -4.59375q1.5 0 2.34375 0.84375q0.859375 0.828125 0.859375 2.203125l0 4.046875q0 0.859375 0.15625 1.859375l-1.203125 0q-0.109375 -0.578125 -0.109375 -1.421875l-0.03125 0q-0.546875 0.859375 -1.28125 1.25q-0.734375 0.390625 -1.796875 0.390625q-1.34375 0 -2.1875 -0.703125q-0.828125 -0.703125 -0.828125 -1.84375q0 -1.578125 1.3125 -2.296875q1.328125 -0.734375 4.171875 -0.734375l0.5625 0l0 -0.1875q0 -1.1875 -0.546875 -1.734375q-0.546875 -0.546875 -1.6875 -0.546875q-1.53125 0 -2.671875 1.015625l-0.75 -0.875q1.234375 -1.265625 3.6875 -1.265625zm-2.734375 6.453125q0 0.75 0.5625 1.1875q0.578125 0.421875 1.5 0.421875q1.1875 0 1.90625 -0.734375q0.734375 -0.75 0.734375 -2.25l0 -0.46875l-0.859375 0q-1.75 0 -2.796875 0.453125q-1.046875 0.4375 -1.046875 1.390625zm12.901367 -6.453125q1.96875 0 3.265625 1.515625l-1.015625 0.765625q-0.796875 -1.15625 -2.21875 -1.15625q-1.453125 0 -2.359375 0.96875q-0.890625 0.96875 -0.890625 2.5q0 1.5625 0.890625 2.515625q0.90625 0.953125 2.296875 0.953125q1.5 0 2.28125 -1.15625l1.015625 0.765625q-1.25 1.5 -3.3125 1.5q-2.015625 0 -3.265625 -1.296875q-1.25 -1.3125 -1.25 -3.28125q0 -2.015625 1.265625 -3.296875q1.28125 -1.296875 3.296875 -1.296875zm8.820435 0q1.921875 0 3.0625 1.265625q1.140625 1.25 1.140625 3.28125l0 0.375l-7.28125 0q0.140625 1.359375 1.03125 2.25q0.90625 0.890625 2.171875 0.890625q0.84375 0 1.59375 -0.40625q0.765625 -0.40625 1.203125 -1.109375l0.953125 0.78125q-1.484375 1.84375 -3.75 1.84375q-1.9375 0 -3.234375 -1.296875q-1.28125 -1.3125 -1.28125 -3.28125q0 -1.921875 1.265625 -3.25q1.28125 -1.34375 3.125 -1.34375zm2.859375 3.921875q0 -1.296875 -0.78125 -2.046875q-0.78125 -0.75 -2.0625 -0.75q-1.140625 0 -2.078125 0.828125q-0.9375 0.828125 -0.984375 1.96875l5.90625 0zm4.825989 -3.796875q0.421875 0 0.703125 0.296875q0.296875 0.296875 0.296875 0.71875q0 0.40625 -0.296875 0.703125q-0.28125 0.296875 -0.703125 0.296875q-0.453125 0 -0.734375 -0.296875q-0.28125 -0.296875 -0.28125 -0.703125q0 -0.421875 0.296875 -0.71875q0.296875 -0.296875 0.71875 -0.296875zm0 6.921875q0.421875 0 0.703125 0.296875q0.296875 0.296875 0.296875 0.71875q0 0.40625 -0.296875 0.703125q-0.28125 0.296875 -0.703125 0.296875q-0.453125 0 -0.734375 -0.296875q-0.28125 -0.296875 -0.28125 -0.703125q0 -0.421875 0.296875 -0.71875q0.296875 -0.296875 0.71875 -0.296875zm11.122864 -9.28125l0 2.453125l2.515625 0l0 1.125l-2.515625 0l0 5.21875q0 0.71875 0.265625 1.109375q0.265625 0.390625 1.0 0.390625q0.640625 0 1.265625 -0.34375l0.0625 1.140625q-0.734375 0.3125 -1.671875 0.3125q-1.015625 0 -1.59375 -0.59375q-0.5625 -0.59375 -0.5625 -1.65625l0 -5.578125l-1.84375 0l0 -1.125l1.84375 0l0 -2.453125l1.234375 0zm8.131409 2.234375q1.921875 0 3.0625 1.265625q1.140625 1.25 1.140625 3.28125l0 0.375l-7.28125 0q0.140625 1.359375 1.03125 2.25q0.90625 0.890625 2.171875 0.890625q0.84375 0 1.59375 -0.40625q0.765625 -0.40625 1.203125 -1.109375l0.953125 0.78125q-1.484375 1.84375 -3.75 1.84375q-1.9375 0 -3.234375 -1.296875q-1.28125 -1.3125 -1.28125 -3.28125q0 -1.921875 1.265625 -3.25q1.28125 -1.34375 3.125 -1.34375zm2.859375 3.921875q0 -1.296875 -0.78125 -2.046875q-0.78125 -0.75 -2.0625 -0.75q-1.140625 0 -2.078125 0.828125q-0.9375 0.828125 -0.984375 1.96875l5.90625 0zm7.200989 -3.921875q1.5 0 2.34375 0.84375q0.859375 0.828125 0.859375 2.203125l0 4.046875q0 0.859375 0.15625 1.859375l-1.203125 0q-0.109375 -0.578125 -0.109375 -1.421875l-0.03125 0q-0.546875 0.859375 -1.28125 1.25q-0.734375 0.390625 -1.796875 0.390625q-1.34375 0 -2.1875 -0.703125q-0.828125 -0.703125 -0.828125 -1.84375q0 -1.578125 1.3125 -2.296875q1.328125 -0.734375 4.171875 -0.734375l0.5625 0l0 -0.1875q0 -1.1875 -0.546875 -1.734375q-0.546875 -0.546875 -1.6875 -0.546875q-1.53125 0 -2.671875 1.015625l-0.75 -0.875q1.234375 -1.265625 3.6875 -1.265625zm-2.734375 6.453125q0 0.75 0.5625 1.1875q0.578125 0.421875 1.5 0.421875q1.1875 0 1.90625 -0.734375q0.734375 -0.75 0.734375 -2.25l0 -0.46875l-0.859375 0q-1.75 0 -2.796875 0.453125q-1.046875 0.4375 -1.046875 1.390625zm12.870117 -6.453125q2.078125 0 2.78125 1.8125q0.390625 -0.859375 1.1875 -1.328125q0.8125 -0.484375 1.703125 -0.484375q1.625 0 2.4375 0.875q0.828125 0.875 0.828125 2.46875l0 5.609375l-1.21875 0l0 -5.1875q0 -1.359375 -0.515625 -2.0q-0.515625 -0.640625 -1.6875 -0.640625q-1.21875 0 -1.84375 0.875q-0.625 0.859375 -0.625 2.234375l0 4.71875l-1.234375 0l0 -5.1875q0 -1.359375 -0.5 -2.0q-0.5 -0.640625 -1.671875 -0.640625q-1.109375 0 -1.796875 0.921875q-0.6875 0.90625 -0.6875 2.46875l0 4.4375l-1.234375 0l0 -6.90625q0 -1.046875 -0.09375 -1.828125l1.328125 0l0 1.328125l0.03125 0q0.40625 -0.6875 1.1875 -1.109375q0.796875 -0.4375 1.625 -0.4375zm15.973206 3.859375l0 1.234375l-4.796875 0l0 -1.234375l4.796875 0zm3.2907104 -9.015625l0 6.828125l0.03125 0q0.546875 -0.78125 1.46875 -1.21875q0.921875 -0.453125 1.921875 -0.453125q2.046875 0 3.34375 1.3125q1.3125 1.296875 1.3125 3.28125q0 1.984375 -1.328125 3.28125q-1.3125 1.296875 -3.328125 1.296875q-0.984375 0 -1.921875 -0.4375q-0.921875 -0.453125 -1.46875 -1.234375l-0.03125 0l0 1.453125l-1.234375 0l0 -14.109375l1.234375 0zm-0.0625 9.75q0 1.453125 1.0 2.46875q1.0 1.0 2.484375 1.0q1.484375 0 2.390625 -0.984375q0.921875 -0.984375 0.921875 -2.484375q0 -1.546875 -0.953125 -2.5q-0.9375 -0.96875 -2.375 -0.96875q-1.484375 0 -2.484375 1.0q-0.984375 1.0 -0.984375 2.46875z" fill-rule="nonzero"/><path fill="#96ffe0" d="m136.3517 320.76663l0 0c0 -5.952057 4.8250885 -10.77713 10.77713 -10.77713l216.08354 0c2.8582764 0 5.5994873 1.135437 7.620575 3.1565552c2.0211182 2.0210876 3.1565552 4.7622986 3.1565552 7.620575l0 43.107178c0 5.9520264 -4.8250732 10.7771 -10.77713 10.7771l-216.08354 0c-5.9520416 0 -10.77713 -4.8250732 -10.77713 -10.7771z" fill-rule="evenodd"/><path fill="#000000" d="m164.99059 334.70645q2.421875 0 3.78125 1.046875q1.359375 1.03125 1.390625 3.078125q0 1.984375 -1.328125 3.0625q-1.3125 1.078125 -3.53125 1.125l-3.109375 0l0 6.78125l-1.796875 0l0 -15.09375l4.59375 0zm0.3125 6.640625q1.359375 0 2.140625 -0.65625q0.796875 -0.65625 0.796875 -1.828125q0 -1.171875 -0.78125 -1.828125q-0.765625 -0.671875 -2.15625 -0.671875l-3.109375 0l0 4.984375l3.109375 0zm12.194504 -1.78125q2.328125 0 3.796875 1.4375q1.484375 1.4375 1.546875 3.8125q0 2.28125 -1.5 3.75q-1.484375 1.453125 -3.84375 1.484375q-2.34375 0 -3.8125 -1.46875q-1.46875 -1.484375 -1.515625 -3.765625q0 -2.3125 1.484375 -3.765625q1.5 -1.46875 3.84375 -1.484375zm-3.53125 5.25q0 1.640625 0.984375 2.65625q1.0 1.0 2.546875 1.046875q1.5625 0 2.546875 -1.03125q0.984375 -1.03125 1.0 -2.671875q0 -1.625 -1.0 -2.671875q-0.984375 -1.046875 -2.5625 -1.046875q-1.53125 0 -2.515625 1.03125q-0.984375 1.03125 -1.0 2.6875zm14.497086 -5.25q2.390625 0.015625 3.390625 1.8125l-1.375 0.921875q-0.734375 -1.203125 -2.125 -1.203125q-0.828125 0 -1.390625 0.390625q-0.5625 0.375 -0.5625 1.0q0 1.0 2.5 1.453125q1.78125 0.3125 2.53125 1.046875q0.75 0.71875 0.75 1.9375q0 1.46875 -1.09375 2.296875q-1.09375 0.828125 -2.90625 0.828125q-1.40625 0 -2.3125 -0.4375q-0.90625 -0.453125 -1.5625 -1.40625l1.328125 -1.03125q0.609375 0.75 1.203125 1.046875q0.609375 0.296875 1.34375 0.296875q0.96875 0 1.578125 -0.40625q0.625 -0.421875 0.625 -1.125q0 -0.734375 -0.65625 -1.09375q-0.640625 -0.359375 -2.15625 -0.65625q-1.5 -0.328125 -2.171875 -0.953125q-0.671875 -0.640625 -0.671875 -1.78125q0 -1.25 1.03125 -2.078125q1.046875 -0.84375 2.703125 -0.859375zm8.554565 -2.578125l0 2.828125l2.9375 0l0 1.40625l-2.9375 0l0 5.34375q0 1.1875 0.375 1.578125q0.390625 0.375 1.125 0.375q0.828125 0 1.46875 -0.34375l0.0625 1.515625q-0.859375 0.359375 -1.9375 0.359375q-1.546875 0 -2.15625 -0.75q-0.59375 -0.765625 -0.59375 -2.484375l0 -5.59375l-2.1875 0l0 -1.40625l2.1875 0l0 -2.828125l1.65625 0zm9.710663 2.578125q1.140625 0 2.109375 0.53125q0.984375 0.53125 1.421875 1.421875l0.046875 0l0 -1.703125l1.65625 0l0 9.640625q0 2.5625 -1.359375 3.984375q-1.359375 1.4375 -4.078125 1.484375q-1.46875 0 -2.671875 -0.4375q-1.1875 -0.421875 -2.234375 -1.46875l1.203125 -1.359375q1.59375 1.71875 3.703125 1.71875q3.78125 0 3.78125 -4.0l0 -1.3125l-0.046875 0q-0.546875 0.90625 -1.53125 1.390625q-0.984375 0.46875 -2.0 0.46875q-2.3125 0 -3.78125 -1.4375q-1.46875 -1.4375 -1.515625 -3.671875q0 -2.421875 1.453125 -3.828125q1.453125 -1.40625 3.84375 -1.421875zm-3.5 5.25q0 1.484375 1.015625 2.53125q1.03125 1.03125 2.5 1.046875q1.625 0 2.59375 -1.046875q0.96875 -1.046875 0.96875 -2.578125q0 -1.640625 -1.0 -2.640625q-0.984375 -1.015625 -2.578125 -1.03125q-1.515625 0 -2.515625 1.078125q-0.984375 1.0625 -0.984375 2.640625zm16.71904 -5.25q0.390625 0 0.6875 0.109375l-0.109375 1.671875q-0.46875 -0.125 -0.90625 -0.125q-1.4375 0 -2.1875 0.953125q-0.734375 0.953125 -0.734375 2.671875l0 4.953125l-1.65625 0l0 -7.765625q0 -0.296875 -0.078125 -2.21875l1.578125 0q0.03125 1.5 0.03125 1.640625l0.046875 0q0.40625 -0.84375 1.3125 -1.359375q0.90625 -0.53125 2.015625 -0.53125zm6.76416 0q2.21875 0 3.453125 1.40625q1.25 1.390625 1.28125 3.9375l0 0.40625l-8.0625 0q0.125 1.390625 1.03125 2.296875q0.921875 0.890625 2.25 0.90625q2.03125 0 3.15625 -1.515625l1.265625 0.984375q-0.796875 1.015625 -1.859375 1.546875q-1.0625 0.515625 -2.5625 0.515625q-2.28125 0 -3.671875 -1.46875q-1.375 -1.484375 -1.40625 -3.765625q0 -2.265625 1.421875 -3.734375q1.421875 -1.46875 3.703125 -1.515625zm2.9375 4.34375q-0.0625 -1.296875 -0.84375 -2.046875q-0.78125 -0.765625 -2.1875 -0.765625q-1.28125 0 -2.15625 0.734375q-0.875 0.71875 -1.078125 2.078125l6.265625 0zm9.092865 -9.59375q2.75 0 4.21875 1.765625l-1.46875 1.28125q-0.859375 -1.34375 -2.75 -1.390625q-1.4375 0 -2.328125 0.6875q-0.890625 0.6875 -0.890625 1.859375q0 1.015625 0.671875 1.625q0.6875 0.59375 2.5625 1.171875q2.4375 0.703125 3.4375 1.71875q1.015625 1.0 1.015625 2.734375q0 2.0 -1.5 3.203125q-1.484375 1.1875 -3.8125 1.21875q-1.546875 0 -2.765625 -0.546875q-1.21875 -0.5625 -1.875 -1.546875l1.53125 -1.265625q0.5 0.8125 1.359375 1.25q0.875 0.4375 1.859375 0.4375q1.34375 0 2.3125 -0.75q0.96875 -0.765625 0.96875 -1.875q0 -1.0 -0.5625 -1.578125q-0.5625 -0.578125 -1.859375 -0.984375l-1.734375 -0.5625q-1.9375 -0.671875 -2.734375 -1.65625q-0.796875 -1.0 -0.796875 -2.453125q0 -1.90625 1.421875 -3.109375q1.4375 -1.21875 3.71875 -1.234375zm14.32724 0q2.21875 0 3.96875 1.015625q1.75 1.015625 2.765625 2.78125q1.015625 1.765625 1.03125 3.953125q0 2.0 -1.046875 3.734375q-1.03125 1.734375 -2.625 2.421875l0 0.046875l4.671875 0l0 1.53125l-8.8125 0q-3.234375 0 -5.453125 -2.21875q-2.203125 -2.21875 -2.265625 -5.515625q0 -2.1875 1.015625 -3.953125q1.03125 -1.765625 2.828125 -2.78125q1.8125 -1.015625 3.921875 -1.015625zm-5.84375 7.75q0 2.546875 1.6875 4.296875q1.6875 1.734375 4.15625 1.78125q2.5 0 4.140625 -1.765625q1.65625 -1.765625 1.703125 -4.3125q0 -2.59375 -1.671875 -4.328125q-1.671875 -1.734375 -4.1875 -1.765625q-2.453125 0 -4.109375 1.734375q-1.65625 1.734375 -1.71875 4.359375zm18.53772 -7.359375l0 13.4375l6.90625 0l0 1.65625l-8.703125 0l0 -15.09375l1.796875 0zm10.664124 0l0 15.09375l-1.796875 0l0 -15.09375l1.796875 0zm8.357819 4.859375q1.875 0 2.828125 1.09375q0.96875 1.078125 0.96875 2.890625l0 6.25l-1.671875 0l0 -6.0625q0 -1.140625 -0.53125 -1.875q-0.53125 -0.75 -1.75 -0.765625q-1.53125 0 -2.3125 1.015625q-0.78125 1.015625 -0.78125 2.796875l0 4.890625l-1.65625 0l0 -7.765625q0 -0.109375 -0.078125 -2.21875l1.578125 0q0.03125 1.5 0.03125 1.640625l0.046875 0q0.40625 -0.84375 1.3125 -1.359375q0.90625 -0.53125 2.015625 -0.53125zm9.999115 0q2.390625 0.015625 3.390625 1.8125l-1.375 0.921875q-0.734375 -1.203125 -2.125 -1.203125q-0.828125 0 -1.390625 0.390625q-0.5625 0.375 -0.5625 1.0q0 1.0 2.5 1.453125q1.78125 0.3125 2.53125 1.046875q0.75 0.71875 0.75 1.9375q0 1.46875 -1.09375 2.296875q-1.09375 0.828125 -2.90625 0.828125q-1.40625 0 -2.3125 -0.4375q-0.90625 -0.453125 -1.5625 -1.40625l1.328125 -1.03125q0.609375 0.75 1.203125 1.046875q0.609375 0.296875 1.34375 0.296875q0.96875 0 1.578125 -0.40625q0.625 -0.421875 0.625 -1.125q0 -0.734375 -0.65625 -1.09375q-0.640625 -0.359375 -2.15625 -0.65625q-1.5 -0.328125 -2.171875 -0.953125q-0.671875 -0.640625 -0.671875 -1.78125q0 -1.25 1.03125 -2.078125q1.046875 -0.84375 2.703125 -0.859375zm8.554565 -2.578125l0 2.828125l2.9375 0l0 1.40625l-2.9375 0l0 5.34375q0 1.1875 0.375 1.578125q0.390625 0.375 1.125 0.375q0.828125 0 1.46875 -0.34375l0.0625 1.515625q-0.859375 0.359375 -1.9375 0.359375q-1.546875 0 -2.15625 -0.75q-0.59375 -0.765625 -0.59375 -2.484375l0 -5.59375l-2.1875 0l0 -1.40625l2.1875 0l0 -2.828125l1.65625 0zm8.835663 2.578125q2.171875 0 3.15625 1.03125q1.0 1.015625 1.015625 3.078125l0 4.484375q0 0.640625 0.15625 1.640625l-1.609375 0q-0.09375 -0.1875 -0.09375 -1.5l-0.046875 0q-1.125 1.71875 -3.28125 1.75q-1.640625 0 -2.6875 -0.8125q-1.03125 -0.828125 -1.03125 -2.140625q0 -1.8125 1.484375 -2.65625q1.5 -0.84375 4.6875 -0.84375l0.765625 0l0 -0.28125q0 -2.171875 -2.484375 -2.21875q-1.78125 0 -2.953125 1.09375l-1.046875 -1.09375q1.53125 -1.484375 3.96875 -1.53125zm-2.625 7.359375q0 1.6875 2.1875 1.71875q1.3125 0 2.125 -0.828125q0.828125 -0.828125 0.828125 -2.4375l0 -0.375l-1.84375 0q-1.46875 0 -2.375 0.46875q-0.90625 0.46875 -0.921875 1.453125zm14.756836 -7.359375q1.875 0 2.828125 1.09375q0.96875 1.078125 0.96875 2.890625l0 6.25l-1.671875 0l0 -6.0625q0 -1.140625 -0.53125 -1.875q-0.53125 -0.75 -1.75 -0.765625q-1.53125 0 -2.3125 1.015625q-0.78125 1.015625 -0.78125 2.796875l0 4.890625l-1.65625 0l0 -7.765625q0 -0.109375 -0.078125 -2.21875l1.578125 0q0.03125 1.5 0.03125 1.640625l0.046875 0q0.40625 -0.84375 1.3125 -1.359375q0.90625 -0.53125 2.015625 -0.53125zm11.561615 0q2.359375 0 3.8125 1.578125l-1.3125 1.171875q-1.015625 -1.21875 -2.53125 -1.21875q-1.546875 0 -2.453125 1.015625q-0.90625 1.015625 -0.90625 2.703125q0 1.59375 0.96875 2.640625q0.96875 1.046875 2.390625 1.0625q1.65625 0 2.546875 -1.234375l1.234375 1.171875q-1.390625 1.578125 -3.78125 1.59375q-2.28125 -0.015625 -3.703125 -1.4375q-1.40625 -1.4375 -1.453125 -3.796875q0.03125 -2.390625 1.5 -3.8125q1.46875 -1.4375 3.6875 -1.4375zm10.217712 0q2.21875 0 3.453125 1.40625q1.25 1.390625 1.28125 3.9375l0 0.40625l-8.0625 0q0.125 1.390625 1.03125 2.296875q0.921875 0.890625 2.25 0.90625q2.03125 0 3.15625 -1.515625l1.265625 0.984375q-0.796875 1.015625 -1.859375 1.546875q-1.0625 0.515625 -2.5625 0.515625q-2.28125 0 -3.671875 -1.46875q-1.375 -1.484375 -1.40625 -3.765625q0 -2.265625 1.421875 -3.734375q1.421875 -1.46875 3.703125 -1.515625zm2.9375 4.34375q-0.0625 -1.296875 -0.84375 -2.046875q-0.78125 -0.765625 -2.1875 -0.765625q-1.28125 0 -2.15625 0.734375q-0.875 0.71875 -1.078125 2.078125l6.265625 0z" fill-rule="nonzero"/><path fill="#96ffe0" d="m584.5722 320.76663l0 0c0 -5.952057 4.8250732 -10.77713 10.7771 -10.77713l216.08356 0c2.8582764 0 5.5994873 1.135437 7.6205444 3.1565552c2.0211182 2.0210876 3.1565552 4.7622986 3.1565552 7.620575l0 43.107178c0 5.9520264 -4.8250732 10.7771 -10.7771 10.7771l-216.08356 0c-5.9520264 0 -10.7771 -4.8250732 -10.7771 -10.7771z" fill-rule="evenodd"/><path fill="#000000" d="m613.21106 334.70645q2.421875 0 3.78125 1.046875q1.359375 1.03125 1.390625 3.078125q0 1.984375 -1.328125 3.0625q-1.3125 1.078125 -3.53125 1.125l-3.109375 0l0 6.78125l-1.796875 0l0 -15.09375l4.59375 0zm0.3125 6.640625q1.359375 0 2.140625 -0.65625q0.796875 -0.65625 0.796875 -1.828125q0 -1.171875 -0.78125 -1.828125q-0.765625 -0.671875 -2.15625 -0.671875l-3.109375 0l0 4.984375l3.109375 0zm12.194519 -1.78125q2.328125 0 3.796875 1.4375q1.484375 1.4375 1.546875 3.8125q0 2.28125 -1.5 3.75q-1.484375 1.453125 -3.84375 1.484375q-2.34375 0 -3.8125 -1.46875q-1.46875 -1.484375 -1.515625 -3.765625q0 -2.3125 1.484375 -3.765625q1.5 -1.46875 3.84375 -1.484375zm-3.53125 5.25q0 1.640625 0.984375 2.65625q1.0 1.0 2.546875 1.046875q1.5625 0 2.546875 -1.03125q0.984375 -1.03125 1.0 -2.671875q0 -1.625 -1.0 -2.671875q-0.984375 -1.046875 -2.5625 -1.046875q-1.53125 0 -2.515625 1.03125q-0.984375 1.03125 -1.0 2.6875zm14.49707 -5.25q2.390625 0.015625 3.390625 1.8125l-1.375 0.921875q-0.734375 -1.203125 -2.125 -1.203125q-0.828125 0 -1.390625 0.390625q-0.5625 0.375 -0.5625 1.0q0 1.0 2.5 1.453125q1.78125 0.3125 2.53125 1.046875q0.75 0.71875 0.75 1.9375q0 1.46875 -1.09375 2.296875q-1.09375 0.828125 -2.90625 0.828125q-1.40625 0 -2.3125 -0.4375q-0.90625 -0.453125 -1.5625 -1.40625l1.328125 -1.03125q0.609375 0.75 1.203125 1.046875q0.609375 0.296875 1.34375 0.296875q0.96875 0 1.578125 -0.40625q0.625 -0.421875 0.625 -1.125q0 -0.734375 -0.65625 -1.09375q-0.640625 -0.359375 -2.15625 -0.65625q-1.5 -0.328125 -2.171875 -0.953125q-0.671875 -0.640625 -0.671875 -1.78125q0 -1.25 1.03125 -2.078125q1.046875 -0.84375 2.703125 -0.859375zm8.554565 -2.578125l0 2.828125l2.9375 0l0 1.40625l-2.9375 0l0 5.34375q0 1.1875 0.375 1.578125q0.390625 0.375 1.125 0.375q0.828125 0 1.46875 -0.34375l0.0625 1.515625q-0.859375 0.359375 -1.9375 0.359375q-1.546875 0 -2.15625 -0.75q-0.59375 -0.765625 -0.59375 -2.484375l0 -5.59375l-2.1875 0l0 -1.40625l2.1875 0l0 -2.828125l1.65625 0zm9.710632 2.578125q1.140625 0 2.109375 0.53125q0.984375 0.53125 1.421875 1.421875l0.046875 0l0 -1.703125l1.65625 0l0 9.640625q0 2.5625 -1.359375 3.984375q-1.359375 1.4375 -4.078125 1.484375q-1.46875 0 -2.671875 -0.4375q-1.1875 -0.421875 -2.234375 -1.46875l1.203125 -1.359375q1.59375 1.71875 3.703125 1.71875q3.78125 0 3.78125 -4.0l0 -1.3125l-0.046875 0q-0.546875 0.90625 -1.53125 1.390625q-0.984375 0.46875 -2.0 0.46875q-2.3125 0 -3.78125 -1.4375q-1.46875 -1.4375 -1.515625 -3.671875q0 -2.421875 1.453125 -3.828125q1.453125 -1.40625 3.84375 -1.421875zm-3.5 5.25q0 1.484375 1.015625 2.53125q1.03125 1.03125 2.5 1.046875q1.625 0 2.59375 -1.046875q0.96875 -1.046875 0.96875 -2.578125q0 -1.640625 -1.0 -2.640625q-0.984375 -1.015625 -2.578125 -1.03125q-1.515625 0 -2.515625 1.078125q-0.984375 1.0625 -0.984375 2.640625zm16.719055 -5.25q0.390625 0 0.6875 0.109375l-0.109375 1.671875q-0.46875 -0.125 -0.90625 -0.125q-1.4375 0 -2.1875 0.953125q-0.734375 0.953125 -0.734375 2.671875l0 4.953125l-1.65625 0l0 -7.765625q0 -0.296875 -0.078125 -2.21875l1.578125 0q0.03125 1.5 0.03125 1.640625l0.046875 0q0.40625 -0.84375 1.3125 -1.359375q0.90625 -0.53125 2.015625 -0.53125zm6.76416 0q2.21875 0 3.453125 1.40625q1.25 1.390625 1.28125 3.9375l0 0.40625l-8.0625 0q0.125 1.390625 1.03125 2.296875q0.921875 0.890625 2.25 0.90625q2.03125 0 3.15625 -1.515625l1.265625 0.984375q-0.796875 1.015625 -1.859375 1.546875q-1.0625 0.515625 -2.5625 0.515625q-2.28125 0 -3.671875 -1.46875q-1.375 -1.484375 -1.40625 -3.765625q0 -2.265625 1.421875 -3.734375q1.421875 -1.46875 3.703125 -1.515625zm2.9375 4.34375q-0.0625 -1.296875 -0.84375 -2.046875q-0.78125 -0.765625 -2.1875 -0.765625q-1.28125 0 -2.15625 0.734375q-0.875 0.71875 -1.078125 2.078125l6.265625 0zm9.0928955 -9.59375q2.75 0 4.21875 1.765625l-1.46875 1.28125q-0.859375 -1.34375 -2.75 -1.390625q-1.4375 0 -2.328125 0.6875q-0.890625 0.6875 -0.890625 1.859375q0 1.015625 0.671875 1.625q0.6875 0.59375 2.5625 1.171875q2.4375 0.703125 3.4375 1.71875q1.015625 1.0 1.015625 2.734375q0 2.0 -1.5 3.203125q-1.484375 1.1875 -3.8125 1.21875q-1.546875 0 -2.765625 -0.546875q-1.21875 -0.5625 -1.875 -1.546875l1.53125 -1.265625q0.5 0.8125 1.359375 1.25q0.875 0.4375 1.859375 0.4375q1.34375 0 2.3125 -0.75q0.96875 -0.765625 0.96875 -1.875q0 -1.0 -0.5625 -1.578125q-0.5625 -0.578125 -1.859375 -0.984375l-1.734375 -0.5625q-1.9375 -0.671875 -2.734375 -1.65625q-0.796875 -1.0 -0.796875 -2.453125q0 -1.90625 1.421875 -3.109375q1.4375 -1.21875 3.71875 -1.234375zm14.327209 0q2.21875 0 3.96875 1.015625q1.75 1.015625 2.765625 2.78125q1.015625 1.765625 1.03125 3.953125q0 2.0 -1.046875 3.734375q-1.03125 1.734375 -2.625 2.421875l0 0.046875l4.671875 0l0 1.53125l-8.8125 0q-3.234375 0 -5.453125 -2.21875q-2.203125 -2.21875 -2.265625 -5.515625q0 -2.1875 1.015625 -3.953125q1.03125 -1.765625 2.828125 -2.78125q1.8125 -1.015625 3.921875 -1.015625zm-5.84375 7.75q0 2.546875 1.6875 4.296875q1.6875 1.734375 4.15625 1.78125q2.5 0 4.140625 -1.765625q1.65625 -1.765625 1.703125 -4.3125q0 -2.59375 -1.671875 -4.328125q-1.671875 -1.734375 -4.1875 -1.765625q-2.453125 0 -4.109375 1.734375q-1.65625 1.734375 -1.71875 4.359375zm18.53772 -7.359375l0 13.4375l6.90625 0l0 1.65625l-8.703125 0l0 -15.09375l1.796875 0zm10.664124 0l0 15.09375l-1.796875 0l0 -15.09375l1.796875 0zm8.357849 4.859375q1.875 0 2.828125 1.09375q0.96875 1.078125 0.96875 2.890625l0 6.25l-1.671875 0l0 -6.0625q0 -1.140625 -0.53125 -1.875q-0.53125 -0.75 -1.75 -0.765625q-1.53125 0 -2.3125 1.015625q-0.78125 1.015625 -0.78125 2.796875l0 4.890625l-1.65625 0l0 -7.765625q0 -0.109375 -0.078125 -2.21875l1.578125 0q0.03125 1.5 0.03125 1.640625l0.046875 0q0.40625 -0.84375 1.3125 -1.359375q0.90625 -0.53125 2.015625 -0.53125zm9.999084 0q2.390625 0.015625 3.390625 1.8125l-1.375 0.921875q-0.734375 -1.203125 -2.125 -1.203125q-0.828125 0 -1.390625 0.390625q-0.5625 0.375 -0.5625 1.0q0 1.0 2.5 1.453125q1.78125 0.3125 2.53125 1.046875q0.75 0.71875 0.75 1.9375q0 1.46875 -1.09375 2.296875q-1.09375 0.828125 -2.90625 0.828125q-1.40625 0 -2.3125 -0.4375q-0.90625 -0.453125 -1.5625 -1.40625l1.328125 -1.03125q0.609375 0.75 1.203125 1.046875q0.609375 0.296875 1.34375 0.296875q0.96875 0 1.578125 -0.40625q0.625 -0.421875 0.625 -1.125q0 -0.734375 -0.65625 -1.09375q-0.640625 -0.359375 -2.15625 -0.65625q-1.5 -0.328125 -2.171875 -0.953125q-0.671875 -0.640625 -0.671875 -1.78125q0 -1.25 1.03125 -2.078125q1.046875 -0.84375 2.703125 -0.859375zm8.554565 -2.578125l0 2.828125l2.9375 0l0 1.40625l-2.9375 0l0 5.34375q0 1.1875 0.375 1.578125q0.390625 0.375 1.125 0.375q0.828125 0 1.46875 -0.34375l0.0625 1.515625q-0.859375 0.359375 -1.9375 0.359375q-1.546875 0 -2.15625 -0.75q-0.59375 -0.765625 -0.59375 -2.484375l0 -5.59375l-2.1875 0l0 -1.40625l2.1875 0l0 -2.828125l1.65625 0zm8.835693 2.578125q2.171875 0 3.15625 1.03125q1.0 1.015625 1.015625 3.078125l0 4.484375q0 0.640625 0.15625 1.640625l-1.609375 0q-0.09375 -0.1875 -0.09375 -1.5l-0.046875 0q-1.125 1.71875 -3.28125 1.75q-1.640625 0 -2.6875 -0.8125q-1.03125 -0.828125 -1.03125 -2.140625q0 -1.8125 1.484375 -2.65625q1.5 -0.84375 4.6875 -0.84375l0.765625 0l0 -0.28125q0 -2.171875 -2.484375 -2.21875q-1.78125 0 -2.953125 1.09375l-1.046875 -1.09375q1.53125 -1.484375 3.96875 -1.53125zm-2.625 7.359375q0 1.6875 2.1875 1.71875q1.3125 0 2.125 -0.828125q0.828125 -0.828125 0.828125 -2.4375l0 -0.375l-1.84375 0q-1.46875 0 -2.375 0.46875q-0.90625 0.46875 -0.921875 1.453125zm14.756836 -7.359375q1.875 0 2.828125 1.09375q0.96875 1.078125 0.96875 2.890625l0 6.25l-1.671875 0l0 -6.0625q0 -1.140625 -0.53125 -1.875q-0.53125 -0.75 -1.75 -0.765625q-1.53125 0 -2.3125 1.015625q-0.78125 1.015625 -0.78125 2.796875l0 4.890625l-1.65625 0l0 -7.765625q0 -0.109375 -0.078125 -2.21875l1.578125 0q0.03125 1.5 0.03125 1.640625l0.046875 0q0.40625 -0.84375 1.3125 -1.359375q0.90625 -0.53125 2.015625 -0.53125zm11.561584 0q2.359375 0 3.8125 1.578125l-1.3125 1.171875q-1.015625 -1.21875 -2.53125 -1.21875q-1.546875 0 -2.453125 1.015625q-0.90625 1.015625 -0.90625 2.703125q0 1.59375 0.96875 2.640625q0.96875 1.046875 2.390625 1.0625q1.65625 0 2.546875 -1.234375l1.234375 1.171875q-1.390625 1.578125 -3.78125 1.59375q-2.28125 -0.015625 -3.703125 -1.4375q-1.40625 -1.4375 -1.453125 -3.796875q0.03125 -2.390625 1.5 -3.8125q1.46875 -1.4375 3.6875 -1.4375zm10.217712 0q2.21875 0 3.453125 1.40625q1.25 1.390625 1.28125 3.9375l0 0.40625l-8.0625 0q0.125 1.390625 1.03125 2.296875q0.921875 0.890625 2.25 0.90625q2.03125 0 3.15625 -1.515625l1.265625 0.984375q-0.796875 1.015625 -1.859375 1.546875q-1.0625 0.515625 -2.5625 0.515625q-2.28125 0 -3.671875 -1.46875q-1.375 -1.484375 -1.40625 -3.765625q0 -2.265625 1.421875 -3.734375q1.421875 -1.46875 3.703125 -1.515625zm2.9375 4.34375q-0.0625 -1.296875 -0.84375 -2.046875q-0.78125 -0.765625 -2.1875 -0.765625q-1.28125 0 -2.15625 0.734375q-0.875 0.71875 -1.078125 2.078125l6.265625 0z" fill-rule="nonzero"/><path fill="#000000" fill-opacity="0.0" d="m408.60367 170.06561l141.35434 0l0 42.015747l-141.35434 0z" fill-rule="evenodd"/><path fill="#000000" d="m425.38492 183.43874q1.390625 0 2.578125 0.546875q1.1875 0.53125 1.984375 1.546875l-1.171875 0.875q-0.421875 -0.703125 -1.4375 -1.21875q-1.015625 -0.515625 -1.953125 -0.515625q-2.359375 0 -3.90625 1.640625q-1.53125 1.625 -1.53125 4.0625q0 2.46875 1.53125 4.09375q1.546875 1.625 3.90625 1.625q2.484375 0 3.78125 -1.984375l1.109375 0.78125q-0.75 1.125 -2.0625 1.78125q-1.296875 0.640625 -2.828125 0.640625q-2.9375 0 -4.921875 -1.984375q-1.96875 -1.984375 -1.96875 -4.953125q0 -2.9375 1.96875 -4.9375q1.96875 -2.0 4.921875 -2.0zm8.212128 -0.5625l0 14.109375l-1.234375 0l0 -14.109375l1.234375 0zm4.1962585 5.375l0 4.921875q0 1.515625 0.546875 2.21875q0.546875 0.703125 1.796875 0.703125q1.140625 0 1.90625 -0.921875q0.765625 -0.9375 0.765625 -2.359375l0 -4.5625l1.234375 0l0 6.890625q0.03125 1.046875 0.09375 1.84375l-1.265625 0q-0.0625 -0.703125 -0.0625 -1.40625l-0.03125 0q-0.46875 0.765625 -1.296875 1.203125q-0.8125 0.421875 -1.640625 0.421875q-1.703125 0 -2.5 -0.90625q-0.78125 -0.921875 -0.78125 -2.421875l0 -5.625l1.234375 0zm11.951019 -0.21875q2.171875 0 2.921875 1.5625l-1.109375 0.734375q-0.609375 -1.171875 -1.890625 -1.171875q-0.78125 0 -1.296875 0.359375q-0.5 0.34375 -0.5 0.9375q0 0.578125 0.40625 0.890625q0.40625 0.3125 1.609375 0.5625q1.578125 0.34375 2.109375 0.765625q0.546875 0.40625 0.75 0.921875q0.21875 0.5 0.21875 0.921875q0 1.25 -0.9375 1.96875q-0.9375 0.71875 -2.46875 0.71875q-2.21875 0 -3.359375 -1.6875l1.0625 -0.734375q0.859375 1.3125 2.296875 1.3125q0.921875 0 1.484375 -0.40625q0.578125 -0.40625 0.578125 -1.09375q0 -0.5625 -0.484375 -0.90625q-0.484375 -0.34375 -1.875 -0.625q-2.734375 -0.53125 -2.734375 -2.40625q0 -1.1875 0.890625 -1.90625q0.890625 -0.71875 2.328125 -0.71875zm7.135071 -2.234375l0 2.453125l2.515625 0l0 1.125l-2.515625 0l0 5.21875q0 0.71875 0.265625 1.109375q0.265625 0.390625 1.0 0.390625q0.640625 0 1.265625 -0.34375l0.0625 1.140625q-0.734375 0.3125 -1.671875 0.3125q-1.015625 0 -1.59375 -0.59375q-0.5625 -0.59375 -0.5625 -1.65625l0 -5.578125l-1.84375 0l0 -1.125l1.84375 0l0 -2.453125l1.234375 0zm8.131378 2.234375q1.921875 0 3.0625 1.265625q1.140625 1.25 1.140625 3.28125l0 0.375l-7.28125 0q0.140625 1.359375 1.03125 2.25q0.90625 0.890625 2.171875 0.890625q0.84375 0 1.59375 -0.40625q0.765625 -0.40625 1.203125 -1.109375l0.953125 0.78125q-1.484375 1.84375 -3.75 1.84375q-1.9375 0 -3.234375 -1.296875q-1.28125 -1.3125 -1.28125 -3.28125q0 -1.921875 1.265625 -3.25q1.28125 -1.34375 3.125 -1.34375zm2.859375 3.921875q0 -1.296875 -0.78125 -2.046875q-0.78125 -0.75 -2.0625 -0.75q-1.140625 0 -2.078125 0.828125q-0.9375 0.828125 -0.984375 1.96875l5.90625 0zm7.685364 -3.921875q0.484375 0 0.90625 0.109375l-0.234375 1.21875q-0.21875 -0.09375 -0.703125 -0.09375q-1.171875 0 -1.953125 0.8125q-0.765625 0.8125 -0.765625 2.0625l0 4.84375l-1.234375 0l0 -6.0625q-0.015625 -1.5625 -0.0625 -2.671875l1.203125 0l0 1.625l0.046875 0q0.71875 -1.84375 2.796875 -1.84375zm11.41156 -4.59375q2.34375 0 3.734375 1.609375l-1.171875 0.90625q-0.890625 -1.28125 -2.5625 -1.28125q-1.21875 0 -2.015625 0.640625q-0.796875 0.640625 -0.796875 1.75q0 0.90625 0.59375 1.484375q0.59375 0.5625 1.828125 0.953125q2.125 0.6875 2.84375 1.171875q0.734375 0.46875 1.109375 1.140625q0.390625 0.671875 0.390625 1.671875q0 1.65625 -1.296875 2.75q-1.296875 1.078125 -3.0625 1.078125q-2.703125 0 -4.140625 -1.953125l1.203125 -0.875q0.921875 1.609375 2.984375 1.609375q1.15625 0 2.0 -0.671875q0.859375 -0.6875 0.859375 -1.734375q0 -1.03125 -0.65625 -1.609375q-0.65625 -0.59375 -2.0625 -1.0q-1.828125 -0.59375 -2.578125 -1.046875q-0.734375 -0.46875 -1.109375 -1.15625q-0.359375 -0.703125 -0.359375 -1.6875q0 -1.640625 1.171875 -2.6875q1.1875 -1.0625 3.09375 -1.0625zm10.341644 4.59375q1.96875 0 3.265625 1.515625l-1.015625 0.765625q-0.796875 -1.15625 -2.21875 -1.15625q-1.453125 0 -2.359375 0.96875q-0.890625 0.96875 -0.890625 2.5q0 1.5625 0.890625 2.515625q0.90625 0.953125 2.296875 0.953125q1.5 0 2.28125 -1.15625l1.015625 0.765625q-1.25 1.5 -3.3125 1.5q-2.015625 0 -3.265625 -1.296875q-1.25 -1.3125 -1.25 -3.28125q0 -2.015625 1.265625 -3.296875q1.28125 -1.296875 3.296875 -1.296875zm9.05481 0q1.984375 0 3.3125 1.296875q1.34375 1.28125 1.34375 3.296875q0 1.96875 -1.296875 3.28125q-1.296875 1.296875 -3.359375 1.296875q-2.015625 0 -3.328125 -1.296875q-1.296875 -1.3125 -1.296875 -3.28125q0 -1.953125 1.296875 -3.265625q1.3125 -1.328125 3.328125 -1.328125zm-3.28125 4.59375q0 1.5 0.90625 2.484375q0.90625 0.984375 2.375 0.984375q1.5 0 2.40625 -1.0q0.90625 -1.0 0.90625 -2.46875q0 -1.546875 -0.9375 -2.5q-0.9375 -0.96875 -2.390625 -0.96875q-1.46875 0 -2.375 1.0q-0.890625 0.984375 -0.890625 2.46875zm14.828796 -4.59375q2.0 0 3.328125 1.296875q1.328125 1.296875 1.328125 3.296875q0 1.984375 -1.328125 3.28125q-1.3125 1.296875 -3.328125 1.296875q-0.984375 0 -1.921875 -0.4375q-0.921875 -0.453125 -1.46875 -1.234375l-0.03125 0l0 6.828125l-1.234375 0l0 -14.109375l1.234375 0l0 1.453125l0.03125 0q0.546875 -0.78125 1.46875 -1.21875q0.921875 -0.453125 1.921875 -0.453125zm-3.484375 4.59375q0 1.453125 1.0 2.46875q1.0 1.0 2.484375 1.0q1.484375 0 2.390625 -0.984375q0.921875 -0.984375 0.921875 -2.484375q0 -1.546875 -0.953125 -2.5q-0.9375 -0.96875 -2.375 -0.96875q-1.484375 0 -2.484375 1.0q-0.984375 1.0 -0.984375 2.46875zm14.164551 -4.59375q1.921875 0 3.0625 1.265625q1.140625 1.25 1.140625 3.28125l0 0.375l-7.28125 0q0.140625 1.359375 1.03125 2.25q0.90625 0.890625 2.171875 0.890625q0.84375 0 1.59375 -0.40625q0.765625 -0.40625 1.203125 -1.109375l0.953125 0.78125q-1.484375 1.84375 -3.75 1.84375q-1.9375 0 -3.234375 -1.296875q-1.28125 -1.3125 -1.28125 -3.28125q0 -1.921875 1.265625 -3.25q1.28125 -1.34375 3.125 -1.34375zm2.859375 3.921875q0 -1.296875 -0.78125 -2.046875q-0.78125 -0.75 -2.0625 -0.75q-1.140625 0 -2.078125 0.828125q-0.9375 0.828125 -0.984375 1.96875l5.90625 0z" fill-rule="nonzero"/><path fill="#000000" fill-opacity="0.0" d="m255.17061 309.9895l0 -97.921265" fill-rule="evenodd"/><path stroke="#000000" stroke-width="1.0" stroke-linejoin="round" stroke-linecap="butt" d="m255.17061 309.9895l0 -91.921265" fill-rule="evenodd"/><path fill="#000000" stroke="#000000" stroke-width="1.0" stroke-linecap="butt" d="m256.82233 218.06824l-1.6517181 -4.538086l-1.6517334 4.538086z" fill-rule="evenodd"/><path fill="#000000" fill-opacity="0.0" d="m703.39105 309.9895l0 -97.921265" fill-rule="evenodd"/><path stroke="#000000" stroke-width="1.0" stroke-linejoin="round" stroke-linecap="butt" d="m703.39105 309.9895l0 -91.921265" fill-rule="evenodd"/><path fill="#000000" stroke="#000000" stroke-width="1.0" stroke-linecap="butt" d="m705.0428 218.06824l-1.6517334 -4.538086l-1.6517334 4.538086z" fill-rule="evenodd"/><path fill="#96ffe0" d="m787.02496 98.361l0 0c0 -2.9745712 2.411316 -5.385933 5.3859253 -5.385933l148.18872 0c1.4284668 0 2.7984009 0.56744385 3.8084717 1.5774994c1.0100098 1.0100632 1.5774536 2.3799973 1.5774536 3.8084335l0 21.54309c0 2.9745712 -2.411316 5.385933 -5.3859253 5.385933l-148.18872 0l0 0c-2.9746094 0 -5.3859253 -2.4113617 -5.3859253 -5.385933z" fill-rule="evenodd"/><path fill="#000000" d="m854.9005 104.26067q1.109375 0 1.953125 0.390625q0.859375 0.390625 1.375 1.078125l-0.96875 0.71875q-0.421875 -0.578125 -1.046875 -0.859375q-0.625 -0.296875 -1.3125 -0.296875q-1.5 0 -2.53125 1.15625q-1.03125 1.140625 -1.0625 2.765625q0 1.6875 1.015625 2.796875q1.03125 1.109375 2.578125 1.125q1.703125 0 2.734375 -1.328125l0.84375 0.71875q-1.25 1.640625 -3.578125 1.640625q-2.0625 0 -3.421875 -1.421875q-1.34375 -1.421875 -1.375 -3.53125q0 -2.109375 1.359375 -3.515625q1.375 -1.421875 3.4375 -1.4375zm6.0860596 -0.40625l0 10.078125l-1.046875 0l0 -10.078125l1.046875 0zm4.4644165 3.6875q1.359375 0 1.96875 0.640625q0.625 0.625 0.640625 1.921875l0 2.796875q0 0.40625 0.09375 1.03125l-1.0 0q-0.0625 -0.125 -0.0625 -0.9375l-0.03125 0q-0.703125 1.078125 -2.046875 1.09375q-1.03125 0 -1.6875 -0.5q-0.640625 -0.515625 -0.640625 -1.34375q0 -1.140625 0.9375 -1.65625q0.9375 -0.53125 2.921875 -0.53125l0.46875 0l0 -0.171875q0 -1.359375 -1.546875 -1.390625q-1.109375 0 -1.84375 0.671875l-0.65625 -0.671875q0.953125 -0.9375 2.484375 -0.953125zm-1.640625 4.59375q0 1.046875 1.375 1.078125q0.8125 0 1.3125 -0.515625q0.515625 -0.53125 0.515625 -1.53125l0 -0.234375l-1.140625 0q-0.921875 0 -1.484375 0.296875q-0.5625 0.296875 -0.578125 0.90625zm6.7609863 -7.640625q0.3125 0 0.53125 0.21875q0.234375 0.21875 0.234375 0.546875q0 0.328125 -0.21875 0.546875q-0.203125 0.203125 -0.546875 0.203125q-0.328125 0 -0.546875 -0.203125q-0.203125 -0.21875 -0.203125 -0.546875q0 -0.328125 0.21875 -0.546875q0.234375 -0.21875 0.53125 -0.21875zm0.53125 3.203125l0 6.234375l-1.046875 0l0 -6.234375l1.046875 0zm5.1362305 -0.15625q1.421875 0 1.96875 1.171875q0.359375 -0.609375 0.828125 -0.890625q0.46875 -0.28125 1.15625 -0.28125q1.203125 0 1.78125 0.640625q0.578125 0.625 0.578125 1.890625l0 3.859375l-1.046875 0l0 -3.765625q0 -1.640625 -1.515625 -1.671875q-0.703125 0 -1.15625 0.53125q-0.453125 0.515625 -0.453125 1.265625l0 3.640625l-1.046875 0l0 -3.609375q0 -0.921875 -0.265625 -1.375q-0.265625 -0.453125 -0.953125 -0.453125q-0.9375 0 -1.421875 0.640625q-0.484375 0.625 -0.484375 1.75l0 3.046875l-1.046875 0l0 -4.84375q-0.015625 -0.46875 -0.046875 -1.390625l0.984375 0q0.03125 0.921875 0.03125 1.015625l0.015625 0q0.25 -0.53125 0.8125 -0.84375q0.5625 -0.328125 1.28125 -0.328125z" fill-rule="nonzero"/><path fill="#183d54" d="m787.02496 58.202206l0 0c0 -2.9745674 2.411316 -5.385933 5.3859253 -5.385933l148.18872 0c1.4284668 0 2.7984009 0.56744385 3.8084717 1.5775032c1.0100098 1.0100594 1.5774536 2.3799934 1.5774536 3.8084297l0 21.543095c0 2.9745712 -2.411316 5.385933 -5.3859253 5.385933l-148.18872 0l0 0c-2.9746094 0 -5.3859253 -2.4113617 -5.3859253 -5.385933z" fill-rule="evenodd"/><path stroke="#000000" stroke-width="1.0" stroke-linejoin="round" stroke-linecap="butt" d="m787.02496 58.202206l0 0c0 -2.9745674 2.411316 -5.385933 5.3859253 -5.385933l148.18872 0c1.4284668 0 2.7984009 0.56744385 3.8084717 1.5775032c1.0100098 1.0100594 1.5774536 2.3799934 1.5774536 3.8084297l0 21.543095c0 2.9745712 -2.411316 5.385933 -5.3859253 5.385933l-148.18872 0l0 0c-2.9746094 0 -5.3859253 -2.4113617 -5.3859253 -5.385933z" fill-rule="evenodd"/><path fill="#ffffff" d="m809.805 64.101875q1.109375 0 1.953125 0.390625q0.859375 0.390625 1.375 1.078125l-0.96875 0.71875q-0.421875 -0.578125 -1.046875 -0.859375q-0.625 -0.296875 -1.3125 -0.296875q-1.5 0 -2.53125 1.15625q-1.03125 1.140625 -1.0625 2.765625q0 1.6875 1.015625 2.796875q1.03125 1.109375 2.578125 1.125q1.703125 0 2.734375 -1.328125l0.84375 0.71875q-1.25 1.640625 -3.578125 1.640625q-2.0625 0 -3.421875 -1.421875q-1.34375 -1.421875 -1.375 -3.53125q0 -2.109375 1.359375 -3.515625q1.375 -1.421875 3.4375 -1.4375zm7.9142456 3.28125q1.453125 0 2.375 0.90625q0.921875 0.890625 0.96875 2.359375q0 1.4375 -0.9375 2.359375q-0.9375 0.90625 -2.40625 0.921875q-1.453125 0 -2.375 -0.921875q-0.921875 -0.921875 -0.953125 -2.359375q0 -1.4375 0.9375 -2.34375q0.9375 -0.921875 2.390625 -0.921875zm-2.203125 3.265625q0 1.03125 0.609375 1.671875q0.625 0.625 1.59375 0.65625q0.984375 0 1.59375 -0.640625q0.609375 -0.65625 0.625 -1.6875q0 -1.0 -0.625 -1.65625q-0.609375 -0.65625 -1.609375 -0.65625q-0.953125 0 -1.5625 0.65625q-0.609375 0.640625 -0.625 1.65625zm10.22937 -3.265625q1.421875 0 1.96875 1.171875q0.359375 -0.609375 0.828125 -0.890625q0.46875 -0.28125 1.15625 -0.28125q1.203125 0 1.78125 0.640625q0.578125 0.625 0.578125 1.890625l0 3.859375l-1.046875 0l0 -3.765625q0 -1.640625 -1.515625 -1.671875q-0.703125 0 -1.15625 0.53125q-0.453125 0.515625 -0.453125 1.265625l0 3.640625l-1.046875 0l0 -3.609375q0 -0.921875 -0.265625 -1.375q-0.265625 -0.453125 -0.953125 -0.453125q-0.9375 0 -1.421875 0.640625q-0.484375 0.625 -0.484375 1.75l0 3.046875l-1.046875 0l0 -4.84375q-0.015625 -0.46875 -0.046875 -1.390625l0.984375 0q0.03125 0.921875 0.03125 1.015625l0.015625 0q0.25 -0.53125 0.8125 -0.84375q0.5625 -0.328125 1.28125 -0.328125zm11.527405 0q1.484375 0 2.375 0.9375q0.890625 0.921875 0.90625 2.328125q0 1.40625 -0.90625 2.34375q-0.90625 0.921875 -2.21875 0.9375q-0.796875 0 -1.4375 -0.34375q-0.640625 -0.34375 -0.953125 -0.921875l-0.03125 0l0 4.140625l-1.03125 0l0 -9.265625l1.03125 0l0 0.90625l0.03125 0q0.921875 -1.0625 2.234375 -1.0625zm-2.265625 3.265625q0 1.03125 0.625 1.671875q0.625 0.625 1.59375 0.65625q0.96875 0 1.578125 -0.640625q0.625 -0.65625 0.625 -1.6875q0 -1.0 -0.625 -1.65625q-0.609375 -0.65625 -1.59375 -0.65625q-0.953125 0 -1.578125 0.65625q-0.609375 0.640625 -0.625 1.65625zm10.127808 -3.265625q1.453125 0 2.375 0.90625q0.921875 0.890625 0.96875 2.359375q0 1.4375 -0.9375 2.359375q-0.9375 0.90625 -2.40625 0.921875q-1.453125 0 -2.375 -0.921875q-0.921875 -0.921875 -0.953125 -2.359375q0 -1.4375 0.9375 -2.34375q0.9375 -0.921875 2.390625 -0.921875zm-2.203125 3.265625q0 1.03125 0.609375 1.671875q0.625 0.625 1.59375 0.65625q0.984375 0 1.59375 -0.640625q0.609375 -0.65625 0.625 -1.6875q0 -1.0 -0.625 -1.65625q-0.609375 -0.65625 -1.609375 -0.65625q-0.953125 0 -1.5625 0.65625q-0.609375 0.640625 -0.625 1.65625zm9.057495 -3.265625q1.5 0 2.125 1.125l-0.875 0.578125q-0.453125 -0.75 -1.3125 -0.75q-0.515625 0 -0.875 0.25q-0.359375 0.234375 -0.359375 0.609375q0 0.640625 1.5625 0.90625q1.125 0.203125 1.59375 0.65625q0.46875 0.453125 0.46875 1.21875q0 0.921875 -0.6875 1.4375q-0.671875 0.515625 -1.8125 0.515625q-0.875 0 -1.453125 -0.28125q-0.5625 -0.28125 -0.96875 -0.875l0.828125 -0.640625q0.375 0.46875 0.75 0.65625q0.375 0.1875 0.84375 0.1875q0.59375 0 0.984375 -0.25q0.390625 -0.265625 0.390625 -0.71875q0 -0.453125 -0.40625 -0.671875q-0.40625 -0.234375 -1.359375 -0.421875q-0.921875 -0.1875 -1.34375 -0.59375q-0.421875 -0.40625 -0.421875 -1.109375q0 -0.78125 0.640625 -1.296875q0.65625 -0.53125 1.6875 -0.53125zm4.3808594 -3.046875q0.3125 0 0.53125 0.21875q0.234375 0.21875 0.234375 0.546875q0 0.328125 -0.21875 0.546875q-0.203125 0.203125 -0.546875 0.203125q-0.328125 0 -0.546875 -0.203125q-0.203125 -0.21875 -0.203125 -0.546875q0 -0.328125 0.21875 -0.546875q0.234375 -0.21875 0.53125 -0.21875zm0.53125 3.203125l0 6.234375l-1.046875 0l0 -6.234375l1.046875 0zm3.6362915 -1.78125l0 1.78125l1.828125 0l0 0.875l-1.828125 0l0 3.328125q0 0.75 0.234375 1.0q0.234375 0.234375 0.6875 0.234375q0.53125 0 0.921875 -0.21875l0.046875 0.953125q-0.53125 0.21875 -1.21875 0.21875q-0.953125 0 -1.34375 -0.46875q-0.375 -0.46875 -0.375 -1.546875l0 -3.5l-1.359375 0l0 -0.875l1.359375 0l0 -1.78125l1.046875 0zm5.9570923 1.625q1.390625 0 2.15625 0.875q0.78125 0.859375 0.796875 2.46875l0 0.25l-5.03125 0q0.078125 0.859375 0.640625 1.421875q0.578125 0.5625 1.40625 0.578125q1.265625 0 1.96875 -0.953125l0.796875 0.609375q-0.5 0.640625 -1.171875 0.96875q-0.65625 0.328125 -1.59375 0.328125q-1.421875 0 -2.296875 -0.921875q-0.859375 -0.921875 -0.875 -2.359375q0 -1.40625 0.890625 -2.328125q0.890625 -0.921875 2.3125 -0.9375zm1.84375 2.71875q-0.046875 -0.8125 -0.53125 -1.28125q-0.484375 -0.484375 -1.375 -0.484375q-0.796875 0 -1.34375 0.453125q-0.546875 0.453125 -0.671875 1.3125l3.921875 0zm9.193726 -5.765625q1.84375 0 2.71875 0.625q0.875 0.609375 0.875 1.96875q0 1.0 -0.59375 1.640625q-0.59375 0.640625 -1.765625 0.859375l2.671875 4.34375l-1.359375 0l-2.5625 -4.234375l-1.4375 0l0 4.234375l-1.125 0l0 -9.4375l2.578125 0zm-0.125 4.15625q1.3125 0 1.90625 -0.359375q0.609375 -0.375 0.609375 -1.203125q0 -0.796875 -0.546875 -1.171875q-0.53125 -0.375 -1.65625 -0.375l-1.640625 0l0 3.109375l1.328125 0zm8.346558 -1.109375q1.390625 0 2.15625 0.875q0.78125 0.859375 0.796875 2.46875l0 0.25l-5.03125 0q0.078125 0.859375 0.640625 1.421875q0.578125 0.5625 1.40625 0.578125q1.265625 0 1.96875 -0.953125l0.796875 0.609375q-0.5 0.640625 -1.171875 0.96875q-0.65625 0.328125 -1.59375 0.328125q-1.421875 0 -2.296875 -0.921875q-0.859375 -0.921875 -0.875 -2.359375q0 -1.40625 0.890625 -2.328125q0.890625 -0.921875 2.3125 -0.9375zm1.84375 2.71875q-0.046875 -0.8125 -0.53125 -1.28125q-0.484375 -0.484375 -1.375 -0.484375q-0.796875 0 -1.34375 0.453125q-0.546875 0.453125 -0.671875 1.3125l3.921875 0zm4.6292114 -2.71875q1.5 0 2.125 1.125l-0.875 0.578125q-0.453125 -0.75 -1.3125 -0.75q-0.515625 0 -0.875 0.25q-0.359375 0.234375 -0.359375 0.609375q0 0.640625 1.5625 0.90625q1.125 0.203125 1.59375 0.65625q0.46875 0.453125 0.46875 1.21875q0 0.921875 -0.6875 1.4375q-0.671875 0.515625 -1.8125 0.515625q-0.875 0 -1.453125 -0.28125q-0.5625 -0.28125 -0.96875 -0.875l0.828125 -0.640625q0.375 0.46875 0.75 0.65625q0.375 0.1875 0.84375 0.1875q0.59375 0 0.984375 -0.25q0.390625 -0.265625 0.390625 -0.71875q0 -0.453125 -0.40625 -0.671875q-0.40625 -0.234375 -1.359375 -0.421875q-0.921875 -0.1875 -1.34375 -0.59375q-0.421875 -0.40625 -0.421875 -1.109375q0 -0.78125 0.640625 -1.296875q0.65625 -0.53125 1.6875 -0.53125zm6.7402344 0q1.453125 0 2.375 0.90625q0.921875 0.890625 0.96875 2.359375q0 1.4375 -0.9375 2.359375q-0.9375 0.90625 -2.40625 0.921875q-1.453125 0 -2.375 -0.921875q-0.921875 -0.921875 -0.953125 -2.359375q0 -1.4375 0.9375 -2.34375q0.9375 -0.921875 2.390625 -0.921875zm-2.203125 3.265625q0 1.03125 0.609375 1.671875q0.625 0.625 1.59375 0.65625q0.984375 0 1.59375 -0.640625q0.609375 -0.65625 0.625 -1.6875q0 -1.0 -0.625 -1.65625q-0.609375 -0.65625 -1.609375 -0.65625q-0.953125 0 -1.5625 0.65625q-0.609375 0.640625 -0.625 1.65625zm8.19812 -3.109375l0 3.78125q0 0.71875 0.328125 1.1875q0.34375 0.453125 1.09375 0.46875q0.953125 0 1.4375 -0.640625q0.5 -0.640625 0.5 -1.703125l0 -3.09375l1.03125 0l0 4.84375q0.015625 0.375 0.0625 1.390625l-1.0 0q0 -0.640625 -0.015625 -1.03125l-0.03125 0q-0.234375 0.53125 -0.8125 0.859375q-0.5625 0.328125 -1.28125 0.328125q-1.140625 -0.015625 -1.75 -0.6875q-0.609375 -0.671875 -0.609375 -1.796875l0 -3.90625l1.046875 0zm9.426025 -0.15625q0.25 0 0.4375 0.0625l-0.078125 1.046875q-0.28125 -0.078125 -0.546875 -0.078125q-0.90625 0 -1.375 0.59375q-0.453125 0.59375 -0.453125 1.671875l0 3.09375l-1.046875 0l0 -4.84375q0 -0.1875 -0.046875 -1.390625l0.984375 0q0.03125 0.9375 0.03125 1.015625l0.015625 0q0.25 -0.53125 0.8125 -0.84375q0.578125 -0.328125 1.265625 -0.328125zm4.264038 0q1.484375 0 2.390625 0.984375l-0.828125 0.734375q-0.625 -0.765625 -1.5625 -0.765625q-0.984375 0 -1.546875 0.640625q-0.56256104 0.625 -0.56256104 1.671875q0 1.0 0.59381104 1.65625q0.609375 0.65625 1.515625 0.671875q1.015625 0 1.578125 -0.78125l0.765625 0.734375q-0.859375 0.984375 -2.34375 1.0q-1.4375 -0.015625 -2.328186 -0.90625q-0.875 -0.890625 -0.90625 -2.375q0.015625 -1.484375 0.9375 -2.375q0.92193604 -0.890625 2.296936 -0.890625zm6.3928833 0q1.390625 0 2.15625 0.875q0.78125 0.859375 0.796875 2.46875l0 0.25l-5.03125 0q0.078125 0.859375 0.640625 1.421875q0.578125 0.5625 1.40625 0.578125q1.265625 0 1.96875 -0.953125l0.796875 0.609375q-0.5 0.640625 -1.171875 0.96875q-0.65625 0.328125 -1.59375 0.328125q-1.421875 0 -2.296875 -0.921875q-0.859375 -0.921875 -0.875 -2.359375q0 -1.40625 0.890625 -2.328125q0.890625 -0.921875 2.3125 -0.9375zm1.84375 2.71875q-0.046875 -0.8125 -0.53125 -1.28125q-0.484375 -0.484375 -1.375 -0.484375q-0.796875 0 -1.34375 0.453125q-0.546875 0.453125 -0.671875 1.3125l3.921875 0z" fill-rule="nonzero"/><path fill="#000000" fill-opacity="0.0" d="m813.78217 17.257217l105.44879 0l0 35.559055l-105.44879 0z" fill-rule="evenodd"/><path fill="#000000" d="m846.21234 29.619717l0 8.390625l4.3125 0l0 1.046875l-5.4375 0l0 -9.4375l1.125 0zm8.1953125 3.046875q1.390625 0 2.15625 0.875q0.78125 0.859375 0.796875 2.46875l0 0.25l-5.03125 0q0.078125 0.859375 0.640625 1.421875q0.578125 0.5625 1.40625 0.578125q1.265625 0 1.96875 -0.953125l0.796875 0.609375q-0.5 0.640625 -1.171875 0.96875q-0.65625 0.328125 -1.59375 0.328125q-1.421875 0 -2.296875 -0.921875q-0.859375 -0.921875 -0.875 -2.359375q0 -1.40625 0.890625 -2.328125q0.890625 -0.921875 2.3125 -0.9375zm1.84375 2.71875q-0.046875 -0.8125 -0.53125 -1.28125q-0.484375 -0.484375 -1.375 -0.484375q-0.796875 0 -1.34375 0.453125q-0.546875 0.453125 -0.671875 1.3125l3.921875 0zm5.6760254 -2.71875q0.71875 0 1.3125 0.328125q0.609375 0.328125 0.890625 0.890625l0.03125 0l0 -1.0625l1.03125 0l0 6.015625q0 1.609375 -0.859375 2.5q-0.84375 0.890625 -2.53125 0.921875q-0.921875 0 -1.671875 -0.265625q-0.734375 -0.265625 -1.390625 -0.921875l0.75 -0.859375q1.0 1.078125 2.3125 1.078125q2.359375 0 2.359375 -2.5l0 -0.8125l-0.03125 0q-0.34375 0.5625 -0.953125 0.859375q-0.609375 0.296875 -1.25 0.296875q-1.4375 0 -2.359375 -0.890625q-0.921875 -0.90625 -0.953125 -2.3125q0 -1.5 0.90625 -2.375q0.90625 -0.890625 2.40625 -0.890625zm-2.1875 3.265625q0 0.9375 0.640625 1.59375q0.640625 0.640625 1.546875 0.65625q1.015625 0 1.625 -0.65625q0.609375 -0.65625 0.609375 -1.609375q0 -1.03125 -0.625 -1.65625q-0.609375 -0.625 -1.609375 -0.640625q-0.953125 0 -1.578125 0.671875q-0.609375 0.65625 -0.609375 1.640625zm10.221558 -3.265625q1.390625 0 2.15625 0.875q0.78125 0.859375 0.796875 2.46875l0 0.25l-5.03125 0q0.078125 0.859375 0.640625 1.421875q0.578125 0.5625 1.40625 0.578125q1.265625 0 1.96875 -0.953125l0.796875 0.609375q-0.5 0.640625 -1.171875 0.96875q-0.65625 0.328125 -1.59375 0.328125q-1.421875 0 -2.296875 -0.921875q-0.859375 -0.921875 -0.875 -2.359375q0 -1.40625 0.890625 -2.328125q0.890625 -0.921875 2.3125 -0.9375zm1.84375 2.71875q-0.046875 -0.8125 -0.53125 -1.28125q-0.484375 -0.484375 -1.375 -0.484375q-0.796875 0 -1.34375 0.453125q-0.546875 0.453125 -0.671875 1.3125l3.921875 0zm5.7854004 -2.71875q1.171875 0 1.765625 0.6875q0.609375 0.671875 0.609375 1.796875l0 3.90625l-1.03125 0l0 -3.78125q0 -0.71875 -0.34375 -1.171875q-0.328125 -0.46875 -1.09375 -0.484375q-0.953125 0 -1.4375 0.640625q-0.484375 0.625 -0.484375 1.75l0 3.046875l-1.046875 0l0 -4.84375q0 -0.078125 -0.046875 -1.390625l0.984375 0q0.03125 0.9375 0.03125 1.015625l0.015625 0q0.25 -0.53125 0.8125 -0.84375q0.578125 -0.328125 1.265625 -0.328125zm10.566711 -3.6875l0 10.078125l-1.03125 0l0 -1.109375l-0.03125 0q-0.3125 0.609375 -0.96875 0.9375q-0.65625 0.328125 -1.421875 0.328125q-1.328125 0 -2.21875 -0.9375q-0.875 -0.9375 -0.90625 -2.34375q0 -1.421875 0.90625 -2.34375q0.921875 -0.921875 2.375 -0.921875q1.34375 0 2.234375 1.0625l0.03125 0l0 -4.75l1.03125 0zm-5.453125 6.953125q0 1.03125 0.609375 1.671875q0.625 0.640625 1.59375 0.65625q0.984375 0 1.578125 -0.640625q0.609375 -0.640625 0.640625 -1.6875q0 -1.0 -0.625 -1.65625q-0.609375 -0.65625 -1.609375 -0.65625q-0.953125 0 -1.5625 0.65625q-0.609375 0.640625 -0.625 1.65625z" fill-rule="nonzero"/></g></svg>