<svg version="1.1" viewBox="0.0 0.0 960.7191601049868 219.49081364829397" fill="none" stroke="none" stroke-linecap="square" stroke-miterlimit="10" xmlns:xlink="http://www.w3.org/1999/xlink" xmlns="http://www.w3.org/2000/svg"><clipPath id="p.0"><path d="m0 0l960.7192 0l0 219.49081l-960.7192 0l0 -219.49081z" clip-rule="nonzero"/></clipPath><g clip-path="url(#p.0)"><path fill="#000000" fill-opacity="0.0" d="m0 0l960.7192 0l0 219.49081l-960.7192 0z" fill-rule="evenodd"/><path fill="#183d54" d="m342.4147 57.144573l0 0c0 -5.952038 4.8250732 -10.777119 10.7771 -10.777119l216.08359 0c2.8582764 0 5.5994263 1.1354408 7.6205444 3.1565437c2.0211182 2.021103 3.1565552 4.762306 3.1565552 7.620575l0 43.10718c0 5.952034 -4.8250732 10.777115 -10.7771 10.777115l-216.08359 0c-5.9520264 0 -10.7771 -4.825081 -10.7771 -10.777115z" fill-rule="evenodd"/><path fill="#ffffff" d="m360.53833 71.08441l4.0625 5.90625l4.03125 -5.90625l2.25 0l-5.078125 7.140625l5.5625 7.953125l-2.359375 0l-4.484375 -6.703125l-4.5 6.703125l-2.21875 0l5.5 -7.953125l-5.078125 -7.140625l2.3125 0zm17.233643 0q2.421875 0 3.78125 1.046875q1.359375 1.03125 1.390625 3.078125q0 1.984375 -1.328125 3.0625q-1.3125 1.078125 -3.53125 1.125l-3.109375 0l0 6.78125l-1.796875 0l0 -15.09375l4.59375 0zm0.3125 6.640625q1.359375 0 2.140625 -0.65625q0.796875 -0.65625 0.796875 -1.828125q0 -1.171875 -0.78125 -1.828125q-0.765625 -0.671875 -2.15625 -0.671875l-3.109375 0l0 4.984375l3.109375 0zm12.194489 -1.78125q2.328125 0 3.796875 1.4375q1.484375 1.4375 1.546875 3.8125q0 2.28125 -1.5 3.75q-1.484375 1.453125 -3.84375 1.484375q-2.34375 0 -3.8125 -1.46875q-1.46875 -1.484375 -1.515625 -3.765625q0 -2.3125 1.484375 -3.765625q1.5 -1.46875 3.84375 -1.484375zm-3.53125 5.25q0 1.640625 0.984375 2.65625q1.0 1.0 2.546875 1.046875q1.5625 0 2.546875 -1.03125q0.984375 -1.03125 1.0 -2.671875q0 -1.625 -1.0 -2.671875q-0.984375 -1.046875 -2.5625 -1.046875q-1.53125 0 -2.515625 1.03125q-0.984375 1.03125 -1.0 2.6875zm14.497101 -5.25q2.390625 0.015625 3.390625 1.8125l-1.375 0.921875q-0.734375 -1.203125 -2.125 -1.203125q-0.828125 0 -1.390625 0.390625q-0.5625 0.375 -0.5625 1.0q0 1.0 2.5 1.453125q1.78125 0.3125 2.53125 1.046875q0.75 0.71875 0.75 1.9375q0 1.46875 -1.09375 2.296875q-1.09375 0.828125 -2.90625 0.828125q-1.40625 0 -2.3125 -0.4375q-0.90625 -0.453125 -1.5625 -1.40625l1.328125 -1.03125q0.609375 0.75 1.203125 1.046875q0.609375 0.296875 1.34375 0.296875q0.96875 0 1.578125 -0.40625q0.625 -0.421875 0.625 -1.125q0 -0.734375 -0.65625 -1.09375q-0.640625 -0.359375 -2.15625 -0.65625q-1.5 -0.328125 -2.171875 -0.953125q-0.671875 -0.640625 -0.671875 -1.78125q0 -1.25 1.03125 -2.078125q1.046875 -0.84375 2.703125 -0.859375zm8.554565 -2.578125l0 2.828125l2.9375 0l0 1.40625l-2.9375 0l0 5.34375q0 1.1875 0.375 1.578125q0.390625 0.375 1.125 0.375q0.828125 0 1.46875 -0.34375l0.0625 1.515625q-0.859375 0.359375 -1.9375 0.359375q-1.546875 0 -2.15625 -0.75q-0.59375 -0.765625 -0.59375 -2.484375l0 -5.59375l-2.1875 0l0 -1.40625l2.1875 0l0 -2.828125l1.65625 0zm9.710663 2.578125q1.140625 0 2.109375 0.53125q0.984375 0.53125 1.421875 1.421875l0.046875 0l0 -1.703125l1.65625 0l0 9.640625q0 2.5625 -1.359375 3.984375q-1.359375 1.4375 -4.078125 1.484375q-1.46875 0 -2.671875 -0.4375q-1.1875 -0.421875 -2.234375 -1.46875l1.203125 -1.359375q1.59375 1.71875 3.703125 1.71875q3.78125 0 3.78125 -4.0l0 -1.3125l-0.046875 0q-0.546875 0.90625 -1.53125 1.390625q-0.984375 0.46875 -2.0 0.46875q-2.3125 0 -3.78125 -1.4375q-1.46875 -1.4375 -1.515625 -3.671875q0 -2.421875 1.453125 -3.828125q1.453125 -1.40625 3.84375 -1.421875zm-3.5 5.25q0 1.484375 1.015625 2.53125q1.03125 1.03125 2.5 1.046875q1.625 0 2.59375 -1.046875q0.96875 -1.046875 0.96875 -2.578125q0 -1.640625 -1.0 -2.640625q-0.984375 -1.015625 -2.578125 -1.03125q-1.515625 0 -2.515625 1.078125q-0.984375 1.0625 -0.984375 2.640625zm16.719025 -5.25q0.390625 0 0.6875 0.109375l-0.109375 1.671875q-0.46875 -0.125 -0.90625 -0.125q-1.4375 0 -2.1875 0.953125q-0.734375 0.953125 -0.734375 2.671875l0 4.953125l-1.65625 0l0 -7.765625q0 -0.296875 -0.078125 -2.21875l1.578125 0q0.03125 1.5 0.03125 1.640625l0.046875 0q0.40625 -0.84375 1.3125 -1.359375q0.90625 -0.53125 2.015625 -0.53125zm6.76416 0q2.21875 0 3.453125 1.40625q1.25 1.390625 1.28125 3.9375l0 0.40625l-8.0625 0q0.125 1.390625 1.03125 2.296875q0.921875 0.890625 2.25 0.90625q2.03125 0 3.15625 -1.515625l1.265625 0.984375q-0.796875 1.015625 -1.859375 1.546875q-1.0625 0.515625 -2.5625 0.515625q-2.28125 0 -3.671875 -1.46875q-1.375 -1.484375 -1.40625 -3.765625q0 -2.265625 1.421875 -3.734375q1.421875 -1.46875 3.703125 -1.515625zm2.9375 4.34375q-0.0625 -1.296875 -0.84375 -2.046875q-0.78125 -0.765625 -2.1875 -0.765625q-1.28125 0 -2.15625 0.734375q-0.875 0.71875 -1.078125 2.078125l6.265625 0zm9.092865 -9.59375q2.75 0 4.21875 1.765625l-1.46875 1.28125q-0.859375 -1.34375 -2.75 -1.390625q-1.4375 0 -2.328125 0.6875q-0.890625 0.6875 -0.890625 1.859375q0 1.015625 0.671875 1.625q0.6875 0.59375 2.5625 1.171875q2.4375 0.703125 3.4375 1.71875q1.015625 1.0 1.015625 2.734375q0 2.0 -1.5 3.203125q-1.484375 1.1875 -3.8125 1.21875q-1.546875 0 -2.765625 -0.546875q-1.21875 -0.5625 -1.875 -1.546875l1.53125 -1.265625q0.5 0.8125 1.359375 1.25q0.875 0.4375 1.859375 0.4375q1.34375 0 2.3125 -0.75q0.96875 -0.765625 0.96875 -1.875q0 -1.0 -0.5625 -1.578125q-0.5625 -0.578125 -1.859375 -0.984375l-1.734375 -0.5625q-1.9375 -0.671875 -2.734375 -1.65625q-0.796875 -1.0 -0.796875 -2.453125q0 -1.90625 1.421875 -3.109375q1.4375 -1.21875 3.71875 -1.234375zm14.32724 0q2.21875 0 3.96875 1.015625q1.75 1.015625 2.765625 2.78125q1.015625 1.765625 1.03125 3.953125q0 2.0 -1.046875 3.734375q-1.03125 1.734375 -2.625 2.421875l0 0.046875l4.671875 0l0 1.53125l-8.8125 0q-3.234375 0 -5.453125 -2.21875q-2.203125 -2.21875 -2.265625 -5.515625q0 -2.1875 1.015625 -3.953125q1.03125 -1.765625 2.828125 -2.78125q1.8125 -1.015625 3.921875 -1.015625zm-5.84375 7.75q0 2.546875 1.6875 4.296875q1.6875 1.734375 4.15625 1.78125q2.5 0 4.140625 -1.765625q1.65625 -1.765625 1.703125 -4.3125q0 -2.59375 -1.671875 -4.328125q-1.671875 -1.734375 -4.1875 -1.765625q-2.453125 0 -4.109375 1.734375q-1.65625 1.734375 -1.71875 4.359375zm18.53772 -7.359375l0 13.4375l6.90625 0l0 1.65625l-8.703125 0l0 -15.09375l1.796875 0zm10.664124 0l0 15.09375l-1.796875 0l0 -15.09375l1.796875 0zm8.357819 4.859375q1.875 0 2.828125 1.09375q0.96875 1.078125 0.96875 2.890625l0 6.25l-1.671875 0l0 -6.0625q0 -1.140625 -0.53125 -1.875q-0.53125 -0.75 -1.75 -0.765625q-1.53125 0 -2.3125 1.015625q-0.78125 1.015625 -0.78125 2.796875l0 4.890625l-1.65625 0l0 -7.765625q0 -0.109375 -0.078125 -2.21875l1.578125 0q0.03125 1.5 0.03125 1.640625l0.046875 0q0.40625 -0.84375 1.3125 -1.359375q0.90625 -0.53125 2.015625 -0.53125zm9.999115 0q2.390625 0.015625 3.390625 1.8125l-1.375 0.921875q-0.734375 -1.203125 -2.125 -1.203125q-0.828125 0 -1.390625 0.390625q-0.5625 0.375 -0.5625 1.0q0 1.0 2.5 1.453125q1.78125 0.3125 2.53125 1.046875q0.75 0.71875 0.75 1.9375q0 1.46875 -1.09375 2.296875q-1.09375 0.828125 -2.90625 0.828125q-1.40625 0 -2.3125 -0.4375q-0.90625 -0.453125 -1.5625 -1.40625l1.328125 -1.03125q0.609375 0.75 1.203125 1.046875q0.609375 0.296875 1.34375 0.296875q0.96875 0 1.578125 -0.40625q0.625 -0.421875 0.625 -1.125q0 -0.734375 -0.65625 -1.09375q-0.640625 -0.359375 -2.15625 -0.65625q-1.5 -0.328125 -2.171875 -0.953125q-0.671875 -0.640625 -0.671875 -1.78125q0 -1.25 1.03125 -2.078125q1.046875 -0.84375 2.703125 -0.859375zm8.554565 -2.578125l0 2.828125l2.9375 0l0 1.40625l-2.9375 0l0 5.34375q0 1.1875 0.375 1.578125q0.390625 0.375 1.125 0.375q0.828125 0 1.46875 -0.34375l0.0625 1.515625q-0.859375 0.359375 -1.9375 0.359375q-1.546875 0 -2.15625 -0.75q-0.59375 -0.765625 -0.59375 -2.484375l0 -5.59375l-2.1875 0l0 -1.40625l2.1875 0l0 -2.828125l1.65625 0zm8.835693 2.578125q2.171875 0 3.15625 1.03125q1.0 1.015625 1.015625 3.078125l0 4.484375q0 0.640625 0.15625 1.640625l-1.609375 0q-0.09375 -0.1875 -0.09375 -1.5l-0.046875 0q-1.125 1.71875 -3.28125 1.75q-1.640625 0 -2.6875 -0.8125q-1.03125 -0.828125 -1.03125 -2.140625q0 -1.8125 1.484375 -2.65625q1.5 -0.84375 4.6875 -0.84375l0.765625 0l0 -0.28125q0 -2.171875 -2.484375 -2.21875q-1.78125 0 -2.953125 1.09375l-1.046875 -1.09375q1.53125 -1.484375 3.96875 -1.53125zm-2.625 7.359375q0 1.6875 2.1875 1.71875q1.3125 0 2.125 -0.828125q0.828125 -0.828125 0.828125 -2.4375l0 -0.375l-1.84375 0q-1.46875 0 -2.375 0.46875q-0.90625 0.46875 -0.921875 1.453125zm14.756836 -7.359375q1.875 0 2.828125 1.09375q0.96875 1.078125 0.96875 2.890625l0 6.25l-1.671875 0l0 -6.0625q0 -1.140625 -0.53125 -1.875q-0.53125 -0.75 -1.75 -0.765625q-1.53125 0 -2.3125 1.015625q-0.78125 1.015625 -0.78125 2.796875l0 4.890625l-1.65625 0l0 -7.765625q0 -0.109375 -0.078125 -2.21875l1.578125 0q0.03125 1.5 0.03125 1.640625l0.046875 0q0.40625 -0.84375 1.3125 -1.359375q0.90625 -0.53125 2.015625 -0.53125zm11.561584 0q2.359375 0 3.8125 1.578125l-1.3125 1.171875q-1.015625 -1.21875 -2.53125 -1.21875q-1.546875 0 -2.453125 1.015625q-0.90625 1.015625 -0.90625 2.703125q0 1.59375 0.96875 2.640625q0.96875 1.046875 2.390625 1.0625q1.65625 0 2.546875 -1.234375l1.234375 1.171875q-1.390625 1.578125 -3.78125 1.59375q-2.28125 -0.015625 -3.703125 -1.4375q-1.40625 -1.4375 -1.453125 -3.796875q0.03125 -2.390625 1.5 -3.8125q1.46875 -1.4375 3.6875 -1.4375zm10.217712 0q2.21875 0 3.453125 1.40625q1.25 1.390625 1.28125 3.9375l0 0.40625l-8.0625 0q0.125 1.390625 1.03125 2.296875q0.921875 0.890625 2.25 0.90625q2.03125 0 3.15625 -1.515625l1.265625 0.984375q-0.796875 1.015625 -1.859375 1.546875q-1.0625 0.515625 -2.5625 0.515625q-2.28125 0 -3.671875 -1.46875q-1.375 -1.484375 -1.40625 -3.765625q0 -2.265625 1.421875 -3.734375q1.421875 -1.46875 3.703125 -1.515625zm2.9375 4.34375q-0.0625 -1.296875 -0.84375 -2.046875q-0.78125 -0.765625 -2.1875 -0.765625q-1.28125 0 -2.15625 0.734375q-0.875 0.71875 -1.078125 2.078125l6.265625 0z" fill-rule="nonzero"/><path fill="#96ffe0" d="m70.80052 57.144573l0 0c0 -5.952038 4.825081 -10.777119 10.7771225 -10.777119l216.08356 0c2.8582764 0 5.5994873 1.1354408 7.620575 3.1565437c2.0211182 2.021103 3.1565552 4.762306 3.1565552 7.620575l0 43.10718c0 5.952034 -4.8250732 10.777115 -10.77713 10.777115l-216.08356 0c-5.9520416 0 -10.7771225 -4.825081 -10.7771225 -10.777115z" fill-rule="evenodd"/><path fill="#000000" d="m99.43941 71.08441q2.421875 0 3.78125 1.046875q1.359375 1.03125 1.390625 3.078125q0 1.984375 -1.328125 3.0625q-1.3125 1.078125 -3.53125 1.125l-3.109375 0l0 6.78125l-1.796875 0l0 -15.09375l4.59375 0zm0.3125 6.640625q1.359375 0 2.140625 -0.65625q0.796875 -0.65625 0.796875 -1.828125q0 -1.171875 -0.78125 -1.828125q-0.765625 -0.671875 -2.15625 -0.671875l-3.109375 0l0 4.984375l3.109375 0zm12.194504 -1.78125q2.328125 0 3.796875 1.4375q1.484375 1.4375 1.546875 3.8125q0 2.28125 -1.5 3.75q-1.484375 1.453125 -3.84375 1.484375q-2.34375 0 -3.8125 -1.46875q-1.46875 -1.484375 -1.515625 -3.765625q0 -2.3125 1.484375 -3.765625q1.5 -1.46875 3.84375 -1.484375zm-3.53125 5.25q0 1.640625 0.984375 2.65625q1.0 1.0 2.546875 1.046875q1.5625 0 2.546875 -1.03125q0.984375 -1.03125 1.0 -2.671875q0 -1.625 -1.0 -2.671875q-0.984375 -1.046875 -2.5625 -1.046875q-1.53125 0 -2.515625 1.03125q-0.984375 1.03125 -1.0 2.6875zm14.497086 -5.25q2.390625 0.015625 3.390625 1.8125l-1.375 0.921875q-0.734375 -1.203125 -2.125 -1.203125q-0.828125 0 -1.390625 0.390625q-0.5625 0.375 -0.5625 1.0q0 1.0 2.5 1.453125q1.78125 0.3125 2.53125 1.046875q0.75 0.71875 0.75 1.9375q0 1.46875 -1.09375 2.296875q-1.09375 0.828125 -2.90625 0.828125q-1.40625 0 -2.3125 -0.4375q-0.90625 -0.453125 -1.5625 -1.40625l1.328125 -1.03125q0.609375 0.75 1.203125 1.046875q0.609375 0.296875 1.34375 0.296875q0.96875 0 1.578125 -0.40625q0.625 -0.421875 0.625 -1.125q0 -0.734375 -0.65625 -1.09375q-0.640625 -0.359375 -2.15625 -0.65625q-1.5 -0.328125 -2.171875 -0.953125q-0.671875 -0.640625 -0.671875 -1.78125q0 -1.25 1.03125 -2.078125q1.046875 -0.84375 2.703125 -0.859375zm8.554565 -2.578125l0 2.828125l2.9375 0l0 1.40625l-2.9375 0l0 5.34375q0 1.1875 0.375 1.578125q0.390625 0.375 1.125 0.375q0.828125 0 1.46875 -0.34375l0.0625 1.515625q-0.859375 0.359375 -1.9375 0.359375q-1.546875 0 -2.15625 -0.75q-0.59375 -0.765625 -0.59375 -2.484375l0 -5.59375l-2.1875 0l0 -1.40625l2.1875 0l0 -2.828125l1.65625 0zm9.710663 2.578125q1.140625 0 2.109375 0.53125q0.984375 0.53125 1.421875 1.421875l0.046875 0l0 -1.703125l1.65625 0l0 9.640625q0 2.5625 -1.359375 3.984375q-1.359375 1.4375 -4.078125 1.484375q-1.46875 0 -2.671875 -0.4375q-1.1875 -0.421875 -2.234375 -1.46875l1.203125 -1.359375q1.59375 1.71875 3.703125 1.71875q3.78125 0 3.78125 -4.0l0 -1.3125l-0.046875 0q-0.546875 0.90625 -1.53125 1.390625q-0.984375 0.46875 -2.0 0.46875q-2.3125 0 -3.78125 -1.4375q-1.46875 -1.4375 -1.515625 -3.671875q0 -2.421875 1.453125 -3.828125q1.453125 -1.40625 3.84375 -1.421875zm-3.5 5.25q0 1.484375 1.015625 2.53125q1.03125 1.03125 2.5 1.046875q1.625 0 2.59375 -1.046875q0.96875 -1.046875 0.96875 -2.578125q0 -1.640625 -1.0 -2.640625q-0.984375 -1.015625 -2.578125 -1.03125q-1.515625 0 -2.515625 1.078125q-0.984375 1.0625 -0.984375 2.640625zm16.71904 -5.25q0.390625 0 0.6875 0.109375l-0.109375 1.671875q-0.46875 -0.125 -0.90625 -0.125q-1.4375 0 -2.1875 0.953125q-0.734375 0.953125 -0.734375 2.671875l0 4.953125l-1.65625 0l0 -7.765625q0 -0.296875 -0.078125 -2.21875l1.578125 0q0.03125 1.5 0.03125 1.640625l0.046875 0q0.40625 -0.84375 1.3125 -1.359375q0.90625 -0.53125 2.015625 -0.53125zm6.76416 0q2.21875 0 3.453125 1.40625q1.25 1.390625 1.28125 3.9375l0 0.40625l-8.0625 0q0.125 1.390625 1.03125 2.296875q0.921875 0.890625 2.25 0.90625q2.03125 0 3.15625 -1.515625l1.265625 0.984375q-0.796875 1.015625 -1.859375 1.546875q-1.0625 0.515625 -2.5625 0.515625q-2.28125 0 -3.671875 -1.46875q-1.375 -1.484375 -1.40625 -3.765625q0 -2.265625 1.421875 -3.734375q1.421875 -1.46875 3.703125 -1.515625zm2.9375 4.34375q-0.0625 -1.296875 -0.84375 -2.046875q-0.78125 -0.765625 -2.1875 -0.765625q-1.28125 0 -2.15625 0.734375q-0.875 0.71875 -1.078125 2.078125l6.265625 0zm9.092865 -9.59375q2.75 0 4.21875 1.765625l-1.46875 1.28125q-0.859375 -1.34375 -2.75 -1.390625q-1.4375 0 -2.328125 0.6875q-0.890625 0.6875 -0.890625 1.859375q0 1.015625 0.671875 1.625q0.6875 0.59375 2.5625 1.171875q2.4375 0.703125 3.4375 1.71875q1.015625 1.0 1.015625 2.734375q0 2.0 -1.5 3.203125q-1.484375 1.1875 -3.8125 1.21875q-1.546875 0 -2.765625 -0.546875q-1.21875 -0.5625 -1.875 -1.546875l1.53125 -1.265625q0.5 0.8125 1.359375 1.25q0.875 0.4375 1.859375 0.4375q1.34375 0 2.3125 -0.75q0.96875 -0.765625 0.96875 -1.875q0 -1.0 -0.5625 -1.578125q-0.5625 -0.578125 -1.859375 -0.984375l-1.734375 -0.5625q-1.9375 -0.671875 -2.734375 -1.65625q-0.796875 -1.0 -0.796875 -2.453125q0 -1.90625 1.421875 -3.109375q1.4375 -1.21875 3.71875 -1.234375zm14.32724 0q2.21875 0 3.96875 1.015625q1.75 1.015625 2.765625 2.78125q1.015625 1.765625 1.03125 3.953125q0 2.0 -1.046875 3.734375q-1.03125 1.734375 -2.625 2.421875l0 0.046875l4.671875 0l0 1.53125l-8.8125 0q-3.234375 0 -5.453125 -2.21875q-2.203125 -2.21875 -2.265625 -5.515625q0 -2.1875 1.015625 -3.953125q1.03125 -1.765625 2.828125 -2.78125q1.8125 -1.015625 3.921875 -1.015625zm-5.84375 7.75q0 2.546875 1.6875 4.296875q1.6875 1.734375 4.15625 1.78125q2.5 0 4.140625 -1.765625q1.65625 -1.765625 1.703125 -4.3125q0 -2.59375 -1.671875 -4.328125q-1.671875 -1.734375 -4.1875 -1.765625q-2.453125 0 -4.109375 1.734375q-1.65625 1.734375 -1.71875 4.359375zm18.537735 -7.359375l0 13.4375l6.9062347 0l0 1.65625l-8.70311 0l0 -15.09375l1.796875 0zm10.664108 0l0 15.09375l-1.796875 0l0 -15.09375l1.796875 0zm8.357819 4.859375q1.875 0 2.828125 1.09375q0.96875 1.078125 0.96875 2.890625l0 6.25l-1.671875 0l0 -6.0625q0 -1.140625 -0.53125 -1.875q-0.53125 -0.75 -1.75 -0.765625q-1.53125 0 -2.3125 1.015625q-0.78125 1.015625 -0.78125 2.796875l0 4.890625l-1.65625 0l0 -7.765625q0 -0.109375 -0.078125 -2.21875l1.578125 0q0.03125 1.5 0.03125 1.640625l0.046875 0q0.40625 -0.84375 1.3125 -1.359375q0.90625 -0.53125 2.015625 -0.53125zm9.999115 0q2.390625 0.015625 3.390625 1.8125l-1.375 0.921875q-0.734375 -1.203125 -2.125 -1.203125q-0.828125 0 -1.390625 0.390625q-0.5625 0.375 -0.5625 1.0q0 1.0 2.5 1.453125q1.78125 0.3125 2.53125 1.046875q0.75 0.71875 0.75 1.9375q0 1.46875 -1.09375 2.296875q-1.09375 0.828125 -2.90625 0.828125q-1.40625 0 -2.3125 -0.4375q-0.90625 -0.453125 -1.5625 -1.40625l1.328125 -1.03125q0.609375 0.75 1.203125 1.046875q0.609375 0.296875 1.34375 0.296875q0.96875 0 1.578125 -0.40625q0.625 -0.421875 0.625 -1.125q0 -0.734375 -0.65625 -1.09375q-0.640625 -0.359375 -2.15625 -0.65625q-1.5 -0.328125 -2.171875 -0.953125q-0.671875 -0.640625 -0.671875 -1.78125q0 -1.25 1.03125 -2.078125q1.046875 -0.84375 2.703125 -0.859375zm8.554565 -2.578125l0 2.828125l2.9375 0l0 1.40625l-2.9375 0l0 5.34375q0 1.1875 0.375 1.578125q0.390625 0.375 1.125 0.375q0.828125 0 1.46875 -0.34375l0.0625 1.515625q-0.859375 0.359375 -1.9375 0.359375q-1.546875 0 -2.15625 -0.75q-0.59375 -0.765625 -0.59375 -2.484375l0 -5.59375l-2.1875 0l0 -1.40625l2.1875 0l0 -2.828125l1.65625 0zm8.835663 2.578125q2.171875 0 3.15625 1.03125q1.0 1.015625 1.015625 3.078125l0 4.484375q0 0.640625 0.15625 1.640625l-1.609375 0q-0.09375 -0.1875 -0.09375 -1.5l-0.046875 0q-1.125 1.71875 -3.28125 1.75q-1.640625 0 -2.6875 -0.8125q-1.03125 -0.828125 -1.03125 -2.140625q0 -1.8125 1.484375 -2.65625q1.5 -0.84375 4.6875 -0.84375l0.765625 0l0 -0.28125q0 -2.171875 -2.484375 -2.21875q-1.78125 0 -2.953125 1.09375l-1.046875 -1.09375q1.53125 -1.484375 3.96875 -1.53125zm-2.625 7.359375q0 1.6875 2.1875 1.71875q1.3125 0 2.125 -0.828125q0.828125 -0.828125 0.828125 -2.4375l0 -0.375l-1.84375 0q-1.46875 0 -2.375 0.46875q-0.90625 0.46875 -0.921875 1.453125zm14.756836 -7.359375q1.875 0 2.828125 1.09375q0.96875 1.078125 0.96875 2.890625l0 6.25l-1.671875 0l0 -6.0625q0 -1.140625 -0.53125 -1.875q-0.53125 -0.75 -1.75 -0.765625q-1.53125 0 -2.3125 1.015625q-0.78125 1.015625 -0.78125 2.796875l0 4.890625l-1.65625 0l0 -7.765625q0 -0.109375 -0.078125 -2.21875l1.578125 0q0.03125 1.5 0.03125 1.640625l0.046875 0q0.40625 -0.84375 1.3125 -1.359375q0.90625 -0.53125 2.015625 -0.53125zm11.561615 0q2.359375 0 3.8125 1.578125l-1.3125 1.171875q-1.015625 -1.21875 -2.53125 -1.21875q-1.546875 0 -2.453125 1.015625q-0.90625 1.015625 -0.90625 2.703125q0 1.59375 0.96875 2.640625q0.96875 1.046875 2.390625 1.0625q1.65625 0 2.546875 -1.234375l1.234375 1.171875q-1.390625 1.578125 -3.78125 1.59375q-2.28125 -0.015625 -3.703125 -1.4375q-1.40625 -1.4375 -1.453125 -3.796875q0.03125 -2.390625 1.5 -3.8125q1.46875 -1.4375 3.6875 -1.4375zm10.217712 0q2.21875 0 3.453125 1.40625q1.25 1.390625 1.28125 3.9375l0 0.40625l-8.0625 0q0.125 1.390625 1.03125 2.296875q0.921875 0.890625 2.25 0.90625q2.03125 0 3.15625 -1.515625l1.265625 0.984375q-0.796875 1.015625 -1.859375 1.546875q-1.0625 0.515625 -2.5625 0.515625q-2.28125 0 -3.671875 -1.46875q-1.375 -1.484375 -1.40625 -3.765625q0 -2.265625 1.421875 -3.734375q1.421875 -1.46875 3.703125 -1.515625zm2.9375 4.34375q-0.0625 -1.296875 -0.84375 -2.046875q-0.78125 -0.765625 -2.1875 -0.765625q-1.28125 0 -2.15625 0.734375q-0.875 0.71875 -1.078125 2.078125l6.265625 0z" fill-rule="nonzero"/><path fill="#000000" d="m653.0 80.59208l0 0c0 -5.9520416 4.8250732 -10.777115 10.7771 -10.777115l216.08356 0c2.8582764 0 5.5994873 1.135437 7.6206055 3.15654c2.0211182 2.021103 3.1565552 4.762306 3.1565552 7.620575l0 43.107178c0 5.952034 -4.8250732 10.7771225 -10.777161 10.7771225l-216.08356 0c-5.9520264 0 -10.7771 -4.8250885 -10.7771 -10.7771225z" fill-rule="evenodd"/><path fill="#96ffe0" d="m725.5844 94.53192l0 1.65625l-7.5625 0l0 4.984375l7.03125 0l0 1.671875l-7.03125 0l0 6.78125l-1.796875 0l0 -15.09375l9.359375 0zm3.1866455 0q0.484375 0 0.84375 0.359375q0.375 0.34375 0.375 0.84375q0 0.546875 -0.34375 0.890625q-0.34375 0.328125 -0.875 0.328125q-0.53125 0 -0.875 -0.328125q-0.34375 -0.34375 -0.34375 -0.890625q0 -0.5 0.359375 -0.84375q0.359375 -0.359375 0.859375 -0.359375zm0.828125 5.109375l0 9.984375l-1.65625 0l0 -9.984375l1.65625 0zm8.212524 -0.25q0.390625 0 0.6875 0.109375l-0.109375 1.671875q-0.46875 -0.125 -0.90625 -0.125q-1.4375 0 -2.1875 0.953125q-0.734375 0.953125 -0.734375 2.671875l0 4.953125l-1.65625 0l0 -7.765625q0 -0.296875 -0.078125 -2.21875l1.578125 0q0.03125 1.5 0.03125 1.640625l0.046875 0q0.40625 -0.84375 1.3125 -1.359375q0.90625 -0.53125 2.015625 -0.53125zm6.76416 0q2.21875 0 3.453125 1.40625q1.25 1.390625 1.28125 3.9375l0 0.40625l-8.0625 0q0.125 1.390625 1.03125 2.296875q0.921875 0.890625 2.25 0.90625q2.03125 0 3.15625 -1.515625l1.265625 0.984375q-0.796875 1.015625 -1.859375 1.546875q-1.0625 0.515625 -2.5625 0.515625q-2.28125 0 -3.671875 -1.46875q-1.375 -1.484375 -1.40625 -3.765625q0 -2.265625 1.421875 -3.734375q1.421875 -1.46875 3.703125 -1.515625zm2.9375 4.34375q-0.0625 -1.296875 -0.84375 -2.046875q-0.78125 -0.765625 -2.1875 -0.765625q-1.28125 0 -2.15625 0.734375q-0.875 0.71875 -1.078125 2.078125l6.265625 0zm4.9365845 -4.09375l2.28125 7.6875l0.03125 0l2.578125 -7.6875l1.75 0l2.625 7.6875l0.046875 0l2.265625 -7.6875l1.78125 0l-3.21875 9.984375l-1.640625 0l-2.828125 -7.671875l-0.046875 0l-2.515625 7.671875l-1.703125 0l-3.25 -9.984375l1.84375 0zm19.08545 -0.25q2.171875 0 3.15625 1.03125q1.0 1.015625 1.015625 3.078125l0 4.484375q0 0.640625 0.15625 1.640625l-1.609375 0q-0.09375 -0.1875 -0.09375 -1.5l-0.046875 0q-1.125 1.71875 -3.28125 1.75q-1.640625 0 -2.6875 -0.8125q-1.03125 -0.828125 -1.03125 -2.140625q0 -1.8125 1.484375 -2.65625q1.5 -0.84375 4.6875 -0.84375l0.765625 0l0 -0.28125q0 -2.171875 -2.484375 -2.21875q-1.78125 0 -2.953125 1.09375l-1.046875 -1.09375q1.53125 -1.484375 3.96875 -1.53125zm-2.625 7.359375q0 1.6875 2.1875 1.71875q1.3125 0 2.125 -0.828125q0.828125 -0.828125 0.828125 -2.4375l0 -0.375l-1.84375 0q-1.46875 0 -2.375 0.46875q-0.90625 0.46875 -0.921875 1.453125zm11.663086 -13.25l0 16.125l-1.65625 0l0 -16.125l1.65625 0zm5.1187744 0l0 16.125l-1.65625 0l0 -16.125l1.65625 0zm7.7281494 1.03125q2.953125 0 4.34375 0.984375q1.40625 0.96875 1.40625 3.140625q0 1.609375 -0.953125 2.640625q-0.9375 1.03125 -2.8125 1.375l4.28125 6.953125l-2.203125 0l-4.09375 -6.78125l-2.296875 0l0 6.78125l-1.796875 0l0 -15.09375l4.125 0zm-0.203125 6.640625q2.109375 0 3.0625 -0.578125q0.96875 -0.59375 0.96875 -1.90625q0 -1.28125 -0.859375 -1.890625q-0.859375 -0.609375 -2.671875 -0.609375l-2.625 0l0 4.984375l2.125 0zm10.469055 -1.53125l0 6.0625q0 1.15625 0.546875 1.890625q0.546875 0.734375 1.75 0.75q1.53125 0 2.296875 -1.015625q0.78125 -1.03125 0.78125 -2.734375l0 -4.953125l1.671875 0l0 7.765625q0.015625 0.59375 0.078125 2.21875l-1.578125 0q-0.015625 -1.03125 -0.03125 -1.640625l-0.046875 0q-0.390625 0.828125 -1.296875 1.359375q-0.90625 0.53125 -2.046875 0.53125q-1.84375 -0.015625 -2.8125 -1.09375q-0.96875 -1.078125 -0.96875 -2.890625l0 -6.25l1.65625 0zm12.0147705 -6.140625l0 16.125l-1.65625 0l0 -16.125l1.65625 0zm7.8531494 5.890625q2.21875 0 3.453125 1.40625q1.25 1.390625 1.28125 3.9375l0 0.40625l-8.0625 0q0.125 1.390625 1.03125 2.296875q0.921875 0.890625 2.25 0.90625q2.03125 0 3.15625 -1.515625l1.265625 0.984375q-0.796875 1.015625 -1.859375 1.546875q-1.0625 0.515625 -2.5625 0.515625q-2.28125 0 -3.671875 -1.46875q-1.375 -1.484375 -1.40625 -3.765625q0 -2.265625 1.421875 -3.734375q1.421875 -1.46875 3.703125 -1.515625zm2.9375 4.34375q-0.0625 -1.296875 -0.84375 -2.046875q-0.78125 -0.765625 -2.1875 -0.765625q-1.28125 0 -2.15625 0.734375q-0.875 0.71875 -1.078125 2.078125l6.265625 0z" fill-rule="nonzero"/><path fill="#000000" d="m614.0289 33.697067l0 0c0 -5.9520397 4.8250732 -10.777121 10.7771 -10.777121l216.08356 0c2.8582764 0 5.5994873 1.1354446 7.6206055 3.1565456c2.0211182 2.021101 3.1565552 4.7623043 3.1565552 7.620575l0 43.107178c0 5.9520416 -4.8250732 10.7771225 -10.777161 10.7771225l-216.08356 0c-5.9520264 0 -10.7771 -4.825081 -10.7771 -10.7771225z" fill-rule="evenodd"/><path stroke="#ffffff" stroke-width="1.0" stroke-linejoin="round" stroke-linecap="butt" d="m614.0289 33.697067l0 0c0 -5.9520397 4.8250732 -10.777121 10.7771 -10.777121l216.08356 0c2.8582764 0 5.5994873 1.1354446 7.6206055 3.1565456c2.0211182 2.021101 3.1565552 4.7623043 3.1565552 7.620575l0 43.107178c0 5.9520416 -4.8250732 10.7771225 -10.777161 10.7771225l-216.08356 0c-5.9520264 0 -10.7771 -4.825081 -10.7771 -10.7771225z" fill-rule="evenodd"/><path fill="#96ffe0" d="m653.00183 47.24628q1.765625 0 3.125 0.640625q1.375 0.625 2.203125 1.734375l-1.5625 1.125q-0.6875 -0.921875 -1.6875 -1.375q-1.0 -0.46875 -2.078125 -0.46875q-2.421875 0 -4.078125 1.84375q-1.640625 1.828125 -1.6875 4.4375q0 2.6875 1.640625 4.46875q1.640625 1.78125 4.125 1.796875q2.703125 0 4.359375 -2.109375l1.34375 1.125q-1.984375 2.65625 -5.703125 2.65625q-3.3125 0 -5.484375 -2.28125q-2.15625 -2.296875 -2.203125 -5.65625q0 -3.375 2.1875 -5.625q2.1875 -2.265625 5.5 -2.3125zm9.718201 -0.640625l0 16.125l-1.65625 0l0 -16.125l1.65625 0zm8.056274 5.890625q2.328125 0 3.796875 1.4375q1.484375 1.4375 1.546875 3.8125q0 2.28125 -1.5 3.75q-1.484375 1.453125 -3.84375 1.484375q-2.34375 0 -3.8125 -1.46875q-1.46875 -1.484375 -1.515625 -3.765625q0 -2.3125 1.484375 -3.765625q1.5 -1.46875 3.84375 -1.484375zm-3.53125 5.25q0 1.640625 0.984375 2.65625q1.0 1.0 2.546875 1.046875q1.5625 0 2.546875 -1.03125q0.984375 -1.03125 1.0 -2.671875q0 -1.625 -1.0 -2.671875q-0.984375 -1.046875 -2.5625 -1.046875q-1.53125 0 -2.515625 1.03125q-0.984375 1.03125 -1.0 2.6875zm13.106445 -5.0l0 6.0625q0 1.15625 0.546875 1.890625q0.546875 0.734375 1.75 0.75q1.53125 0 2.296875 -1.015625q0.78125 -1.03125 0.78125 -2.734375l0 -4.953125l1.671875 0l0 7.765625q0.015625 0.59375 0.078125 2.21875l-1.578125 0q-0.015625 -1.03125 -0.03125 -1.640625l-0.046875 0q-0.390625 0.828125 -1.296875 1.359375q-0.90625 0.53125 -2.046875 0.53125q-1.84375 -0.015625 -2.8125 -1.09375q-0.96875 -1.078125 -0.96875 -2.890625l0 -6.25l1.65625 0zm20.155396 -6.140625l0 16.125l-1.65625 0l0 -1.765625l-0.046875 0q-0.5 0.953125 -1.546875 1.484375q-1.046875 0.53125 -2.28125 0.53125q-2.125 0 -3.546875 -1.5q-1.40625 -1.5 -1.453125 -3.734375q0 -2.28125 1.453125 -3.75q1.46875 -1.484375 3.796875 -1.5q2.15625 0 3.578125 1.703125l0.046875 0l0 -7.59375l1.65625 0zm-8.734375 11.140625q0 1.640625 0.984375 2.671875q1.0 1.015625 2.546875 1.03125q1.5625 0 2.53125 -1.015625q0.96875 -1.03125 1.015625 -2.6875q0 -1.625 -1.0 -2.671875q-0.984375 -1.046875 -2.5625 -1.046875q-1.53125 0 -2.5 1.03125q-0.96875 1.03125 -1.015625 2.6875zm16.531494 -10.5q2.75 0 4.21875 1.765625l-1.46875 1.28125q-0.859375 -1.34375 -2.75 -1.390625q-1.4375 0 -2.328125 0.6875q-0.890625 0.6875 -0.890625 1.859375q0 1.015625 0.671875 1.625q0.6875 0.59375 2.5625 1.171875q2.4375 0.703125 3.4375 1.71875q1.015625 1.0 1.015625 2.734375q0 2.0 -1.5 3.203125q-1.484375 1.1875 -3.8125 1.21875q-1.546875 0 -2.765625 -0.546875q-1.21875 -0.5625 -1.875 -1.546875l1.53125 -1.265625q0.5 0.8125 1.359375 1.25q0.875 0.4375 1.859375 0.4375q1.34375 0 2.3125 -0.75q0.96875 -0.765625 0.96875 -1.875q0 -1.0 -0.5625 -1.578125q-0.5625 -0.578125 -1.859375 -0.984375l-1.734375 -0.5625q-1.9375 -0.671875 -2.734375 -1.65625q-0.796875 -1.0 -0.796875 -2.453125q0 -1.90625 1.421875 -3.109375q1.4375 -1.21875 3.71875 -1.234375zm14.3272705 0q2.21875 0 3.96875 1.015625q1.75 1.015625 2.765625 2.78125q1.015625 1.765625 1.03125 3.953125q0 2.0 -1.046875 3.734375q-1.03125 1.734375 -2.625 2.421875l0 0.046875l4.671875 0l0 1.53125l-8.8125 0q-3.234375 0 -5.453125 -2.21875q-2.203125 -2.21875 -2.265625 -5.515625q0 -2.1875 1.015625 -3.953125q1.03125 -1.765625 2.828125 -2.78125q1.8125 -1.015625 3.921875 -1.015625zm-5.84375 7.75q0 2.546875 1.6875 4.296875q1.6875 1.734375 4.15625 1.78125q2.5 0 4.140625 -1.765625q1.65625 -1.765625 1.703125 -4.3125q0 -2.59375 -1.671875 -4.328125q-1.671875 -1.734375 -4.1875 -1.765625q-2.453125 0 -4.109375 1.734375q-1.65625 1.734375 -1.71875 4.359375zm18.53772 -7.359375l0 13.4375l6.90625 0l0 1.65625l-8.703125 0l0 -15.09375l1.796875 0zm10.664124 0l0 15.09375l-1.796875 0l0 -15.09375l1.796875 0zm8.357849 4.859375q1.875 0 2.828125 1.09375q0.96875 1.078125 0.96875 2.890625l0 6.25l-1.671875 0l0 -6.0625q0 -1.140625 -0.53125 -1.875q-0.53125 -0.75 -1.75 -0.765625q-1.53125 0 -2.3125 1.015625q-0.78125 1.015625 -0.78125 2.796875l0 4.890625l-1.65625 0l0 -7.765625q0 -0.109375 -0.078125 -2.21875l1.578125 0q0.03125 1.5 0.03125 1.640625l0.046875 0q0.40625 -0.84375 1.3125 -1.359375q0.90625 -0.53125 2.015625 -0.53125zm9.999084 0q2.390625 0.015625 3.390625 1.8125l-1.375 0.921875q-0.734375 -1.203125 -2.125 -1.203125q-0.828125 0 -1.390625 0.390625q-0.5625 0.375 -0.5625 1.0q0 1.0 2.5 1.453125q1.78125 0.3125 2.53125 1.046875q0.75 0.71875 0.75 1.9375q0 1.46875 -1.09375 2.296875q-1.09375 0.828125 -2.90625 0.828125q-1.40625 0 -2.3125 -0.4375q-0.90625 -0.453125 -1.5625 -1.40625l1.328125 -1.03125q0.609375 0.75 1.203125 1.046875q0.609375 0.296875 1.34375 0.296875q0.96875 0 1.578125 -0.40625q0.625 -0.421875 0.625 -1.125q0 -0.734375 -0.65625 -1.09375q-0.640625 -0.359375 -2.15625 -0.65625q-1.5 -0.328125 -2.171875 -0.953125q-0.671875 -0.640625 -0.671875 -1.78125q0 -1.25 1.03125 -2.078125q1.046875 -0.84375 2.703125 -0.859375zm8.554565 -2.578125l0 2.828125l2.9375 0l0 1.40625l-2.9375 0l0 5.34375q0 1.1875 0.375 1.578125q0.390625 0.375 1.125 0.375q0.828125 0 1.46875 -0.34375l0.0625 1.515625q-0.859375 0.359375 -1.9375 0.359375q-1.546875 0 -2.15625 -0.75q-0.59375 -0.765625 -0.59375 -2.484375l0 -5.59375l-2.1875 0l0 -1.40625l2.1875 0l0 -2.828125l1.65625 0zm8.835693 2.578125q2.171875 0 3.15625 1.03125q1.0 1.015625 1.015625 3.078125l0 4.484375q0 0.640625 0.15625 1.640625l-1.609375 0q-0.09375 -0.1875 -0.09375 -1.5l-0.046875 0q-1.125 1.71875 -3.28125 1.75q-1.640625 0 -2.6875 -0.8125q-1.03125 -0.828125 -1.03125 -2.140625q0 -1.8125 1.484375 -2.65625q1.5 -0.84375 4.6875 -0.84375l0.765625 0l0 -0.28125q0 -2.171875 -2.484375 -2.21875q-1.78125 0 -2.953125 1.09375l-1.046875 -1.09375q1.53125 -1.484375 3.96875 -1.53125zm-2.625 7.359375q0 1.6875 2.1875 1.71875q1.3125 0 2.125 -0.828125q0.828125 -0.828125 0.828125 -2.4375l0 -0.375l-1.84375 0q-1.46875 0 -2.375 0.46875q-0.90625 0.46875 -0.921875 1.453125zm14.756836 -7.359375q1.875 0 2.828125 1.09375q0.96875 1.078125 0.96875 2.890625l0 6.25l-1.671875 0l0 -6.0625q0 -1.140625 -0.53125 -1.875q-0.53125 -0.75 -1.75 -0.765625q-1.53125 0 -2.3125 1.015625q-0.78125 1.015625 -0.78125 2.796875l0 4.890625l-1.65625 0l0 -7.765625q0 -0.109375 -0.078125 -2.21875l1.578125 0q0.03125 1.5 0.03125 1.640625l0.046875 0q0.40625 -0.84375 1.3125 -1.359375q0.90625 -0.53125 2.015625 -0.53125zm11.561584 0q2.359375 0 3.8125 1.578125l-1.3125 1.171875q-1.015625 -1.21875 -2.53125 -1.21875q-1.546875 0 -2.453125 1.015625q-0.90625 1.015625 -0.90625 2.703125q0 1.59375 0.96875 2.640625q0.96875 1.046875 2.390625 1.0625q1.65625 0 2.546875 -1.234375l1.234375 1.171875q-1.390625 1.578125 -3.78125 1.59375q-2.28125 -0.015625 -3.703125 -1.4375q-1.40625 -1.4375 -1.453125 -3.796875q0.03125 -2.390625 1.5 -3.8125q1.46875 -1.4375 3.6875 -1.4375zm10.217712 0q2.21875 0 3.453125 1.40625q1.25 1.390625 1.28125 3.9375l0 0.40625l-8.0625 0q0.125 1.390625 1.03125 2.296875q0.921875 0.890625 2.25 0.90625q2.03125 0 3.15625 -1.515625l1.265625 0.984375q-0.796875 1.015625 -1.859375 1.546875q-1.0625 0.515625 -2.5625 0.515625q-2.28125 0 -3.671875 -1.46875q-1.375 -1.484375 -1.40625 -3.765625q0 -2.265625 1.421875 -3.734375q1.421875 -1.46875 3.703125 -1.515625zm2.9375 4.34375q-0.0625 -1.296875 -0.84375 -2.046875q-0.78125 -0.765625 -2.1875 -0.765625q-1.28125 0 -2.15625 0.734375q-0.875 0.71875 -1.078125 2.078125l6.265625 0z" fill-rule="nonzero"/><path fill="#000000" fill-opacity="0.0" d="m308.43832 78.698166l33.984253 0" fill-rule="evenodd"/><path stroke="#000000" stroke-width="1.0" stroke-linejoin="round" stroke-linecap="butt" d="m308.43832 78.698166l27.984253 0" fill-rule="evenodd"/><path fill="#000000" stroke="#000000" stroke-width="1.0" stroke-linecap="butt" d="m336.42258 80.34989l4.538086 -1.6517258l-4.538086 -1.6517334z" fill-rule="evenodd"/><path fill="#000000" fill-opacity="0.0" d="m580.0525 78.698166c8.494019 0 12.73999 -5.8582687 16.988037 -11.716537c4.248047 -5.8582687 8.498108 -11.716537 16.996216 -11.716537" fill-rule="evenodd"/><path stroke="#000000" stroke-width="1.0" stroke-linejoin="round" stroke-linecap="butt" d="m580.0525 78.698166c8.494019 0 12.740051 -5.8582687 16.988098 -11.716537c2.1239624 -2.9291382 4.248474 -5.8582687 6.904297 -8.055119c0.6639404 -0.5492134 1.361084 -1.0526581 2.0997314 -1.4988937c0.36932373 -0.22311783 0.74902344 -0.43193436 1.1401367 -0.62501526c0.19555664 -0.09654236 0.3939209 -0.18915176 0.5953369 -0.2776451c0.10070801 -0.044246674 0.2020874 -0.08746719 0.3043213 -0.12963867l0.055541992 -0.022167206" fill-rule="evenodd"/><path fill="#000000" stroke="#000000" stroke-width="1.0" stroke-linecap="butt" d="m608.445 57.996468l4.1549683 -2.461399l-4.7650757 -0.785244z" fill-rule="evenodd"/><path fill="#000000" fill-opacity="0.0" d="m580.0525 78.698166c18.236938 0 27.355774 5.858261 36.473877 11.71653c9.118164 5.8582687 18.235535 11.716537 36.47101 11.716537" fill-rule="evenodd"/><path stroke="#000000" stroke-width="1.0" stroke-linejoin="round" stroke-linecap="butt" d="m580.0525 78.698166c18.236938 0 27.355835 5.858261 36.473938 11.71653c4.559021 2.9291382 9.11792 5.8582687 14.816467 8.055122c2.8492432 1.0984268 5.9833984 2.0137787 9.545044 2.6545258c1.7807617 0.32037354 3.668396 0.5720978 5.680725 0.74372864l0.43304443 0.034500122" fill-rule="evenodd"/><path fill="#000000" stroke="#000000" stroke-width="1.0" stroke-linecap="butt" d="m646.9388 103.5531l4.5977783 -1.4775848l-4.471863 -1.8234787z" fill-rule="evenodd"/><path fill="#000000" fill-opacity="0.0" d="m88.86352 152.06824l201.51181 0l0 38.771652l-201.51181 0z" fill-rule="evenodd"/><path fill="#000000" d="m167.68272 165.10011l4.8125 11.328125l-1.578125 0l-1.140625 -2.78125l-5.671875 0l-1.171875 2.78125l-1.515625 0l5.0 -11.328125l1.265625 0zm-0.703125 1.734375l-2.34375 5.5625l4.625 0l-2.234375 -5.5625l-0.046875 0zm16.571411 -2.015625q1.328125 0 2.34375 0.46875q1.03125 0.46875 1.65625 1.296875l-1.171875 0.859375q-0.515625 -0.703125 -1.265625 -1.046875q-0.75 -0.34375 -1.5625 -0.34375q-1.8125 0 -3.0625 1.390625q-1.234375 1.375 -1.265625 3.328125q0 2.015625 1.234375 3.359375q1.234375 1.328125 3.09375 1.34375q2.03125 0 3.28125 -1.59375l1.0 0.84375q-1.484375 1.984375 -4.28125 1.984375q-2.484375 0 -4.109375 -1.703125q-1.625 -1.71875 -1.65625 -4.234375q0 -2.53125 1.640625 -4.21875q1.640625 -1.703125 4.125 -1.734375zm7.295273 -0.484375l0 12.09375l-1.25 0l0 -12.09375l1.25 0zm5.3556366 4.40625q1.640625 0 2.375 0.78125q0.75 0.765625 0.765625 2.3125l0 3.359375q0 0.484375 0.109375 1.234375l-1.203125 0q-0.078125 -0.140625 -0.078125 -1.125l-0.03125 0q-0.84375 1.28125 -2.46875 1.3125q-1.234375 0 -2.015625 -0.609375q-0.765625 -0.625 -0.765625 -1.609375q0 -1.359375 1.109375 -1.984375q1.125 -0.640625 3.515625 -0.640625l0.578125 0l0 -0.203125q0 -1.640625 -1.859375 -1.671875q-1.34375 0 -2.21875 0.8125l-0.78125 -0.8125q1.140625 -1.109375 2.96875 -1.15625zm-1.96875 5.53125q0 1.265625 1.65625 1.296875q0.96875 0 1.578125 -0.625q0.625 -0.625 0.625 -1.828125l0 -0.28125l-1.375 0q-1.109375 0 -1.796875 0.359375q-0.671875 0.34375 -0.6875 1.078125zm8.132141 -9.171875q0.359375 0 0.625 0.265625q0.28125 0.265625 0.28125 0.640625q0 0.40625 -0.265625 0.671875q-0.25 0.25 -0.640625 0.25q-0.40625 0 -0.65625 -0.25q-0.25 -0.265625 -0.25 -0.671875q0 -0.375 0.265625 -0.640625q0.265625 -0.265625 0.640625 -0.265625zm0.625 3.84375l0 7.484375l-1.25 0l0 -7.484375l1.25 0zm6.1681366 -0.203125q1.71875 0 2.359375 1.4375q0.453125 -0.734375 1.0 -1.078125q0.5625 -0.359375 1.375 -0.359375q1.46875 0 2.15625 0.765625q0.6875 0.765625 0.6875 2.296875l0 4.625l-1.25 0l0 -4.53125q0 -1.96875 -1.828125 -2.0q-0.84375 0 -1.390625 0.640625q-0.546875 0.625 -0.546875 1.515625l0 4.375l-1.25 0l0 -4.34375q0 -1.09375 -0.328125 -1.640625q-0.3125 -0.546875 -1.125 -0.546875q-1.140625 0 -1.71875 0.765625q-0.578125 0.75 -0.578125 2.109375l0 3.65625l-1.25 0l0 -5.828125q-0.015625 -0.5625 -0.0625 -1.65625l1.171875 0q0.046875 1.09375 0.046875 1.234375l0.03125 0q0.296875 -0.640625 0.96875 -1.03125q0.671875 -0.40625 1.53125 -0.40625z" fill-rule="nonzero"/><path fill="#000000" fill-opacity="0.0" d="m360.4777 152.06824l201.51181 0l0 38.771652l-201.51181 0z" fill-rule="evenodd"/><path fill="#000000" d="m385.1608 165.10011l4.8125 11.328125l-1.578125 0l-1.140625 -2.78125l-5.671875 0l-1.171875 2.78125l-1.515625 0l5.0 -11.328125l1.265625 0zm-0.703125 1.734375l-2.34375 5.5625l4.625 0l-2.234375 -5.5625l-0.046875 0zm16.571411 -2.015625q1.328125 0 2.34375 0.46875q1.03125 0.46875 1.65625 1.296875l-1.171875 0.859375q-0.515625 -0.703125 -1.265625 -1.046875q-0.75 -0.34375 -1.5625 -0.34375q-1.8125 0 -3.0625 1.390625q-1.234375 1.375 -1.265625 3.328125q0 2.015625 1.234375 3.359375q1.234375 1.328125 3.09375 1.34375q2.03125 0 3.28125 -1.59375l1.0 0.84375q-1.484375 1.984375 -4.28125 1.984375q-2.484375 0 -4.109375 -1.703125q-1.625 -1.71875 -1.65625 -4.234375q0 -2.53125 1.640625 -4.21875q1.640625 -1.703125 4.125 -1.734375zm9.498413 3.921875q1.75 0 2.84375 1.09375q1.109375 1.078125 1.15625 2.84375q0 1.71875 -1.125 2.8125q-1.109375 1.09375 -2.875 1.125q-1.765625 0 -2.875 -1.109375q-1.09375 -1.109375 -1.125 -2.828125q0 -1.71875 1.109375 -2.8125q1.125 -1.09375 2.890625 -1.125zm-2.65625 3.9375q0 1.234375 0.734375 2.0q0.75 0.765625 1.921875 0.796875q1.171875 0 1.90625 -0.78125q0.734375 -0.78125 0.75 -2.015625q0 -1.203125 -0.75 -1.984375q-0.734375 -0.796875 -1.921875 -0.796875q-1.15625 0 -1.890625 0.78125q-0.734375 0.78125 -0.75 2.0zm12.285248 -3.9375q1.71875 0 2.359375 1.4375q0.453125 -0.734375 1.0 -1.078125q0.5625 -0.359375 1.375 -0.359375q1.46875 0 2.15625 0.765625q0.6875 0.765625 0.6875 2.296875l0 4.625l-1.25 0l0 -4.53125q0 -1.96875 -1.828125 -2.0q-0.84375 0 -1.390625 0.640625q-0.546875 0.625 -0.546875 1.515625l0 4.375l-1.25 0l0 -4.34375q0 -1.09375 -0.328125 -1.640625q-0.3125 -0.546875 -1.125 -0.546875q-1.140625 0 -1.71875 0.765625q-0.578125 0.75 -0.578125 2.109375l0 3.65625l-1.25 0l0 -5.828125q-0.015625 -0.5625 -0.0625 -1.65625l1.171875 0q0.046875 1.09375 0.046875 1.234375l0.03125 0q0.296875 -0.640625 0.96875 -1.03125q0.671875 -0.40625 1.53125 -0.40625zm13.8508 0q1.765625 0 2.84375 1.125q1.078125 1.125 1.09375 2.8125q0 1.6875 -1.09375 2.796875q-1.09375 1.109375 -2.65625 1.140625q-0.96875 0 -1.75 -0.40625q-0.765625 -0.421875 -1.125 -1.109375l-0.03125 0l0 4.96875l-1.25 0l0 -11.125l1.25 0l0 1.078125l0.03125 0q1.09375 -1.28125 2.6875 -1.28125zm-2.71875 3.9375q0 1.234375 0.734375 2.0q0.75 0.765625 1.921875 0.796875q1.15625 0 1.890625 -0.78125q0.734375 -0.78125 0.765625 -2.015625q0 -1.203125 -0.75 -1.984375q-0.75 -0.796875 -1.921875 -0.796875q-1.15625 0 -1.890625 0.78125q-0.734375 0.78125 -0.75 2.0zm12.151001 -3.9375q1.75 0 2.84375 1.09375q1.109375 1.078125 1.15625 2.84375q0 1.71875 -1.125 2.8125q-1.109375 1.09375 -2.875 1.125q-1.765625 0 -2.875 -1.109375q-1.09375 -1.109375 -1.125 -2.828125q0 -1.71875 1.109375 -2.8125q1.125 -1.09375 2.890625 -1.125zm-2.65625 3.9375q0 1.234375 0.734375 2.0q0.75 0.765625 1.921875 0.796875q1.171875 0 1.90625 -0.78125q0.734375 -0.78125 0.75 -2.015625q0 -1.203125 -0.75 -1.984375q-0.734375 -0.796875 -1.921875 -0.796875q-1.15625 0 -1.890625 0.78125q-0.734375 0.78125 -0.75 2.0zm10.879028 -3.9375q1.796875 0.03125 2.546875 1.375l-1.046875 0.6875q-0.53125 -0.90625 -1.578125 -0.90625q-0.625 0 -1.046875 0.296875q-0.421875 0.28125 -0.421875 0.75q0 0.75 1.875 1.078125q1.34375 0.25 1.890625 0.796875q0.5625 0.53125 0.5625 1.453125q0 1.09375 -0.8125 1.71875q-0.8125 0.625 -2.171875 0.625q-1.0625 0 -1.75 -0.328125q-0.671875 -0.34375 -1.15625 -1.0625l0.984375 -0.765625q0.46875 0.5625 0.90625 0.796875q0.453125 0.21875 1.015625 0.21875q0.71875 0 1.171875 -0.3125q0.46875 -0.3125 0.46875 -0.84375q0 -0.546875 -0.484375 -0.8125q-0.484375 -0.28125 -1.625 -0.5q-1.109375 -0.234375 -1.625 -0.71875q-0.5 -0.484375 -0.5 -1.328125q0 -0.953125 0.765625 -1.5625q0.78125 -0.625 2.03125 -0.65625zm5.2691345 -3.640625q0.359375 0 0.625 0.265625q0.28125 0.265625 0.28125 0.640625q0 0.40625 -0.265625 0.671875q-0.25 0.25 -0.640625 0.25q-0.40625 0 -0.65625 -0.25q-0.25 -0.265625 -0.25 -0.671875q0 -0.375 0.265625 -0.640625q0.265625 -0.265625 0.640625 -0.265625zm0.625 3.84375l0 7.484375l-1.25 0l0 -7.484375l1.25 0zm4.3712463 -2.125l0 2.125l2.203125 0l0 1.046875l-2.203125 0l0 4.0q0 0.90625 0.28125 1.203125q0.28125 0.28125 0.828125 0.28125q0.625 0 1.109375 -0.265625l0.046875 1.140625q-0.640625 0.265625 -1.453125 0.265625q-1.15625 0 -1.609375 -0.5625q-0.453125 -0.5625 -0.453125 -1.859375l0 -4.203125l-1.640625 0l0 -1.046875l1.640625 0l0 -2.125l1.25 0zm7.147644 1.921875q1.65625 0 2.59375 1.0625q0.9375 1.046875 0.953125 2.96875l0 0.296875l-6.046875 0q0.09375 1.046875 0.78125 1.71875q0.6875 0.671875 1.6875 0.6875q1.515625 0 2.359375 -1.140625l0.953125 0.734375q-0.59375 0.765625 -1.390625 1.15625q-0.796875 0.390625 -1.921875 0.390625q-1.71875 0 -2.765625 -1.109375q-1.03125 -1.109375 -1.046875 -2.828125q0 -1.6875 1.0625 -2.78125q1.0625 -1.109375 2.78125 -1.15625zm2.203125 3.265625q-0.046875 -0.96875 -0.640625 -1.53125q-0.578125 -0.578125 -1.625 -0.578125q-0.96875 0 -1.625 0.546875q-0.65625 0.546875 -0.8125 1.5625l4.703125 0zm11.04715 -6.90625q2.21875 0 3.265625 0.734375q1.046875 0.734375 1.046875 2.375q0 1.1875 -0.71875 1.96875q-0.703125 0.78125 -2.109375 1.03125l3.21875 5.21875l-1.65625 0l-3.0625 -5.09375l-1.734375 0l0 5.09375l-1.34375 0l0 -11.328125l3.09375 0zm-0.140625 4.984375q1.578125 0 2.296875 -0.4375q0.71875 -0.4375 0.71875 -1.421875q0 -0.96875 -0.65625 -1.421875q-0.640625 -0.453125 -2.0 -0.453125l-1.96875 0l0 3.734375l1.609375 0zm10.0104065 -1.34375q1.65625 0 2.59375 1.0625q0.9375 1.046875 0.953125 2.96875l0 0.296875l-6.046875 0q0.09375 1.046875 0.78125 1.71875q0.6875 0.671875 1.6875 0.6875q1.515625 0 2.359375 -1.140625l0.953125 0.734375q-0.59375 0.765625 -1.390625 1.15625q-0.796875 0.390625 -1.921875 0.390625q-1.71875 0 -2.765625 -1.109375q-1.03125 -1.109375 -1.046875 -2.828125q0 -1.6875 1.0625 -2.78125q1.0625 -1.109375 2.78125 -1.15625zm2.203125 3.265625q-0.046875 -0.96875 -0.640625 -1.53125q-0.578125 -0.578125 -1.625 -0.578125q-0.96875 0 -1.625 0.546875q-0.65625 0.546875 -0.8125 1.5625l4.703125 0zm5.567871 -3.265625q1.796875 0.03125 2.546875 1.375l-1.046875 0.6875q-0.53125 -0.90625 -1.578125 -0.90625q-0.625 0 -1.046875 0.296875q-0.421875 0.28125 -0.421875 0.75q0 0.75 1.875 1.078125q1.34375 0.25 1.890625 0.796875q0.5625 0.53125 0.5625 1.453125q0 1.09375 -0.8125 1.71875q-0.8125 0.625 -2.171875 0.625q-1.0625 0 -1.75 -0.328125q-0.671875 -0.34375 -1.15625 -1.0625l0.984375 -0.765625q0.46875 0.5625 0.90625 0.796875q0.453125 0.21875 1.015625 0.21875q0.71875 0 1.171875 -0.3125q0.46875 -0.3125 0.46875 -0.84375q0 -0.546875 -0.484375 -0.8125q-0.484375 -0.28125 -1.625 -0.5q-1.109375 -0.234375 -1.625 -0.71875q-0.5 -0.484375 -0.5 -1.328125q0 -0.953125 0.765625 -1.5625q0.78125 -0.625 2.03125 -0.65625zm8.0972595 0q1.75 0 2.84375 1.09375q1.109375 1.078125 1.15625 2.84375q0 1.71875 -1.125 2.8125q-1.109375 1.09375 -2.875 1.125q-1.765625 0 -2.875 -1.109375q-1.09375 -1.109375 -1.125 -2.828125q0 -1.71875 1.109375 -2.8125q1.125 -1.09375 2.890625 -1.125zm-2.65625 3.9375q0 1.234375 0.734375 2.0q0.75 0.765625 1.921875 0.796875q1.171875 0 1.90625 -0.78125q0.734375 -0.78125 0.75 -2.015625q0 -1.203125 -0.75 -1.984375q-0.734375 -0.796875 -1.921875 -0.796875q-1.15625 0 -1.890625 0.78125q-0.734375 0.78125 -0.75 2.0zm9.847778 -3.734375l0 4.546875q0 0.859375 0.40625 1.421875q0.40625 0.546875 1.296875 0.5625q1.15625 0 1.734375 -0.765625q0.59375 -0.78125 0.59375 -2.0625l0 -3.703125l1.25 0l0 5.828125q0.015625 0.4375 0.0625 1.65625l-1.1875 0q-0.015625 -0.765625 -0.03125 -1.234375l-0.03125 0q-0.296875 0.625 -0.984375 1.03125q-0.671875 0.390625 -1.53125 0.390625q-1.375 -0.015625 -2.109375 -0.8125q-0.71875 -0.8125 -0.71875 -2.171875l0 -4.6875l1.25 0zm11.317871 -0.203125q0.296875 0 0.515625 0.09375l-0.078125 1.25q-0.359375 -0.09375 -0.671875 -0.09375q-1.09375 0 -1.640625 0.71875q-0.546875 0.703125 -0.546875 2.0l0 3.71875l-1.25 0l0 -5.828125q0 -0.21875 -0.0625 -1.65625l1.171875 0q0.046875 1.109375 0.046875 1.234375l0.03125 0q0.296875 -0.640625 0.96875 -1.03125q0.6875 -0.40625 1.515625 -0.40625zm5.125305 0q1.78125 0 2.859375 1.1875l-0.984375 0.890625q-0.75 -0.921875 -1.890625 -0.921875q-1.171875 0 -1.859375 0.765625q-0.671875 0.75 -0.671875 2.015625q0 1.203125 0.71875 2.0q0.734375 0.78125 1.8125 0.796875q1.234375 0 1.90625 -0.9375l0.921875 0.875q-1.03125 1.1875 -2.828125 1.203125q-1.71875 -0.015625 -2.78125 -1.078125q-1.0625 -1.078125 -1.09375 -2.859375q0.015625 -1.78125 1.109375 -2.859375q1.109375 -1.078125 2.78125 -1.078125zm7.6651 0q1.65625 0 2.59375 1.0625q0.9375 1.046875 0.953125 2.96875l0 0.296875l-6.046875 0q0.09375 1.046875 0.78125 1.71875q0.6875 0.671875 1.6875 0.6875q1.515625 0 2.359375 -1.140625l0.953125 0.734375q-0.59375 0.765625 -1.390625 1.15625q-0.796875 0.390625 -1.921875 0.390625q-1.71875 0 -2.765625 -1.109375q-1.03125 -1.109375 -1.046875 -2.828125q0 -1.6875 1.0625 -2.78125q1.0625 -1.109375 2.78125 -1.15625zm2.203125 3.265625q-0.046875 -0.96875 -0.640625 -1.53125q-0.578125 -0.578125 -1.625 -0.578125q-0.96875 0 -1.625 0.546875q-0.65625 0.546875 -0.8125 1.5625l4.703125 0z" fill-rule="nonzero"/><path fill="#000000" fill-opacity="0.0" d="m653.0 142.36745l201.51184 0l0 58.173233l-201.51184 0z" fill-rule="evenodd"/><path fill="#000000" d="m686.70013 155.11807q1.328125 0 2.25 0.46875q0.921875 0.46875 1.375 1.296875l-1.359375 0.859375q-0.359375 -0.703125 -1.046875 -1.046875q-0.671875 -0.34375 -1.484375 -0.34375q-1.8125 0 -3.34375 1.390625q-1.53125 1.375 -1.984375 3.328125q-0.421875 2.015625 0.515625 3.359375q0.953125 1.328125 2.8125 1.34375q2.03125 0 3.625 -1.59375l0.8125 0.84375q-1.90625 1.984375 -4.703125 1.984375q-2.484375 0 -3.75 -1.703125q-1.25 -1.71875 -0.75 -4.234375q0.53125 -2.53125 2.53125 -4.21875q2.015625 -1.703125 4.5 -1.734375zm8.670288 3.921875q1.75 0 2.609375 1.09375q0.875 1.078125 0.546875 2.84375q-0.359375 1.71875 -1.71875 2.8125q-1.34375 1.09375 -3.125 1.125q-1.765625 0 -2.625 -1.109375q-0.859375 -1.109375 -0.53125 -2.828125q0.359375 -1.71875 1.703125 -2.8125q1.359375 -1.09375 3.140625 -1.125zm-3.5 3.9375q-0.265625 1.234375 0.3125 2.0q0.578125 0.765625 1.75 0.796875q1.171875 0 2.0625 -0.78125q0.90625 -0.78125 1.1875 -2.015625q0.25 -1.203125 -0.328125 -1.984375q-0.5625 -0.796875 -1.75 -0.796875q-1.15625 0 -2.0625 0.78125q-0.890625 0.78125 -1.171875 2.0zm13.129028 -3.9375q1.71875 0 2.046875 1.4375q0.609375 -0.734375 1.234375 -1.078125q0.640625 -0.359375 1.453125 -0.359375q1.46875 0 1.984375 0.765625q0.53125 0.765625 0.203125 2.296875l-0.984375 4.625l-1.25 0l0.96875 -4.53125q0.40625 -1.96875 -1.40625 -2.0q-0.84375 0 -1.53125 0.640625q-0.671875 0.625 -0.859375 1.515625l-0.9375 4.375l-1.25 0l0.921875 -4.34375q0.234375 -1.09375 0.03125 -1.640625q-0.203125 -0.546875 -1.015625 -0.546875q-1.140625 0 -1.890625 0.765625q-0.734375 0.75 -1.015625 2.109375l-0.78125 3.65625l-1.25 0l1.234375 -5.828125q0.109375 -0.5625 0.296875 -1.65625l1.171875 0q-0.1875 1.09375 -0.21875 1.234375l0.03125 0q0.4375 -0.640625 1.1875 -1.03125q0.765625 -0.40625 1.625 -0.40625zm13.850769 0q1.765625 0 2.59375 1.125q0.84375 1.125 0.5 2.8125q-0.359375 1.6875 -1.6875 2.796875q-1.328125 1.109375 -2.90625 1.140625q-0.96875 0 -1.65625 -0.40625q-0.671875 -0.421875 -0.890625 -1.109375l-0.03125 0l-1.0625 4.96875l-1.25 0l2.375 -11.125l1.25 0l-0.234375 1.078125l0.03125 0q1.375 -1.28125 2.96875 -1.28125zm-3.5625 3.9375q-0.265625 1.234375 0.3125 2.0q0.578125 0.765625 1.75 0.796875q1.15625 0 2.046875 -0.78125q0.90625 -0.78125 1.203125 -2.015625q0.25 -1.203125 -0.328125 -1.984375q-0.578125 -0.796875 -1.75 -0.796875q-1.15625 0 -2.0625 0.78125q-0.890625 0.78125 -1.171875 2.0zm12.994751 -3.9375q1.75 0 2.609375 1.09375q0.875 1.078125 0.546875 2.84375q-0.359375 1.71875 -1.71875 2.8125q-1.34375 1.09375 -3.125 1.125q-1.765625 0 -2.625 -1.109375q-0.859375 -1.109375 -0.53125 -2.828125q0.359375 -1.71875 1.703125 -2.8125q1.359375 -1.09375 3.140625 -1.125zm-3.5 3.9375q-0.265625 1.234375 0.3125 2.0q0.578125 0.765625 1.75 0.796875q1.171875 0 2.0625 -0.78125q0.90625 -0.78125 1.1875 -2.015625q0.25 -1.203125 -0.328125 -1.984375q-0.5625 -0.796875 -1.75 -0.796875q-1.15625 0 -2.0625 0.78125q-0.890625 0.78125 -1.171875 2.0zm11.722778 -3.9375q1.78125 0.03125 2.25 1.375l-1.1875 0.6875q-0.34375 -0.90625 -1.390625 -0.90625q-0.625 0 -1.109375 0.296875q-0.484375 0.28125 -0.578125 0.75q-0.171875 0.75 1.640625 1.078125q1.296875 0.25 1.734375 0.796875q0.4375 0.53125 0.234375 1.453125q-0.234375 1.09375 -1.1875 1.71875q-0.9375 0.625 -2.296875 0.625q-1.0625 0 -1.671875 -0.328125q-0.59375 -0.34375 -0.9375 -1.0625l1.15625 -0.765625q0.34375 0.5625 0.734375 0.796875q0.40625 0.21875 0.96875 0.21875q0.71875 0 1.234375 -0.3125q0.53125 -0.3125 0.65625 -0.84375q0.109375 -0.546875 -0.3125 -0.8125q-0.421875 -0.28125 -1.515625 -0.5q-1.0625 -0.234375 -1.46875 -0.71875q-0.40625 -0.484375 -0.234375 -1.328125q0.203125 -0.953125 1.109375 -1.5625q0.90625 -0.625 2.171875 -0.65625zm7.94104 0q1.65625 0 2.359375 1.0625q0.71875 1.046875 0.328125 2.96875l-0.0625 0.296875l-6.046875 0q-0.140625 1.046875 0.40625 1.71875q0.546875 0.671875 1.546875 0.6875q1.515625 0 2.59375 -1.140625l0.796875 0.734375q-0.75 0.765625 -1.640625 1.15625q-0.875 0.390625 -2.0 0.390625q-1.71875 0 -2.515625 -1.109375q-0.796875 -1.109375 -0.453125 -2.828125q0.359375 -1.6875 1.65625 -2.78125q1.296875 -1.109375 3.03125 -1.15625zm1.5 3.265625q0.15625 -0.96875 -0.3125 -1.53125q-0.453125 -0.578125 -1.5 -0.578125q-0.96875 0 -1.75 0.546875q-0.765625 0.546875 -1.140625 1.5625l4.703125 0zm12.395996 -7.671875l-2.578125 12.09375l-1.25 0l0.28125 -1.328125l-0.03125 0q-0.546875 0.71875 -1.421875 1.125q-0.859375 0.390625 -1.78125 0.390625q-1.59375 0 -2.421875 -1.125q-0.8125 -1.125 -0.484375 -2.8125q0.359375 -1.703125 1.6875 -2.796875q1.328125 -1.109375 3.09375 -1.140625q1.609375 0 2.40625 1.28125l0.03125 0l1.21875 -5.6875l1.25 0zm-8.34375 8.34375q-0.265625 1.234375 0.3125 2.015625q0.578125 0.765625 1.75 0.78125q1.171875 0 2.0625 -0.765625q0.890625 -0.78125 1.1875 -2.03125q0.25 -1.203125 -0.328125 -1.984375q-0.5625 -0.796875 -1.75 -0.796875q-1.15625 0 -2.046875 0.78125q-0.890625 0.78125 -1.1875 2.0z" fill-rule="nonzero"/><path fill="#000000" d="m764.73816 155.39932l3.84375 8.875l0.03125 0l3.875 -8.875l1.953125 0l0 11.328125l-1.34375 0l0 -9.5l-0.03125 0l-4.078125 9.5l-0.8125 0l-4.0625 -9.5l-0.03125 0l0 9.5l-1.34375 0l0 -11.328125l2.0 0zm15.168274 3.640625q1.640625 0 2.375 0.78125q0.75 0.765625 0.765625 2.3125l0 3.359375q0 0.484375 0.109375 1.234375l-1.203125 0q-0.078125 -0.140625 -0.078125 -1.125l-0.03125 0q-0.84375 1.28125 -2.46875 1.3125q-1.234375 0 -2.015625 -0.609375q-0.765625 -0.625 -0.765625 -1.609375q0 -1.359375 1.109375 -1.984375q1.125 -0.640625 3.515625 -0.640625l0.578125 0l0 -0.203125q0 -1.640625 -1.859375 -1.671875q-1.34375 0 -2.21875 0.8125l-0.78125 -0.8125q1.140625 -1.109375 2.96875 -1.15625zm-1.96875 5.53125q0 1.265625 1.65625 1.296875q0.96875 0 1.578125 -0.625q0.625 -0.625 0.625 -1.828125l0 -0.28125l-1.375 0q-1.109375 0 -1.796875 0.359375q-0.671875 0.34375 -0.6875 1.078125zm11.069641 -5.53125q1.40625 0 2.125 0.828125q0.734375 0.8125 0.734375 2.171875l0 4.6875l-1.25 0l0 -4.546875q0 -0.859375 -0.40625 -1.40625q-0.40625 -0.5625 -1.3125 -0.578125q-1.15625 0 -1.734375 0.765625q-0.578125 0.75 -0.578125 2.109375l0 3.65625l-1.25 0l0 -5.828125q0 -0.078125 -0.0625 -1.65625l1.171875 0q0.046875 1.109375 0.046875 1.234375l0.03125 0q0.296875 -0.640625 0.96875 -1.03125q0.6875 -0.40625 1.515625 -0.40625zm8.099121 0q1.640625 0 2.375 0.78125q0.75 0.765625 0.765625 2.3125l0 3.359375q0 0.484375 0.109375 1.234375l-1.203125 0q-0.078125 -0.140625 -0.078125 -1.125l-0.03125 0q-0.84375 1.28125 -2.46875 1.3125q-1.234375 0 -2.015625 -0.609375q-0.765625 -0.625 -0.765625 -1.609375q0 -1.359375 1.109375 -1.984375q1.125 -0.640625 3.515625 -0.640625l0.578125 0l0 -0.203125q0 -1.640625 -1.859375 -1.671875q-1.34375 0 -2.21875 0.8125l-0.78125 -0.8125q1.140625 -1.109375 2.96875 -1.15625zm-1.96875 5.53125q0 1.265625 1.65625 1.296875q0.96875 0 1.578125 -0.625q0.625 -0.625 0.625 -1.828125l0 -0.28125l-1.375 0q-1.109375 0 -1.796875 0.359375q-0.671875 0.34375 -0.6875 1.078125zm10.929077 -5.53125q0.859375 0 1.59375 0.40625q0.734375 0.40625 1.0625 1.078125l0.03125 0l0 -1.28125l1.25 0l0 7.234375q0 1.90625 -1.03125 2.984375q-1.015625 1.078125 -3.046875 1.109375q-1.109375 0 -2.0 -0.328125q-0.890625 -0.3125 -1.6875 -1.09375l0.90625 -1.03125q1.1875 1.296875 2.78125 1.296875q2.828125 0 2.828125 -3.0l0 -0.984375l-0.03125 0q-0.421875 0.671875 -1.15625 1.03125q-0.734375 0.359375 -1.5 0.359375q-1.734375 0 -2.84375 -1.078125q-1.09375 -1.078125 -1.125 -2.765625q0 -1.796875 1.078125 -2.84375q1.09375 -1.0625 2.890625 -1.09375zm-2.625 3.9375q0 1.125 0.765625 1.90625q0.765625 0.765625 1.875 0.78125q1.21875 0 1.9375 -0.78125q0.734375 -0.78125 0.734375 -1.9375q0 -1.234375 -0.75 -1.984375q-0.734375 -0.75 -1.9375 -0.765625q-1.140625 0 -1.890625 0.8125q-0.734375 0.796875 -0.734375 1.96875zm12.276001 -3.9375q1.65625 0 2.59375 1.0625q0.9375 1.046875 0.953125 2.96875l0 0.296875l-6.046875 0q0.09375 1.046875 0.78125 1.71875q0.6875 0.671875 1.6875 0.6875q1.515625 0 2.359375 -1.140625l0.953125 0.734375q-0.59375 0.765625 -1.390625 1.15625q-0.796875 0.390625 -1.921875 0.390625q-1.71875 0 -2.765625 -1.109375q-1.03125 -1.109375 -1.046875 -2.828125q0 -1.6875 1.0625 -2.78125q1.0625 -1.109375 2.78125 -1.15625zm2.203125 3.265625q-0.046875 -0.96875 -0.640625 -1.53125q-0.578125 -0.578125 -1.625 -0.578125q-0.96875 0 -1.625 0.546875q-0.65625 0.546875 -0.8125 1.5625l4.703125 0zm10.755371 -7.671875l0 12.09375l-1.25 0l0 -1.328125l-0.03125 0q-0.390625 0.71875 -1.171875 1.125q-0.78125 0.390625 -1.703125 0.390625q-1.59375 0 -2.65625 -1.125q-1.0625 -1.125 -1.09375 -2.8125q0 -1.703125 1.09375 -2.796875q1.09375 -1.109375 2.84375 -1.140625q1.609375 0 2.6875 1.28125l0.03125 0l0 -5.6875l1.25 0zm-6.5625 8.34375q0 1.234375 0.734375 2.015625q0.75 0.765625 1.921875 0.78125q1.171875 0 1.890625 -0.765625q0.734375 -0.78125 0.765625 -2.03125q0 -1.203125 -0.75 -1.984375q-0.734375 -0.796875 -1.921875 -0.796875q-1.15625 0 -1.890625 0.78125q-0.71875 0.78125 -0.75 2.0z" fill-rule="nonzero"/><path fill="#000000" d="m721.92786 174.59933q2.21875 0 3.265625 0.734375q1.046875 0.734375 1.046875 2.375q0 1.1875 -0.71875 1.96875q-0.703125 0.78125 -2.109375 1.03125l3.21875 5.21875l-1.65625 0l-3.0625 -5.09375l-1.734375 0l0 5.09375l-1.34375 0l0 -11.328125l3.09375 0zm-0.140625 4.984375q1.578125 0 2.296875 -0.4375q0.71875 -0.4375 0.71875 -1.421875q0 -0.96875 -0.65625 -1.421875q-0.640625 -0.453125 -2.0 -0.453125l-1.96875 0l0 3.734375l1.609375 0zm10.010376 -1.34375q1.65625 0 2.59375 1.0625q0.9375 1.046875 0.953125 2.96875l0 0.296875l-6.046875 0q0.09375 1.046875 0.78125 1.71875q0.6875 0.671875 1.6875 0.6875q1.515625 0 2.359375 -1.140625l0.953125 0.734375q-0.59375 0.765625 -1.390625 1.15625q-0.796875 0.390625 -1.921875 0.390625q-1.71875 0 -2.765625 -1.109375q-1.03125 -1.109375 -1.046875 -2.828125q0 -1.6875 1.0625 -2.78125q1.0625 -1.109375 2.78125 -1.15625zm2.203125 3.265625q-0.046875 -0.96875 -0.640625 -1.53125q-0.578125 -0.578125 -1.625 -0.578125q-0.96875 0 -1.625 0.546875q-0.65625 0.546875 -0.8125 1.5625l4.703125 0zm5.567871 -3.265625q1.796875 0.03125 2.546875 1.375l-1.046875 0.6875q-0.53125 -0.90625 -1.578125 -0.90625q-0.625 0 -1.046875 0.296875q-0.421875 0.28125 -0.421875 0.75q0 0.75 1.875 1.078125q1.34375 0.25 1.890625 0.796875q0.5625 0.53125 0.5625 1.453125q0 1.09375 -0.8125 1.71875q-0.8125 0.625 -2.171875 0.625q-1.0625 0 -1.75 -0.328125q-0.671875 -0.34375 -1.15625 -1.0625l0.984375 -0.765625q0.46875 0.5625 0.90625 0.796875q0.453125 0.21875 1.015625 0.21875q0.71875 0 1.171875 -0.3125q0.46875 -0.3125 0.46875 -0.84375q0 -0.546875 -0.484375 -0.8125q-0.484375 -0.28125 -1.625 -0.5q-1.109375 -0.234375 -1.625 -0.71875q-0.5 -0.484375 -0.5 -1.328125q0 -0.953125 0.765625 -1.5625q0.78125 -0.625 2.03125 -0.65625zm8.09729 0q1.75 0 2.84375 1.09375q1.109375 1.078125 1.15625 2.84375q0 1.71875 -1.125 2.8125q-1.109375 1.09375 -2.875 1.125q-1.765625 0 -2.875 -1.109375q-1.09375 -1.109375 -1.125 -2.828125q0 -1.71875 1.109375 -2.8125q1.125 -1.09375 2.890625 -1.125zm-2.65625 3.9375q0 1.234375 0.734375 2.0q0.75 0.765625 1.921875 0.796875q1.171875 0 1.90625 -0.78125q0.734375 -0.78125 0.75 -2.015625q0 -1.203125 -0.75 -1.984375q-0.734375 -0.796875 -1.921875 -0.796875q-1.15625 0 -1.890625 0.78125q-0.734375 0.78125 -0.75 2.0zm9.847778 -3.734375l0 4.546875q0 0.859375 0.40625 1.421875q0.40625 0.546875 1.296875 0.5625q1.15625 0 1.734375 -0.765625q0.59375 -0.78125 0.59375 -2.0625l0 -3.703125l1.25 0l0 5.828125q0.015625 0.4375 0.0625 1.65625l-1.1875 0q-0.015625 -0.765625 -0.03125 -1.234375l-0.03125 0q-0.296875 0.625 -0.984375 1.03125q-0.671875 0.390625 -1.53125 0.390625q-1.375 -0.015625 -2.109375 -0.8125q-0.71875 -0.8125 -0.71875 -2.171875l0 -4.6875l1.25 0zm11.317871 -0.203125q0.296875 0 0.515625 0.09375l-0.078125 1.25q-0.359375 -0.09375 -0.671875 -0.09375q-1.09375 0 -1.640625 0.71875q-0.546875 0.703125 -0.546875 2.0l0 3.71875l-1.25 0l0 -5.828125q0 -0.21875 -0.0625 -1.65625l1.171875 0q0.046875 1.109375 0.046875 1.234375l0.03125 0q0.296875 -0.640625 0.96875 -1.03125q0.6875 -0.40625 1.515625 -0.40625zm5.125244 0q1.78125 0 2.859375 1.1875l-0.984375 0.890625q-0.75 -0.921875 -1.890625 -0.921875q-1.171875 0 -1.859375 0.765625q-0.671875 0.75 -0.671875 2.015625q0 1.203125 0.71875 2.0q0.734375 0.78125 1.8125 0.796875q1.234375 0 1.90625 -0.9375l0.921875 0.875q-1.03125 1.1875 -2.828125 1.203125q-1.71875 -0.015625 -2.78125 -1.078125q-1.0625 -1.078125 -1.09375 -2.859375q0.015625 -1.78125 1.109375 -2.859375q1.109375 -1.078125 2.78125 -1.078125zm7.665161 0q1.65625 0 2.59375 1.0625q0.9375 1.046875 0.953125 2.96875l0 0.296875l-6.046875 0q0.09375 1.046875 0.78125 1.71875q0.6875 0.671875 1.6875 0.6875q1.515625 0 2.359375 -1.140625l0.953125 0.734375q-0.59375 0.765625 -1.390625 1.15625q-0.796875 0.390625 -1.921875 0.390625q-1.71875 0 -2.765625 -1.109375q-1.03125 -1.109375 -1.046875 -2.828125q0 -1.6875 1.0625 -2.78125q1.0625 -1.109375 2.78125 -1.15625zm2.203125 3.265625q-0.046875 -0.96875 -0.640625 -1.53125q-0.578125 -0.578125 -1.625 -0.578125q-0.96875 0 -1.625 0.546875q-0.65625 0.546875 -0.8125 1.5625l4.703125 0zm5.567871 -3.265625q1.796875 0.03125 2.546875 1.375l-1.046875 0.6875q-0.53125 -0.90625 -1.578125 -0.90625q-0.625 0 -1.046875 0.296875q-0.421875 0.28125 -0.421875 0.75q0 0.75 1.875 1.078125q1.34375 0.25 1.890625 0.796875q0.5625 0.53125 0.5625 1.453125q0 1.09375 -0.8125 1.71875q-0.8125 0.625 -2.171875 0.625q-1.0625 0 -1.75 -0.328125q-0.671875 -0.34375 -1.15625 -1.0625l0.984375 -0.765625q0.46875 0.5625 0.90625 0.796875q0.453125 0.21875 1.015625 0.21875q0.71875 0 1.171875 -0.3125q0.46875 -0.3125 0.46875 -0.84375q0 -0.546875 -0.484375 -0.8125q-0.484375 -0.28125 -1.625 -0.5q-1.109375 -0.234375 -1.625 -0.71875q-0.5 -0.484375 -0.5 -1.328125q0 -0.953125 0.765625 -1.5625q0.78125 -0.625 2.03125 -0.65625z" fill-rule="nonzero"/></g></svg>