<svg version="1.1" viewBox="0.0 0.0 961.4383202099738 397.36482939632543" fill="none" stroke="none" stroke-linecap="square" stroke-miterlimit="10" xmlns:xlink="http://www.w3.org/1999/xlink" xmlns="http://www.w3.org/2000/svg"><clipPath id="p.0"><path d="m0 0l961.4383 0l0 397.36484l-961.4383 0l0 -397.36484z" clip-rule="nonzero"/></clipPath><g clip-path="url(#p.0)"><path fill="#000000" fill-opacity="0.0" d="m0 0l961.4383 0l0 397.36484l-961.4383 0z" fill-rule="evenodd"/><path fill="#183d54" d="m350.31235 249.28893l0 0c0 -5.9520264 4.8250732 -10.777115 10.7771 -10.777115l216.08359 0c2.8582764 0 5.5994263 1.135437 7.6205444 3.15654c2.0211182 2.021103 3.1565552 4.762314 3.1565552 7.620575l0 43.107193c0 5.9520264 -4.8250732 10.7771 -10.7771 10.7771l-216.08359 0c-5.9520264 0 -10.7771 -4.8250732 -10.7771 -10.7771z" fill-rule="evenodd"/><path fill="#ffffff" d="m368.43594 263.22876l4.0625 5.90625l4.03125 -5.90625l2.25 0l-5.078125 7.140625l5.5625 7.953125l-2.359375 0l-4.484375 -6.703125l-4.5 6.703125l-2.21875 0l5.5 -7.953125l-5.078125 -7.140625l2.3125 0zm17.233643 0q2.421875 0 3.78125 1.046875q1.359375 1.03125 1.390625 3.078125q0 1.984375 -1.328125 3.0625q-1.3125 1.078125 -3.53125 1.125l-3.109375 0l0 6.78125l-1.796875 0l0 -15.09375l4.59375 0zm0.3125 6.640625q1.359375 0 2.140625 -0.65625q0.796875 -0.65625 0.796875 -1.828125q0 -1.171875 -0.78125 -1.828125q-0.765625 -0.671875 -2.15625 -0.671875l-3.109375 0l0 4.984375l3.109375 0zm12.194519 -1.78125q2.328125 0 3.796875 1.4375q1.484375 1.4375 1.546875 3.8125q0 2.28125 -1.5 3.75q-1.484375 1.453125 -3.84375 1.484375q-2.34375 0 -3.8125 -1.46875q-1.46875 -1.484375 -1.515625 -3.765625q0 -2.3125 1.484375 -3.765625q1.5 -1.46875 3.84375 -1.484375zm-3.53125 5.25q0 1.640625 0.984375 2.65625q1.0 1.0 2.546875 1.046875q1.5625 0 2.546875 -1.03125q0.984375 -1.03125 1.0 -2.671875q0 -1.625 -1.0 -2.671875q-0.984375 -1.046875 -2.5625 -1.046875q-1.53125 0 -2.515625 1.03125q-0.984375 1.03125 -1.0 2.6875zm14.49707 -5.25q2.390625 0.015625 3.390625 1.8125l-1.375 0.921875q-0.734375 -1.203125 -2.125 -1.203125q-0.828125 0 -1.390625 0.390625q-0.5625 0.375 -0.5625 1.0q0 1.0 2.5 1.453125q1.78125 0.3125 2.53125 1.046875q0.75 0.71875 0.75 1.9375q0 1.46875 -1.09375 2.296875q-1.09375 0.828125 -2.90625 0.828125q-1.40625 0 -2.3125 -0.4375q-0.90625 -0.453125 -1.5625 -1.40625l1.328125 -1.03125q0.609375 0.75 1.203125 1.046875q0.609375 0.296875 1.34375 0.296875q0.96875 0 1.578125 -0.40625q0.625 -0.421875 0.625 -1.125q0 -0.734375 -0.65625 -1.09375q-0.640625 -0.359375 -2.15625 -0.65625q-1.5 -0.328125 -2.171875 -0.953125q-0.671875 -0.640625 -0.671875 -1.78125q0 -1.25 1.03125 -2.078125q1.046875 -0.84375 2.703125 -0.859375zm8.554565 -2.578125l0 2.828125l2.9375 0l0 1.40625l-2.9375 0l0 5.34375q0 1.1875 0.375 1.578125q0.390625 0.375 1.125 0.375q0.828125 0 1.46875 -0.34375l0.0625 1.515625q-0.859375 0.359375 -1.9375 0.359375q-1.546875 0 -2.15625 -0.75q-0.59375 -0.765625 -0.59375 -2.484375l0 -5.59375l-2.1875 0l0 -1.40625l2.1875 0l0 -2.828125l1.65625 0zm9.710663 2.578125q1.140625 0 2.109375 0.53125q0.984375 0.53125 1.421875 1.421875l0.046875 0l0 -1.703125l1.65625 0l0 9.640625q0 2.5625 -1.359375 3.984375q-1.359375 1.4375 -4.078125 1.484375q-1.46875 0 -2.671875 -0.4375q-1.1875 -0.421875 -2.234375 -1.46875l1.203125 -1.359375q1.59375 1.71875 3.703125 1.71875q3.78125 0 3.78125 -4.0l0 -1.3125l-0.046875 0q-0.546875 0.90625 -1.53125 1.390625q-0.984375 0.46875 -2.0 0.46875q-2.3125 0 -3.78125 -1.4375q-1.46875 -1.4375 -1.515625 -3.671875q0 -2.421875 1.453125 -3.828125q1.453125 -1.40625 3.84375 -1.421875zm-3.5 5.25q0 1.484375 1.015625 2.53125q1.03125 1.03125 2.5 1.046875q1.625 0 2.59375 -1.046875q0.96875 -1.046875 0.96875 -2.578125q0 -1.640625 -1.0 -2.640625q-0.984375 -1.015625 -2.578125 -1.03125q-1.515625 0 -2.515625 1.078125q-0.984375 1.0625 -0.984375 2.640625zm16.719055 -5.25q0.390625 0 0.6875 0.109375l-0.109375 1.671875q-0.46875 -0.125 -0.90625 -0.125q-1.4375 0 -2.1875 0.953125q-0.734375 0.953125 -0.734375 2.671875l0 4.953125l-1.65625 0l0 -7.765625q0 -0.296875 -0.078125 -2.21875l1.578125 0q0.03125 1.5 0.03125 1.640625l0.046875 0q0.40625 -0.84375 1.3125 -1.359375q0.90625 -0.53125 2.015625 -0.53125zm6.76416 0q2.21875 0 3.453125 1.40625q1.25 1.390625 1.28125 3.9375l0 0.40625l-8.0625 0q0.125 1.390625 1.03125 2.296875q0.921875 0.890625 2.25 0.90625q2.03125 0 3.15625 -1.515625l1.265625 0.984375q-0.796875 1.015625 -1.859375 1.546875q-1.0625 0.515625 -2.5625 0.515625q-2.28125 0 -3.671875 -1.46875q-1.375 -1.484375 -1.40625 -3.765625q0 -2.265625 1.421875 -3.734375q1.421875 -1.46875 3.703125 -1.515625zm2.9375 4.34375q-0.0625 -1.296875 -0.84375 -2.046875q-0.78125 -0.765625 -2.1875 -0.765625q-1.28125 0 -2.15625 0.734375q-0.875 0.71875 -1.078125 2.078125l6.265625 0zm9.092865 -9.59375q2.75 0 4.21875 1.765625l-1.46875 1.28125q-0.859375 -1.34375 -2.75 -1.390625q-1.4375 0 -2.328125 0.6875q-0.890625 0.6875 -0.890625 1.859375q0 1.015625 0.671875 1.625q0.6875 0.59375 2.5625 1.171875q2.4375 0.703125 3.4375 1.71875q1.015625 1.0 1.015625 2.734375q0 2.0 -1.5 3.203125q-1.484375 1.1875 -3.8125 1.21875q-1.546875 0 -2.765625 -0.546875q-1.21875 -0.5625 -1.875 -1.546875l1.53125 -1.265625q0.5 0.8125 1.359375 1.25q0.875 0.4375 1.859375 0.4375q1.34375 0 2.3125 -0.75q0.96875 -0.765625 0.96875 -1.875q0 -1.0 -0.5625 -1.578125q-0.5625 -0.578125 -1.859375 -0.984375l-1.734375 -0.5625q-1.9375 -0.671875 -2.734375 -1.65625q-0.796875 -1.0 -0.796875 -2.453125q0 -1.90625 1.421875 -3.109375q1.4375 -1.21875 3.71875 -1.234375zm14.32724 0q2.21875 0 3.96875 1.015625q1.75 1.015625 2.765625 2.78125q1.015625 1.765625 1.03125 3.953125q0 2.0 -1.046875 3.734375q-1.03125 1.734375 -2.625 2.421875l0 0.046875l4.671875 0l0 1.53125l-8.8125 0q-3.234375 0 -5.453125 -2.21875q-2.203125 -2.21875 -2.265625 -5.515625q0 -2.1875 1.015625 -3.953125q1.03125 -1.765625 2.828125 -2.78125q1.8125 -1.015625 3.921875 -1.015625zm-5.84375 7.75q0 2.546875 1.6875 4.296875q1.6875 1.734375 4.15625 1.78125q2.5 0 4.140625 -1.765625q1.65625 -1.765625 1.703125 -4.3125q0 -2.59375 -1.671875 -4.328125q-1.671875 -1.734375 -4.1875 -1.765625q-2.453125 0 -4.109375 1.734375q-1.65625 1.734375 -1.71875 4.359375zm18.53772 -7.359375l0 13.4375l6.90625 0l0 1.65625l-8.703125 0l0 -15.09375l1.796875 0zm10.664124 0l0 15.09375l-1.796875 0l0 -15.09375l1.796875 0zm8.357819 4.859375q1.875 0 2.828125 1.09375q0.96875 1.078125 0.96875 2.890625l0 6.25l-1.671875 0l0 -6.0625q0 -1.140625 -0.53125 -1.875q-0.53125 -0.75 -1.75 -0.765625q-1.53125 0 -2.3125 1.015625q-0.78125 1.015625 -0.78125 2.796875l0 4.890625l-1.65625 0l0 -7.765625q0 -0.109375 -0.078125 -2.21875l1.578125 0q0.03125 1.5 0.03125 1.640625l0.046875 0q0.40625 -0.84375 1.3125 -1.359375q0.90625 -0.53125 2.015625 -0.53125zm9.999115 0q2.390625 0.015625 3.390625 1.8125l-1.375 0.921875q-0.734375 -1.203125 -2.125 -1.203125q-0.828125 0 -1.390625 0.390625q-0.5625 0.375 -0.5625 1.0q0 1.0 2.5 1.453125q1.78125 0.3125 2.53125 1.046875q0.75 0.71875 0.75 1.9375q0 1.46875 -1.09375 2.296875q-1.09375 0.828125 -2.90625 0.828125q-1.40625 0 -2.3125 -0.4375q-0.90625 -0.453125 -1.5625 -1.40625l1.328125 -1.03125q0.609375 0.75 1.203125 1.046875q0.609375 0.296875 1.34375 0.296875q0.96875 0 1.578125 -0.40625q0.625 -0.421875 0.625 -1.125q0 -0.734375 -0.65625 -1.09375q-0.640625 -0.359375 -2.15625 -0.65625q-1.5 -0.328125 -2.171875 -0.953125q-0.671875 -0.640625 -0.671875 -1.78125q0 -1.25 1.03125 -2.078125q1.046875 -0.84375 2.703125 -0.859375zm8.554565 -2.578125l0 2.828125l2.9375 0l0 1.40625l-2.9375 0l0 5.34375q0 1.1875 0.375 1.578125q0.390625 0.375 1.125 0.375q0.828125 0 1.46875 -0.34375l0.0625 1.515625q-0.859375 0.359375 -1.9375 0.359375q-1.546875 0 -2.15625 -0.75q-0.59375 -0.765625 -0.59375 -2.484375l0 -5.59375l-2.1875 0l0 -1.40625l2.1875 0l0 -2.828125l1.65625 0zm8.835693 2.578125q2.171875 0 3.15625 1.03125q1.0 1.015625 1.015625 3.078125l0 4.484375q0 0.640625 0.15625 1.640625l-1.609375 0q-0.09375 -0.1875 -0.09375 -1.5l-0.046875 0q-1.125 1.71875 -3.28125 1.75q-1.640625 0 -2.6875 -0.8125q-1.03125 -0.828125 -1.03125 -2.140625q0 -1.8125 1.484375 -2.65625q1.5 -0.84375 4.6875 -0.84375l0.765625 0l0 -0.28125q0 -2.171875 -2.484375 -2.21875q-1.78125 0 -2.953125 1.09375l-1.046875 -1.09375q1.53125 -1.484375 3.96875 -1.53125zm-2.625 7.359375q0 1.6875 2.1875 1.71875q1.3125 0 2.125 -0.828125q0.828125 -0.828125 0.828125 -2.4375l0 -0.375l-1.84375 0q-1.46875 0 -2.375 0.46875q-0.90625 0.46875 -0.921875 1.453125zm14.756836 -7.359375q1.875 0 2.828125 1.09375q0.96875 1.078125 0.96875 2.890625l0 6.25l-1.671875 0l0 -6.0625q0 -1.140625 -0.53125 -1.875q-0.53125 -0.75 -1.75 -0.765625q-1.53125 0 -2.3125 1.015625q-0.78125 1.015625 -0.78125 2.796875l0 4.890625l-1.65625 0l0 -7.765625q0 -0.109375 -0.078125 -2.21875l1.578125 0q0.03125 1.5 0.03125 1.640625l0.046875 0q0.40625 -0.84375 1.3125 -1.359375q0.90625 -0.53125 2.015625 -0.53125zm11.561584 0q2.359375 0 3.8125 1.578125l-1.3125 1.171875q-1.015625 -1.21875 -2.53125 -1.21875q-1.546875 0 -2.453125 1.015625q-0.90625 1.015625 -0.90625 2.703125q0 1.59375 0.96875 2.640625q0.96875 1.046875 2.390625 1.0625q1.65625 0 2.546875 -1.234375l1.234375 1.171875q-1.390625 1.578125 -3.78125 1.59375q-2.28125 -0.015625 -3.703125 -1.4375q-1.40625 -1.4375 -1.453125 -3.796875q0.03125 -2.390625 1.5 -3.8125q1.46875 -1.4375 3.6875 -1.4375zm10.217712 0q2.21875 0 3.453125 1.40625q1.25 1.390625 1.28125 3.9375l0 0.40625l-8.0625 0q0.125 1.390625 1.03125 2.296875q0.921875 0.890625 2.25 0.90625q2.03125 0 3.15625 -1.515625l1.265625 0.984375q-0.796875 1.015625 -1.859375 1.546875q-1.0625 0.515625 -2.5625 0.515625q-2.28125 0 -3.671875 -1.46875q-1.375 -1.484375 -1.40625 -3.765625q0 -2.265625 1.421875 -3.734375q1.421875 -1.46875 3.703125 -1.515625zm2.9375 4.34375q-0.0625 -1.296875 -0.84375 -2.046875q-0.78125 -0.765625 -2.1875 -0.765625q-1.28125 0 -2.15625 0.734375q-0.875 0.71875 -1.078125 2.078125l6.265625 0z" fill-rule="nonzero"/><path fill="#96ffe0" d="m78.698166 249.28893l0 0c0 -5.9520264 4.825081 -10.777115 10.777115 -10.777115l216.08356 0c2.8582764 0 5.5994873 1.135437 7.620575 3.15654c2.0210876 2.021103 3.1565552 4.762314 3.1565552 7.620575l0 43.107193c0 5.9520264 -4.8251038 10.7771 -10.77713 10.7771l-216.08356 0c-5.952034 0 -10.777115 -4.8250732 -10.777115 -10.7771z" fill-rule="evenodd"/><path fill="#000000" d="m107.33704 263.22876q2.421875 0 3.78125 1.046875q1.359375 1.03125 1.390625 3.078125q0 1.984375 -1.328125 3.0625q-1.3125 1.078125 -3.53125 1.125l-3.109375 0l0 6.78125l-1.796875 0l0 -15.09375l4.59375 0zm0.3125 6.640625q1.359375 0 2.140625 -0.65625q0.796875 -0.65625 0.796875 -1.828125q0 -1.171875 -0.78125 -1.828125q-0.765625 -0.671875 -2.15625 -0.671875l-3.109375 0l0 4.984375l3.109375 0zm12.194504 -1.78125q2.328125 0 3.796875 1.4375q1.484375 1.4375 1.546875 3.8125q0 2.28125 -1.5 3.75q-1.484375 1.453125 -3.84375 1.484375q-2.34375 0 -3.8125 -1.46875q-1.46875 -1.484375 -1.515625 -3.765625q0 -2.3125 1.484375 -3.765625q1.5 -1.46875 3.84375 -1.484375zm-3.53125 5.25q0 1.640625 0.984375 2.65625q1.0 1.0 2.546875 1.046875q1.5625 0 2.546875 -1.03125q0.984375 -1.03125 1.0 -2.671875q0 -1.625 -1.0 -2.671875q-0.984375 -1.046875 -2.5625 -1.046875q-1.53125 0 -2.515625 1.03125q-0.984375 1.03125 -1.0 2.6875zm14.497078 -5.25q2.390625 0.015625 3.390625 1.8125l-1.375 0.921875q-0.734375 -1.203125 -2.125 -1.203125q-0.828125 0 -1.390625 0.390625q-0.5625 0.375 -0.5625 1.0q0 1.0 2.5 1.453125q1.78125 0.3125 2.53125 1.046875q0.75 0.71875 0.75 1.9375q0 1.46875 -1.09375 2.296875q-1.09375 0.828125 -2.90625 0.828125q-1.40625 0 -2.3125 -0.4375q-0.9062424 -0.453125 -1.5624924 -1.40625l1.328125 -1.03125q0.6093674 0.75 1.2031174 1.046875q0.609375 0.296875 1.34375 0.296875q0.96875 0 1.578125 -0.40625q0.625 -0.421875 0.625 -1.125q0 -0.734375 -0.65625 -1.09375q-0.640625 -0.359375 -2.15625 -0.65625q-1.5 -0.328125 -2.1718674 -0.953125q-0.671875 -0.640625 -0.671875 -1.78125q0 -1.25 1.0312424 -2.078125q1.046875 -0.84375 2.703125 -0.859375zm8.554565 -2.578125l0 2.828125l2.9375 0l0 1.40625l-2.9375 0l0 5.34375q0 1.1875 0.375 1.578125q0.390625 0.375 1.125 0.375q0.828125 0 1.46875 -0.34375l0.0625 1.515625q-0.859375 0.359375 -1.9375 0.359375q-1.546875 0 -2.15625 -0.75q-0.59375 -0.765625 -0.59375 -2.484375l0 -5.59375l-2.1875 0l0 -1.40625l2.1875 0l0 -2.828125l1.65625 0zm9.710663 2.578125q1.140625 0 2.109375 0.53125q0.984375 0.53125 1.421875 1.421875l0.046875 0l0 -1.703125l1.65625 0l0 9.640625q0 2.5625 -1.359375 3.984375q-1.359375 1.4375 -4.078125 1.484375q-1.46875 0 -2.671875 -0.4375q-1.1875 -0.421875 -2.234375 -1.46875l1.203125 -1.359375q1.59375 1.71875 3.703125 1.71875q3.78125 0 3.78125 -4.0l0 -1.3125l-0.046875 0q-0.546875 0.90625 -1.53125 1.390625q-0.984375 0.46875 -2.0 0.46875q-2.3125 0 -3.78125 -1.4375q-1.46875 -1.4375 -1.515625 -3.671875q0 -2.421875 1.453125 -3.828125q1.453125 -1.40625 3.84375 -1.421875zm-3.5 5.25q0 1.484375 1.015625 2.53125q1.03125 1.03125 2.5 1.046875q1.625 0 2.59375 -1.046875q0.96875 -1.046875 0.96875 -2.578125q0 -1.640625 -1.0 -2.640625q-0.984375 -1.015625 -2.578125 -1.03125q-1.515625 0 -2.515625 1.078125q-0.984375 1.0625 -0.984375 2.640625zm16.71904 -5.25q0.390625 0 0.6875 0.109375l-0.109375 1.671875q-0.46875 -0.125 -0.90625 -0.125q-1.4375 0 -2.1875 0.953125q-0.734375 0.953125 -0.734375 2.671875l0 4.953125l-1.65625 0l0 -7.765625q0 -0.296875 -0.078125 -2.21875l1.578125 0q0.03125 1.5 0.03125 1.640625l0.046875 0q0.40625 -0.84375 1.3125 -1.359375q0.90625 -0.53125 2.015625 -0.53125zm6.76416 0q2.21875 0 3.453125 1.40625q1.25 1.390625 1.28125 3.9375l0 0.40625l-8.0625 0q0.125 1.390625 1.03125 2.296875q0.921875 0.890625 2.25 0.90625q2.03125 0 3.15625 -1.515625l1.265625 0.984375q-0.796875 1.015625 -1.859375 1.546875q-1.0625 0.515625 -2.5625 0.515625q-2.28125 0 -3.671875 -1.46875q-1.375 -1.484375 -1.40625 -3.765625q0 -2.265625 1.421875 -3.734375q1.421875 -1.46875 3.703125 -1.515625zm2.9375 4.34375q-0.0625 -1.296875 -0.84375 -2.046875q-0.78125 -0.765625 -2.1875 -0.765625q-1.28125 0 -2.15625 0.734375q-0.875 0.71875 -1.078125 2.078125l6.265625 0zm9.092865 -9.59375q2.75 0 4.21875 1.765625l-1.46875 1.28125q-0.859375 -1.34375 -2.75 -1.390625q-1.4375 0 -2.328125 0.6875q-0.890625 0.6875 -0.890625 1.859375q0 1.015625 0.671875 1.625q0.6875 0.59375 2.5625 1.171875q2.4375 0.703125 3.4375 1.71875q1.015625 1.0 1.015625 2.734375q0 2.0 -1.5 3.203125q-1.484375 1.1875 -3.8125 1.21875q-1.546875 0 -2.765625 -0.546875q-1.21875 -0.5625 -1.875 -1.546875l1.53125 -1.265625q0.5 0.8125 1.359375 1.25q0.875 0.4375 1.859375 0.4375q1.34375 0 2.3125 -0.75q0.96875 -0.765625 0.96875 -1.875q0 -1.0 -0.5625 -1.578125q-0.5625 -0.578125 -1.859375 -0.984375l-1.734375 -0.5625q-1.9375 -0.671875 -2.734375 -1.65625q-0.796875 -1.0 -0.796875 -2.453125q0 -1.90625 1.421875 -3.109375q1.4375 -1.21875 3.71875 -1.234375zm14.32724 0q2.21875 0 3.96875 1.015625q1.75 1.015625 2.765625 2.78125q1.015625 1.765625 1.03125 3.953125q0 2.0 -1.046875 3.734375q-1.03125 1.734375 -2.625 2.421875l0 0.046875l4.671875 0l0 1.53125l-8.8125 0q-3.234375 0 -5.453125 -2.21875q-2.203125 -2.21875 -2.265625 -5.515625q0 -2.1875 1.015625 -3.953125q1.03125 -1.765625 2.828125 -2.78125q1.8125 -1.015625 3.921875 -1.015625zm-5.84375 7.75q0 2.546875 1.6875 4.296875q1.6875 1.734375 4.15625 1.78125q2.5 0 4.140625 -1.765625q1.65625 -1.765625 1.703125 -4.3125q0 -2.59375 -1.671875 -4.328125q-1.671875 -1.734375 -4.1875 -1.765625q-2.453125 0 -4.109375 1.734375q-1.65625 1.734375 -1.71875 4.359375zm18.537735 -7.359375l0 13.4375l6.90625 0l0 1.65625l-8.703125 0l0 -15.09375l1.796875 0zm10.664124 0l0 15.09375l-1.796875 0l0 -15.09375l1.796875 0zm8.357819 4.859375q1.875 0 2.828125 1.09375q0.96875 1.078125 0.96875 2.890625l0 6.25l-1.671875 0l0 -6.0625q0 -1.140625 -0.53125 -1.875q-0.53125 -0.75 -1.75 -0.765625q-1.53125 0 -2.3125 1.015625q-0.78125 1.015625 -0.78125 2.796875l0 4.890625l-1.65625 0l0 -7.765625q0 -0.109375 -0.078125 -2.21875l1.578125 0q0.03125 1.5 0.03125 1.640625l0.046875 0q0.40625 -0.84375 1.3125 -1.359375q0.90625 -0.53125 2.015625 -0.53125zm9.999115 0q2.390625 0.015625 3.390625 1.8125l-1.375 0.921875q-0.734375 -1.203125 -2.125 -1.203125q-0.828125 0 -1.390625 0.390625q-0.5625 0.375 -0.5625 1.0q0 1.0 2.5 1.453125q1.78125 0.3125 2.53125 1.046875q0.75 0.71875 0.75 1.9375q0 1.46875 -1.09375 2.296875q-1.09375 0.828125 -2.90625 0.828125q-1.40625 0 -2.3125 -0.4375q-0.90625 -0.453125 -1.5625 -1.40625l1.328125 -1.03125q0.609375 0.75 1.203125 1.046875q0.609375 0.296875 1.34375 0.296875q0.96875 0 1.578125 -0.40625q0.625 -0.421875 0.625 -1.125q0 -0.734375 -0.65625 -1.09375q-0.640625 -0.359375 -2.15625 -0.65625q-1.5 -0.328125 -2.171875 -0.953125q-0.671875 -0.640625 -0.671875 -1.78125q0 -1.25 1.03125 -2.078125q1.046875 -0.84375 2.703125 -0.859375zm8.554565 -2.578125l0 2.828125l2.9375 0l0 1.40625l-2.9375 0l0 5.34375q0 1.1875 0.375 1.578125q0.390625 0.375 1.125 0.375q0.828125 0 1.46875 -0.34375l0.0625 1.515625q-0.859375 0.359375 -1.9375 0.359375q-1.546875 0 -2.15625 -0.75q-0.59375 -0.765625 -0.59375 -2.484375l0 -5.59375l-2.1875 0l0 -1.40625l2.1875 0l0 -2.828125l1.65625 0zm8.835663 2.578125q2.171875 0 3.15625 1.03125q1.0 1.015625 1.015625 3.078125l0 4.484375q0 0.640625 0.15625 1.640625l-1.609375 0q-0.09375 -0.1875 -0.09375 -1.5l-0.046875 0q-1.125 1.71875 -3.28125 1.75q-1.640625 0 -2.6875 -0.8125q-1.03125 -0.828125 -1.03125 -2.140625q0 -1.8125 1.484375 -2.65625q1.5 -0.84375 4.6875 -0.84375l0.765625 0l0 -0.28125q0 -2.171875 -2.484375 -2.21875q-1.78125 0 -2.953125 1.09375l-1.046875 -1.09375q1.53125 -1.484375 3.96875 -1.53125zm-2.625 7.359375q0 1.6875 2.1875 1.71875q1.3125 0 2.125 -0.828125q0.828125 -0.828125 0.828125 -2.4375l0 -0.375l-1.84375 0q-1.46875 0 -2.375 0.46875q-0.90625 0.46875 -0.921875 1.453125zm14.756836 -7.359375q1.875 0 2.828125 1.09375q0.96875 1.078125 0.96875 2.890625l0 6.25l-1.671875 0l0 -6.0625q0 -1.140625 -0.53125 -1.875q-0.53125 -0.75 -1.75 -0.765625q-1.53125 0 -2.3125 1.015625q-0.78125 1.015625 -0.78125 2.796875l0 4.890625l-1.65625 0l0 -7.765625q0 -0.109375 -0.078125 -2.21875l1.578125 0q0.03125 1.5 0.03125 1.640625l0.046875 0q0.40625 -0.84375 1.3125 -1.359375q0.90625 -0.53125 2.015625 -0.53125zm11.561615 0q2.359375 0 3.8125 1.578125l-1.3125 1.171875q-1.015625 -1.21875 -2.53125 -1.21875q-1.546875 0 -2.453125 1.015625q-0.90625 1.015625 -0.90625 2.703125q0 1.59375 0.96875 2.640625q0.96875 1.046875 2.390625 1.0625q1.65625 0 2.546875 -1.234375l1.234375 1.171875q-1.390625 1.578125 -3.78125 1.59375q-2.28125 -0.015625 -3.703125 -1.4375q-1.40625 -1.4375 -1.453125 -3.796875q0.03125 -2.390625 1.5 -3.8125q1.46875 -1.4375 3.6875 -1.4375zm10.217712 0q2.21875 0 3.453125 1.40625q1.25 1.390625 1.28125 3.9375l0 0.40625l-8.0625 0q0.125 1.390625 1.03125 2.296875q0.921875 0.890625 2.25 0.90625q2.03125 0 3.15625 -1.515625l1.265625 0.984375q-0.796875 1.015625 -1.859375 1.546875q-1.0625 0.515625 -2.5625 0.515625q-2.28125 0 -3.671875 -1.46875q-1.375 -1.484375 -1.40625 -3.765625q0 -2.265625 1.421875 -3.734375q1.421875 -1.46875 3.703125 -1.515625zm2.9375 4.34375q-0.0625 -1.296875 -0.84375 -2.046875q-0.78125 -0.765625 -2.1875 -0.765625q-1.28125 0 -2.15625 0.734375q-0.875 0.71875 -1.078125 2.078125l6.265625 0z" fill-rule="nonzero"/><path fill="#96ffe0" d="m780.73883 59.815067l0 0c0 -2.9745674 2.411377 -5.385933 5.3859253 -5.385933l148.18878 0c1.4284668 0 2.7984009 0.56744385 3.8084106 1.5775032c1.0100708 1.0100594 1.5775146 2.3799934 1.5775146 3.8084297l0 21.543095c0 2.9745712 -2.411377 5.385933 -5.3859253 5.385933l-148.18878 0l0 0c-2.9745483 0 -5.3859253 -2.4113617 -5.3859253 -5.385933z" fill-rule="evenodd"/><path fill="#000000" d="m848.61444 65.71474q1.109375 0 1.953125 0.390625q0.859375 0.390625 1.375 1.078125l-0.96875 0.71875q-0.421875 -0.578125 -1.046875 -0.859375q-0.625 -0.296875 -1.3125 -0.296875q-1.5 0 -2.53125 1.15625q-1.03125 1.140625 -1.0625 2.765625q0 1.6875 1.015625 2.796875q1.03125 1.109375 2.578125 1.125q1.703125 0 2.734375 -1.328125l0.84375 0.71875q-1.25 1.640625 -3.578125 1.640625q-2.0625 0 -3.421875 -1.421875q-1.34375 -1.421875 -1.375 -3.53125q0 -2.109375 1.359375 -3.515625q1.375 -1.421875 3.4375 -1.4375zm6.0860596 -0.40625l0 10.078125l-1.046875 0l0 -10.078125l1.046875 0zm4.4643555 3.6875q1.359375 0 1.96875 0.640625q0.625 0.625 0.640625 1.921875l0 2.796875q0 0.40625 0.09375 1.03125l-1.0 0q-0.0625 -0.125 -0.0625 -0.9375l-0.03125 0q-0.703125 1.078125 -2.046875 1.09375q-1.03125 0 -1.6875 -0.5q-0.640625 -0.515625 -0.640625 -1.34375q0 -1.140625 0.9375 -1.65625q0.9375 -0.53125 2.921875 -0.53125l0.46875 0l0 -0.171875q0 -1.359375 -1.546875 -1.390625q-1.109375 0 -1.84375 0.671875l-0.65625 -0.671875q0.953125 -0.9375 2.484375 -0.953125zm-1.640625 4.59375q0 1.046875 1.375 1.078125q0.8125 0 1.3125 -0.515625q0.515625 -0.53125 0.515625 -1.53125l0 -0.234375l-1.140625 0q-0.921875 0 -1.484375 0.296875q-0.5625 0.296875 -0.578125 0.90625zm6.7610474 -7.640625q0.3125 0 0.53125 0.21875q0.234375 0.21875 0.234375 0.546875q0 0.328125 -0.21875 0.546875q-0.203125 0.203125 -0.546875 0.203125q-0.328125 0 -0.546875 -0.203125q-0.203125 -0.21875 -0.203125 -0.546875q0 -0.328125 0.21875 -0.546875q0.234375 -0.21875 0.53125 -0.21875zm0.53125 3.203125l0 6.234375l-1.046875 0l0 -6.234375l1.046875 0zm5.1362305 -0.15625q1.421875 0 1.96875 1.171875q0.359375 -0.609375 0.828125 -0.890625q0.46875 -0.28125 1.15625 -0.28125q1.203125 0 1.78125 0.640625q0.578125 0.625 0.578125 1.890625l0 3.859375l-1.046875 0l0 -3.765625q0 -1.640625 -1.515625 -1.671875q-0.703125 0 -1.15625 0.53125q-0.453125 0.515625 -0.453125 1.265625l0 3.640625l-1.046875 0l0 -3.609375q0 -0.921875 -0.265625 -1.375q-0.265625 -0.453125 -0.953125 -0.453125q-0.9375 0 -1.421875 0.640625q-0.484375 0.625 -0.484375 1.75l0 3.046875l-1.046875 0l0 -4.84375q-0.015625 -0.46875 -0.046875 -1.390625l0.984375 0q0.03125 0.921875 0.03125 1.015625l0.015625 0q0.25 -0.53125 0.8125 -0.84375q0.5625 -0.328125 1.28125 -0.328125z" fill-rule="nonzero"/><path fill="#000000" d="m780.73883 140.13397l0 0c0 -2.9745789 2.411377 -5.3859406 5.3859253 -5.3859406l148.18878 0c1.4284668 0 2.7984009 0.56744385 3.8084106 1.5774994c1.0100708 1.0100555 1.5775146 2.3799896 1.5775146 3.8084412l0 21.54309c0 2.9745636 -2.411377 5.3859253 -5.3859253 5.3859253l-148.18878 0l0 0c-2.9745483 0 -5.3859253 -2.4113617 -5.3859253 -5.3859253z" fill-rule="evenodd"/><path stroke="#000000" stroke-width="1.0" stroke-linejoin="round" stroke-linecap="butt" d="m780.73883 140.13397l0 0c0 -2.9745789 2.411377 -5.3859406 5.3859253 -5.3859406l148.18878 0c1.4284668 0 2.7984009 0.56744385 3.8084106 1.5774994c1.0100708 1.0100555 1.5775146 2.3799896 1.5775146 3.8084412l0 21.54309c0 2.9745636 -2.411377 5.3859253 -5.3859253 5.3859253l-148.18878 0l0 0c-2.9745483 0 -5.3859253 -2.4113617 -5.3859253 -5.3859253z" fill-rule="evenodd"/><path fill="#96ffe0" d="m805.27246 146.268l3.1875 7.390625l0.03125 0l3.234375 -7.390625l1.625 0l0 9.4375l-1.125 0l0 -7.921875l-0.03125 0l-3.375 7.921875l-0.6875 0l-3.390625 -7.921875l-0.015625 0l0 7.921875l-1.125 0l0 -9.4375l1.671875 0zm12.635437 3.046875q1.359375 0 1.96875 0.640625q0.625 0.625 0.640625 1.921875l0 2.796875q0 0.40625 0.09375 1.03125l-1.0 0q-0.0625 -0.125 -0.0625 -0.9375l-0.03125 0q-0.703125 1.078125 -2.046875 1.09375q-1.03125 0 -1.6875 -0.5q-0.640625 -0.515625 -0.640625 -1.34375q0 -1.140625 0.9375 -1.65625q0.9375 -0.53125 2.921875 -0.53125l0.46875 0l0 -0.171875q0 -1.359375 -1.546875 -1.390625q-1.109375 0 -1.84375 0.671875l-0.65625 -0.671875q0.953125 -0.9375 2.484375 -0.953125zm-1.640625 4.59375q0 1.046875 1.375 1.078125q0.8125 0 1.3125 -0.515625q0.515625 -0.53125 0.515625 -1.53125l0 -0.234375l-1.140625 0q-0.921875 0 -1.484375 0.296875q-0.5625 0.296875 -0.578125 0.90625zm9.214111 -4.59375q1.171875 0 1.765625 0.6875q0.609375 0.671875 0.609375 1.796875l0 3.90625l-1.03125 0l0 -3.78125q0 -0.71875 -0.34375 -1.171875q-0.328125 -0.46875 -1.09375 -0.484375q-0.953125 0 -1.4375 0.640625q-0.484375 0.625 -0.484375 1.75l0 3.046875l-1.046875 0l0 -4.84375q0 -0.078125 -0.046875 -1.390625l0.984375 0q0.03125 0.9375 0.03125 1.015625l0.015625 0q0.25 -0.53125 0.8125 -0.84375q0.578125 -0.328125 1.265625 -0.328125zm6.7541504 0q1.359375 0 1.96875 0.640625q0.625 0.625 0.640625 1.921875l0 2.796875q0 0.40625 0.09375 1.03125l-1.0 0q-0.0625 -0.125 -0.0625 -0.9375l-0.03125 0q-0.703125 1.078125 -2.046875 1.09375q-1.03125 0 -1.6875 -0.5q-0.640625 -0.515625 -0.640625 -1.34375q0 -1.140625 0.9375 -1.65625q0.9375 -0.53125 2.921875 -0.53125l0.46875 0l0 -0.171875q0 -1.359375 -1.546875 -1.390625q-1.109375 0 -1.84375 0.671875l-0.65625 -0.671875q0.953125 -0.9375 2.484375 -0.953125zm-1.640625 4.59375q0 1.046875 1.375 1.078125q0.8125 0 1.3125 -0.515625q0.515625 -0.53125 0.515625 -1.53125l0 -0.234375l-1.140625 0q-0.921875 0 -1.484375 0.296875q-0.5625 0.296875 -0.578125 0.90625zm9.104797 -4.59375q0.71875 0 1.3125 0.328125q0.609375 0.328125 0.890625 0.890625l0.03125 0l0 -1.0625l1.03125 0l0 6.015625q0 1.609375 -0.859375 2.5q-0.84375 0.890625 -2.53125 0.921875q-0.921875 0 -1.671875 -0.265625q-0.734375 -0.265625 -1.390625 -0.921875l0.75 -0.859375q1.0 1.078125 2.3125 1.078125q2.359375 0 2.359375 -2.5l0 -0.8125l-0.03125 0q-0.34375 0.5625 -0.953125 0.859375q-0.609375 0.296875 -1.25 0.296875q-1.4375 0 -2.359375 -0.890625q-0.921875 -0.90625 -0.953125 -2.3125q0 -1.5 0.90625 -2.375q0.90625 -0.890625 2.40625 -0.890625zm-2.1875 3.265625q0 0.9375 0.640625 1.59375q0.640625 0.640625 1.546875 0.65625q1.015625 0 1.625 -0.65625q0.609375 -0.65625 0.609375 -1.609375q0 -1.03125 -0.625 -1.65625q-0.609375 -0.625 -1.609375 -0.640625q-0.953125 0 -1.578125 0.671875q-0.609375 0.65625 -0.609375 1.640625zm10.221558 -3.265625q1.390625 0 2.15625 0.875q0.78125 0.859375 0.796875 2.46875l0 0.25l-5.03125 0q0.078125 0.859375 0.640625 1.421875q0.578125 0.5625 1.40625 0.578125q1.265625 0 1.96875 -0.953125l0.796875 0.609375q-0.5 0.640625 -1.171875 0.96875q-0.65625 0.328125 -1.59375 0.328125q-1.421875 0 -2.296875 -0.921875q-0.859375 -0.921875 -0.875 -2.359375q0 -1.40625 0.890625 -2.328125q0.890625 -0.921875 2.3125 -0.9375zm1.84375 2.71875q-0.046875 -0.8125 -0.53125 -1.28125q-0.484375 -0.484375 -1.375 -0.484375q-0.796875 0 -1.34375 0.453125q-0.546875 0.453125 -0.671875 1.3125l3.921875 0zm8.94165 -6.40625l0 10.078125l-1.03125 0l0 -1.109375l-0.03125 0q-0.3125 0.609375 -0.96875 0.9375q-0.65625 0.328125 -1.421875 0.328125q-1.328125 0 -2.21875 -0.9375q-0.875 -0.9375 -0.90625 -2.34375q0 -1.421875 0.90625 -2.34375q0.921875 -0.921875 2.375 -0.921875q1.34375 0 2.234375 1.0625l0.03125 0l0 -4.75l1.03125 0zm-5.453125 6.953125q0 1.03125 0.609375 1.671875q0.625 0.640625 1.59375 0.65625q0.984375 0 1.578125 -0.640625q0.609375 -0.640625 0.640625 -1.6875q0 -1.0 -0.625 -1.65625q-0.609375 -0.65625 -1.609375 -0.65625q-0.953125 0 -1.5625 0.65625q-0.609375 0.640625 -0.625 1.65625zm13.848694 -6.3125q1.84375 0 2.71875 0.625q0.875 0.609375 0.875 1.96875q0 1.0 -0.59375 1.640625q-0.59375 0.640625 -1.765625 0.859375l2.671875 4.34375l-1.359375 0l-2.5625 -4.234375l-1.4375 0l0 4.234375l-1.125 0l0 -9.4375l2.578125 0zm-0.125 4.15625q1.3125 0 1.90625 -0.359375q0.609375 -0.375 0.609375 -1.203125q0 -0.796875 -0.546875 -1.171875q-0.53125 -0.375 -1.65625 -0.375l-1.640625 0l0 3.109375l1.328125 0zm8.346558 -1.109375q1.390625 0 2.15625 0.875q0.78125 0.859375 0.796875 2.46875l0 0.25l-5.03125 0q0.078125 0.859375 0.640625 1.421875q0.578125 0.5625 1.40625 0.578125q1.265625 0 1.96875 -0.953125l0.796875 0.609375q-0.5 0.640625 -1.171875 0.96875q-0.65625 0.328125 -1.59375 0.328125q-1.421875 0 -2.296875 -0.921875q-0.859375 -0.921875 -0.875 -2.359375q0 -1.40625 0.890625 -2.328125q0.890625 -0.921875 2.3125 -0.9375zm1.84375 2.71875q-0.046875 -0.8125 -0.53125 -1.28125q-0.484375 -0.484375 -1.375 -0.484375q-0.796875 0 -1.34375 0.453125q-0.546875 0.453125 -0.671875 1.3125l3.921875 0zm4.6291504 -2.71875q1.5 0 2.125 1.125l-0.875 0.578125q-0.453125 -0.75 -1.3125 -0.75q-0.515625 0 -0.875 0.25q-0.359375 0.234375 -0.359375 0.609375q0 0.640625 1.5625 0.90625q1.125 0.203125 1.59375 0.65625q0.46875 0.453125 0.46875 1.21875q0 0.921875 -0.6875 1.4375q-0.671875 0.515625 -1.8125 0.515625q-0.875 0 -1.453125 -0.28125q-0.5625 -0.28125 -0.96875 -0.875l0.828125 -0.640625q0.375 0.46875 0.75 0.65625q0.375 0.1875 0.84375 0.1875q0.59375 0 0.984375 -0.25q0.390625 -0.265625 0.390625 -0.71875q0 -0.453125 -0.40625 -0.671875q-0.40625 -0.234375 -1.359375 -0.421875q-0.921875 -0.1875 -1.34375 -0.59375q-0.421875 -0.40625 -0.421875 -1.109375q0 -0.78125 0.640625 -1.296875q0.65625 -0.53125 1.6875 -0.53125zm6.7402954 0q1.453125 0 2.375 0.90625q0.921875 0.890625 0.96875 2.359375q0 1.4375 -0.9375 2.359375q-0.9375 0.90625 -2.40625 0.921875q-1.453125 0 -2.375 -0.921875q-0.921875 -0.921875 -0.953125 -2.359375q0 -1.4375 0.9375 -2.34375q0.9375 -0.921875 2.390625 -0.921875zm-2.203125 3.265625q0 1.03125 0.609375 1.671875q0.625 0.625 1.59375 0.65625q0.984375 0 1.59375 -0.640625q0.609375 -0.65625 0.625 -1.6875q0 -1.0 -0.625 -1.65625q-0.609375 -0.65625 -1.609375 -0.65625q-0.953125 0 -1.5625 0.65625q-0.609375 0.640625 -0.625 1.65625zm8.19812 -3.109375l0 3.78125q0 0.71875 0.328125 1.1875q0.34375 0.453125 1.09375 0.46875q0.953125 0 1.4375 -0.640625q0.5 -0.640625 0.5 -1.703125l0 -3.09375l1.03125 0l0 4.84375q0.015625 0.375 0.0625 1.390625l-1.0 0q0 -0.640625 -0.015625 -1.03125l-0.03125 0q-0.234375 0.53125 -0.8125 0.859375q-0.5625 0.328125 -1.28125 0.328125q-1.140625 -0.015625 -1.75 -0.6875q-0.609375 -0.671875 -0.609375 -1.796875l0 -3.90625l1.046875 0zm9.426025 -0.15625q0.25 0 0.4375 0.0625l-0.078125 1.046875q-0.28125 -0.078125 -0.546875 -0.078125q-0.90625 0 -1.375 0.59375q-0.453125 0.59375 -0.453125 1.671875l0 3.09375l-1.046875 0l0 -4.84375q0 -0.1875 -0.046875 -1.390625l0.984375 0q0.03125 0.9375 0.03125 1.015625l0.015625 0q0.25 -0.53125 0.8125 -0.84375q0.578125 -0.328125 1.265625 -0.328125zm4.263977 0q1.484375 0 2.390625 0.984375l-0.828125 0.734375q-0.625 -0.765625 -1.5625 -0.765625q-0.984375 0 -1.546875 0.640625q-0.5625 0.625 -0.5625 1.671875q0 1.0 0.59375 1.65625q0.609375 0.65625 1.515625 0.671875q1.015625 0 1.578125 -0.78125l0.765625 0.734375q-0.859375 0.984375 -2.34375 1.0q-1.4375 -0.015625 -2.328125 -0.90625q-0.875 -0.890625 -0.90625 -2.375q0.015625 -1.484375 0.9375 -2.375q0.921875 -0.890625 2.296875 -0.890625zm6.3928833 0q1.390625 0 2.15625 0.875q0.78125 0.859375 0.796875 2.46875l0 0.25l-5.03125 0q0.078125 0.859375 0.640625 1.421875q0.578125 0.5625 1.40625 0.578125q1.265625 0 1.96875 -0.953125l0.796875 0.609375q-0.5 0.640625 -1.171875 0.96875q-0.65625 0.328125 -1.59375 0.328125q-1.421875 0 -2.296875 -0.921875q-0.859375 -0.921875 -0.875 -2.359375q0 -1.40625 0.890625 -2.328125q0.890625 -0.921875 2.3125 -0.9375zm1.84375 2.71875q-0.046875 -0.8125 -0.53125 -1.28125q-0.484375 -0.484375 -1.375 -0.484375q-0.796875 0 -1.34375 0.453125q-0.546875 0.453125 -0.671875 1.3125l3.921875 0z" fill-rule="nonzero"/><path fill="#000000" fill-opacity="0.0" d="m807.49603 18.871391l105.44885 0l0 35.559055l-105.44885 0z" fill-rule="evenodd"/><path fill="#000000" d="m839.9263 31.23389l0 8.390625l4.3125 0l0 1.046875l-5.4375 0l0 -9.4375l1.125 0zm8.195251 3.046875q1.390625 0 2.15625 0.875q0.78125 0.859375 0.796875 2.46875l0 0.25l-5.03125 0q0.078125 0.859375 0.640625 1.421875q0.578125 0.5625 1.40625 0.578125q1.265625 0 1.96875 -0.953125l0.796875 0.609375q-0.5 0.640625 -1.171875 0.96875q-0.65625 0.328125 -1.59375 0.328125q-1.421875 0 -2.296875 -0.921875q-0.859375 -0.921875 -0.875 -2.359375q0 -1.40625 0.890625 -2.328125q0.890625 -0.921875 2.3125 -0.9375zm1.84375 2.71875q-0.046875 -0.8125 -0.53125 -1.28125q-0.484375 -0.484375 -1.375 -0.484375q-0.796875 0 -1.34375 0.453125q-0.546875 0.453125 -0.671875 1.3125l3.921875 0zm5.6760864 -2.71875q0.71875 0 1.3125 0.328125q0.609375 0.328125 0.890625 0.890625l0.03125 0l0 -1.0625l1.03125 0l0 6.015625q0 1.609375 -0.859375 2.5q-0.84375 0.890625 -2.53125 0.921875q-0.921875 0 -1.671875 -0.265625q-0.734375 -0.265625 -1.390625 -0.921875l0.75 -0.859375q1.0 1.078125 2.3125 1.078125q2.359375 0 2.359375 -2.5l0 -0.8125l-0.03125 0q-0.34375 0.5625 -0.953125 0.859375q-0.609375 0.296875 -1.25 0.296875q-1.4375 0 -2.359375 -0.890625q-0.921875 -0.90625 -0.953125 -2.3125q0 -1.5 0.90625 -2.375q0.90625 -0.890625 2.40625 -0.890625zm-2.1875 3.265625q0 0.9375 0.640625 1.59375q0.640625 0.640625 1.546875 0.65625q1.015625 0 1.625 -0.65625q0.609375 -0.65625 0.609375 -1.609375q0 -1.03125 -0.625 -1.65625q-0.609375 -0.625 -1.609375 -0.640625q-0.953125 0 -1.578125 0.671875q-0.609375 0.65625 -0.609375 1.640625zm10.221558 -3.265625q1.390625 0 2.15625 0.875q0.78125 0.859375 0.796875 2.46875l0 0.25l-5.03125 0q0.078125 0.859375 0.640625 1.421875q0.578125 0.5625 1.40625 0.578125q1.265625 0 1.96875 -0.953125l0.796875 0.609375q-0.5 0.640625 -1.171875 0.96875q-0.65625 0.328125 -1.59375 0.328125q-1.421875 0 -2.296875 -0.921875q-0.859375 -0.921875 -0.875 -2.359375q0 -1.40625 0.890625 -2.328125q0.890625 -0.921875 2.3125 -0.9375zm1.84375 2.71875q-0.046875 -0.8125 -0.53125 -1.28125q-0.484375 -0.484375 -1.375 -0.484375q-0.796875 0 -1.34375 0.453125q-0.546875 0.453125 -0.671875 1.3125l3.921875 0zm5.7854004 -2.71875q1.171875 0 1.765625 0.6875q0.609375 0.671875 0.609375 1.796875l0 3.90625l-1.03125 0l0 -3.78125q0 -0.71875 -0.34375 -1.171875q-0.328125 -0.46875 -1.09375 -0.484375q-0.953125 0 -1.4375 0.640625q-0.484375 0.625 -0.484375 1.75l0 3.046875l-1.046875 0l0 -4.84375q0 -0.078125 -0.046875 -1.390625l0.984375 0q0.03125 0.9375 0.03125 1.015625l0.015625 0q0.25 -0.53125 0.8125 -0.84375q0.578125 -0.328125 1.265625 -0.328125zm10.56665 -3.6875l0 10.078125l-1.03125 0l0 -1.109375l-0.03125 0q-0.3125 0.609375 -0.96875 0.9375q-0.65625 0.328125 -1.421875 0.328125q-1.328125 0 -2.21875 -0.9375q-0.875 -0.9375 -0.90625 -2.34375q0 -1.421875 0.90625 -2.34375q0.921875 -0.921875 2.375 -0.921875q1.34375 0 2.234375 1.0625l0.03125 0l0 -4.75l1.03125 0zm-5.453125 6.953125q0 1.03125 0.609375 1.671875q0.625 0.640625 1.59375 0.65625q0.984375 0 1.578125 -0.640625q0.609375 -0.640625 0.640625 -1.6875q0 -1.0 -0.625 -1.65625q-0.609375 -0.65625 -1.609375 -0.65625q-0.953125 0 -1.5625 0.65625q-0.609375 0.640625 -0.625 1.65625z" fill-rule="nonzero"/><path fill="#183d54" d="m780.73883 99.81376l0 0c0 -2.9745712 2.411377 -5.3859406 5.3859253 -5.3859406l148.18878 0c1.4284668 0 2.7984009 0.5674515 3.8084106 1.577507c1.0100708 1.0100555 1.5775146 2.3799896 1.5775146 3.8084335l0 21.54309c0 2.9745712 -2.411377 5.385933 -5.3859253 5.385933l-148.18878 0l0 0c-2.9745483 0 -5.3859253 -2.4113617 -5.3859253 -5.385933z" fill-rule="evenodd"/><path stroke="#000000" stroke-width="1.0" stroke-linejoin="round" stroke-linecap="butt" d="m780.73883 99.81376l0 0c0 -2.9745712 2.411377 -5.3859406 5.3859253 -5.3859406l148.18878 0c1.4284668 0 2.7984009 0.5674515 3.8084106 1.577507c1.0100708 1.0100555 1.5775146 2.3799896 1.5775146 3.8084335l0 21.54309c0 2.9745712 -2.411377 5.385933 -5.3859253 5.385933l-148.18878 0l0 0c-2.9745483 0 -5.3859253 -2.4113617 -5.3859253 -5.385933z" fill-rule="evenodd"/><path fill="#ffffff" d="m803.5189 105.713425q1.109375 0 1.953125 0.390625q0.859375 0.390625 1.375 1.078125l-0.96875 0.71875q-0.421875 -0.578125 -1.046875 -0.859375q-0.625 -0.296875 -1.3125 -0.296875q-1.5 0 -2.53125 1.15625q-1.03125 1.140625 -1.0625 2.765625q0 1.6875 1.015625 2.796875q1.03125 1.109375 2.578125 1.125q1.703125 0 2.734375 -1.328125l0.84375 0.71875q-1.25 1.640625 -3.578125 1.640625q-2.0625 0 -3.421875 -1.421875q-1.34375 -1.421875 -1.375 -3.53125q0 -2.109375 1.359375 -3.515625q1.375 -1.421875 3.4375 -1.4375zm7.9142456 3.28125q1.453125 0 2.375 0.90625q0.921875 0.890625 0.96875 2.359375q0 1.4375 -0.9375 2.359375q-0.9375 0.90625 -2.40625 0.921875q-1.453125 0 -2.375 -0.921875q-0.921875 -0.921875 -0.953125 -2.359375q0 -1.4375 0.9375 -2.34375q0.9375 -0.921875 2.390625 -0.921875zm-2.203125 3.265625q0 1.03125 0.609375 1.671875q0.625 0.625 1.59375 0.65625q0.984375 0 1.59375 -0.640625q0.609375 -0.65625 0.625 -1.6875q0 -1.0 -0.625 -1.65625q-0.609375 -0.65625 -1.609375 -0.65625q-0.953125 0 -1.5625 0.65625q-0.609375 0.640625 -0.625 1.65625zm10.22937 -3.265625q1.421875 0 1.96875 1.171875q0.359375 -0.609375 0.828125 -0.890625q0.46875 -0.28125 1.15625 -0.28125q1.203125 0 1.78125 0.640625q0.578125 0.625 0.578125 1.890625l0 3.859375l-1.046875 0l0 -3.765625q0 -1.640625 -1.515625 -1.671875q-0.703125 0 -1.15625 0.53125q-0.453125 0.515625 -0.453125 1.265625l0 3.640625l-1.046875 0l0 -3.609375q0 -0.921875 -0.265625 -1.375q-0.265625 -0.453125 -0.953125 -0.453125q-0.9375 0 -1.421875 0.640625q-0.484375 0.625 -0.484375 1.75l0 3.046875l-1.046875 0l0 -4.84375q-0.015625 -0.46875 -0.046875 -1.390625l0.984375 0q0.03125 0.921875 0.03125 1.015625l0.015625 0q0.25 -0.53125 0.8125 -0.84375q0.5625 -0.328125 1.28125 -0.328125zm11.527344 0q1.484375 0 2.375 0.9375q0.890625 0.921875 0.90625 2.328125q0 1.40625 -0.90625 2.34375q-0.90625 0.921875 -2.21875 0.9375q-0.796875 0 -1.4375 -0.34375q-0.640625 -0.34375 -0.953125 -0.921875l-0.03125 0l0 4.140625l-1.03125 0l0 -9.265625l1.03125 0l0 0.90625l0.03125 0q0.921875 -1.0625 2.234375 -1.0625zm-2.265625 3.265625q0 1.03125 0.625 1.671875q0.625 0.625 1.59375 0.65625q0.96875 0 1.578125 -0.640625q0.625 -0.65625 0.625 -1.6875q0 -1.0 -0.625 -1.65625q-0.609375 -0.65625 -1.59375 -0.65625q-0.953125 0 -1.578125 0.65625q-0.609375 0.640625 -0.625 1.65625zm10.127869 -3.265625q1.453125 0 2.375 0.90625q0.921875 0.890625 0.96875 2.359375q0 1.4375 -0.9375 2.359375q-0.9375 0.90625 -2.40625 0.921875q-1.453125 0 -2.375 -0.921875q-0.921875 -0.921875 -0.953125 -2.359375q0 -1.4375 0.9375 -2.34375q0.9375 -0.921875 2.390625 -0.921875zm-2.203125 3.265625q0 1.03125 0.609375 1.671875q0.625 0.625 1.59375 0.65625q0.984375 0 1.59375 -0.640625q0.609375 -0.65625 0.625 -1.6875q0 -1.0 -0.625 -1.65625q-0.609375 -0.65625 -1.609375 -0.65625q-0.953125 0 -1.5625 0.65625q-0.609375 0.640625 -0.625 1.65625zm9.057495 -3.265625q1.5 0 2.125 1.125l-0.875 0.578125q-0.453125 -0.75 -1.3125 -0.75q-0.515625 0 -0.875 0.25q-0.359375 0.234375 -0.359375 0.609375q0 0.640625 1.5625 0.90625q1.125 0.203125 1.59375 0.65625q0.46875 0.453125 0.46875 1.21875q0 0.921875 -0.6875 1.4375q-0.671875 0.515625 -1.8125 0.515625q-0.875 0 -1.453125 -0.28125q-0.5625 -0.28125 -0.96875 -0.875l0.828125 -0.640625q0.375 0.46875 0.75 0.65625q0.375 0.1875 0.84375 0.1875q0.59375 0 0.984375 -0.25q0.390625 -0.265625 0.390625 -0.71875q0 -0.453125 -0.40625 -0.671875q-0.40625 -0.234375 -1.359375 -0.421875q-0.921875 -0.1875 -1.34375 -0.59375q-0.421875 -0.40625 -0.421875 -1.109375q0 -0.78125 0.640625 -1.296875q0.65625 -0.53125 1.6875 -0.53125zm4.3808594 -3.046875q0.3125 0 0.53125 0.21875q0.234375 0.21875 0.234375 0.546875q0 0.328125 -0.21875 0.546875q-0.203125 0.203125 -0.546875 0.203125q-0.328125 0 -0.546875 -0.203125q-0.203125 -0.21875 -0.203125 -0.546875q0 -0.328125 0.21875 -0.546875q0.234375 -0.21875 0.53125 -0.21875zm0.53125 3.203125l0 6.234375l-1.046875 0l0 -6.234375l1.046875 0zm3.6362305 -1.78125l0 1.78125l1.828125 0l0 0.875l-1.828125 0l0 3.328125q0 0.75 0.234375 1.0q0.234375 0.234375 0.6875 0.234375q0.53125 0 0.921875 -0.21875l0.046875 0.953125q-0.53125 0.21875 -1.21875 0.21875q-0.953125 0 -1.34375 -0.46875q-0.375 -0.46875 -0.375 -1.546875l0 -3.5l-1.359375 0l0 -0.875l1.359375 0l0 -1.78125l1.046875 0zm5.9571533 1.625q1.390625 0 2.15625 0.875q0.78125 0.859375 0.796875 2.46875l0 0.25l-5.03125 0q0.078125 0.859375 0.640625 1.421875q0.578125 0.5625 1.40625 0.578125q1.265625 0 1.96875 -0.953125l0.796875 0.609375q-0.5 0.640625 -1.171875 0.96875q-0.65625 0.328125 -1.59375 0.328125q-1.421875 0 -2.296875 -0.921875q-0.859375 -0.921875 -0.875 -2.359375q0 -1.40625 0.890625 -2.328125q0.890625 -0.921875 2.3125 -0.9375zm1.84375 2.71875q-0.046875 -0.8125 -0.53125 -1.28125q-0.484375 -0.484375 -1.375 -0.484375q-0.796875 0 -1.34375 0.453125q-0.546875 0.453125 -0.671875 1.3125l3.921875 0zm9.193726 -5.765625q1.84375 0 2.71875 0.625q0.875 0.609375 0.875 1.96875q0 1.0 -0.59375 1.640625q-0.59375 0.640625 -1.765625 0.859375l2.671875 4.34375l-1.359375 0l-2.5625 -4.234375l-1.4375 0l0 4.234375l-1.125 0l0 -9.4375l2.578125 0zm-0.125 4.15625q1.3125 0 1.90625 -0.359375q0.609375 -0.375 0.609375 -1.203125q0 -0.796875 -0.546875 -1.171875q-0.53125 -0.375 -1.65625 -0.375l-1.640625 0l0 3.109375l1.328125 0zm8.346558 -1.109375q1.390625 0 2.15625 0.875q0.78125 0.859375 0.796875 2.46875l0 0.25l-5.03125 0q0.078125 0.859375 0.640625 1.421875q0.578125 0.5625 1.40625 0.578125q1.265625 0 1.96875 -0.953125l0.796875 0.609375q-0.5 0.640625 -1.171875 0.96875q-0.65625 0.328125 -1.59375 0.328125q-1.421875 0 -2.296875 -0.921875q-0.859375 -0.921875 -0.875 -2.359375q0 -1.40625 0.890625 -2.328125q0.890625 -0.921875 2.3125 -0.9375zm1.84375 2.71875q-0.046875 -0.8125 -0.53125 -1.28125q-0.484375 -0.484375 -1.375 -0.484375q-0.796875 0 -1.34375 0.453125q-0.546875 0.453125 -0.671875 1.3125l3.921875 0zm4.6291504 -2.71875q1.5 0 2.125 1.125l-0.875 0.578125q-0.453125 -0.75 -1.3125 -0.75q-0.515625 0 -0.875 0.25q-0.359375 0.234375 -0.359375 0.609375q0 0.640625 1.5625 0.90625q1.125 0.203125 1.59375 0.65625q0.46875 0.453125 0.46875 1.21875q0 0.921875 -0.6875 1.4375q-0.671875 0.515625 -1.8125 0.515625q-0.875 0 -1.453125 -0.28125q-0.5625 -0.28125 -0.96875 -0.875l0.828125 -0.640625q0.375 0.46875 0.75 0.65625q0.375 0.1875 0.84375 0.1875q0.59375 0 0.984375 -0.25q0.390625 -0.265625 0.390625 -0.71875q0 -0.453125 -0.40625 -0.671875q-0.40625 -0.234375 -1.359375 -0.421875q-0.921875 -0.1875 -1.34375 -0.59375q-0.421875 -0.40625 -0.421875 -1.109375q0 -0.78125 0.640625 -1.296875q0.65625 -0.53125 1.6875 -0.53125zm6.7402954 0q1.453125 0 2.375 0.90625q0.921875 0.890625 0.96875 2.359375q0 1.4375 -0.9375 2.359375q-0.9375 0.90625 -2.40625 0.921875q-1.453125 0 -2.375 -0.921875q-0.921875 -0.921875 -0.953125 -2.359375q0 -1.4375 0.9375 -2.34375q0.9375 -0.921875 2.390625 -0.921875zm-2.203125 3.265625q0 1.03125 0.609375 1.671875q0.625 0.625 1.59375 0.65625q0.984375 0 1.59375 -0.640625q0.609375 -0.65625 0.625 -1.6875q0 -1.0 -0.625 -1.65625q-0.609375 -0.65625 -1.609375 -0.65625q-0.953125 0 -1.5625 0.65625q-0.609375 0.640625 -0.625 1.65625zm8.19812 -3.109375l0 3.78125q0 0.71875 0.328125 1.1875q0.34375 0.453125 1.09375 0.46875q0.953125 0 1.4375 -0.640625q0.5 -0.640625 0.5 -1.703125l0 -3.09375l1.03125 0l0 4.84375q0.015625 0.375 0.0625 1.390625l-1.0 0q0 -0.640625 -0.015625 -1.03125l-0.03125 0q-0.234375 0.53125 -0.8125 0.859375q-0.5625 0.328125 -1.28125 0.328125q-1.140625 -0.015625 -1.75 -0.6875q-0.609375 -0.671875 -0.609375 -1.796875l0 -3.90625l1.046875 0zm9.426025 -0.15625q0.25 0 0.4375 0.0625l-0.078125 1.046875q-0.28125 -0.078125 -0.546875 -0.078125q-0.90625 0 -1.375 0.59375q-0.453125 0.59375 -0.453125 1.671875l0 3.09375l-1.046875 0l0 -4.84375q0 -0.1875 -0.046875 -1.390625l0.984375 0q0.03125 0.9375 0.03125 1.015625l0.015625 0q0.25 -0.53125 0.8125 -0.84375q0.578125 -0.328125 1.265625 -0.328125zm4.263977 0q1.484375 0 2.390625 0.984375l-0.828125 0.734375q-0.625 -0.765625 -1.5625 -0.765625q-0.984375 0 -1.546875 0.640625q-0.5625 0.625 -0.5625 1.671875q0 1.0 0.59375 1.65625q0.609375 0.65625 1.515625 0.671875q1.015625 0 1.578125 -0.78125l0.765625 0.734375q-0.859375 0.984375 -2.34375 1.0q-1.4375 -0.015625 -2.328125 -0.90625q-0.875 -0.890625 -0.90625 -2.375q0.015625 -1.484375 0.9375 -2.375q0.921875 -0.890625 2.296875 -0.890625zm6.3928833 0q1.390625 0 2.15625 0.875q0.78125 0.859375 0.796875 2.46875l0 0.25l-5.03125 0q0.078125 0.859375 0.640625 1.421875q0.578125 0.5625 1.40625 0.578125q1.265625 0 1.96875 -0.953125l0.796875 0.609375q-0.5 0.640625 -1.171875 0.96875q-0.65625 0.328125 -1.59375 0.328125q-1.421875 0 -2.296875 -0.921875q-0.859375 -0.921875 -0.875 -2.359375q0 -1.40625 0.890625 -2.328125q0.890625 -0.921875 2.3125 -0.9375zm1.84375 2.71875q-0.046875 -0.8125 -0.53125 -1.28125q-0.484375 -0.484375 -1.375 -0.484375q-0.796875 0 -1.34375 0.453125q-0.546875 0.453125 -0.671875 1.3125l3.921875 0z" fill-rule="nonzero"/><path fill="#000000" d="m660.89764 272.73645l0 0c0 -5.952057 4.8250732 -10.77713 10.7771 -10.77713l216.08356 0c2.8582764 0 5.5994873 1.135437 7.6206055 3.1565552c2.0210571 2.0210876 3.1565552 4.7622986 3.1565552 7.620575l0 43.107178c0 5.9520264 -4.8251343 10.7771 -10.777161 10.7771l-216.08356 0c-5.9520264 0 -10.7771 -4.8250732 -10.7771 -10.7771z" fill-rule="evenodd"/><path fill="#96ffe0" d="m733.48206 286.67627l0 1.65625l-7.5625 0l0 4.984375l7.03125 0l0 1.671875l-7.03125 0l0 6.78125l-1.796875 0l0 -15.09375l9.359375 0zm3.1866455 0q0.484375 0 0.84375 0.359375q0.375 0.34375 0.375 0.84375q0 0.546875 -0.34375 0.890625q-0.34375 0.328125 -0.875 0.328125q-0.53125 0 -0.875 -0.328125q-0.34375 -0.34375 -0.34375 -0.890625q0 -0.5 0.359375 -0.84375q0.359375 -0.359375 0.859375 -0.359375zm0.828125 5.109375l0 9.984375l-1.65625 0l0 -9.984375l1.65625 0zm8.212524 -0.25q0.390625 0 0.6875 0.109375l-0.109375 1.671875q-0.46875 -0.125 -0.90625 -0.125q-1.4375 0 -2.1875 0.953125q-0.734375 0.953125 -0.734375 2.671875l0 4.953125l-1.65625 0l0 -7.765625q0 -0.296875 -0.078125 -2.21875l1.578125 0q0.03125 1.5 0.03125 1.640625l0.046875 0q0.40625 -0.84375 1.3125 -1.359375q0.90625 -0.53125 2.015625 -0.53125zm6.76416 0q2.21875 0 3.453125 1.40625q1.25 1.390625 1.28125 3.9375l0 0.40625l-8.0625 0q0.125 1.390625 1.03125 2.296875q0.921875 0.890625 2.25 0.90625q2.03125 0 3.15625 -1.515625l1.265625 0.984375q-0.796875 1.015625 -1.859375 1.546875q-1.0625 0.515625 -2.5625 0.515625q-2.28125 0 -3.671875 -1.46875q-1.375 -1.484375 -1.40625 -3.765625q0 -2.265625 1.421875 -3.734375q1.421875 -1.46875 3.703125 -1.515625zm2.9375 4.34375q-0.0625 -1.296875 -0.84375 -2.046875q-0.78125 -0.765625 -2.1875 -0.765625q-1.28125 0 -2.15625 0.734375q-0.875 0.71875 -1.078125 2.078125l6.265625 0zm4.9365845 -4.09375l2.28125 7.6875l0.03125 0l2.578125 -7.6875l1.75 0l2.625 7.6875l0.046875 0l2.265625 -7.6875l1.78125 0l-3.21875 9.984375l-1.640625 0l-2.828125 -7.671875l-0.046875 0l-2.515625 7.671875l-1.703125 0l-3.25 -9.984375l1.84375 0zm19.08545 -0.25q2.171875 0 3.15625 1.03125q1.0 1.015625 1.015625 3.078125l0 4.484375q0 0.640625 0.15625 1.640625l-1.609375 0q-0.09375 -0.1875 -0.09375 -1.5l-0.046875 0q-1.125 1.71875 -3.28125 1.75q-1.640625 0 -2.6875 -0.8125q-1.03125 -0.828125 -1.03125 -2.140625q0 -1.8125 1.484375 -2.65625q1.5 -0.84375 4.6875 -0.84375l0.765625 0l0 -0.28125q0 -2.171875 -2.484375 -2.21875q-1.78125 0 -2.953125 1.09375l-1.046875 -1.09375q1.53125 -1.484375 3.96875 -1.53125zm-2.625 7.359375q0 1.6875 2.1875 1.71875q1.3125 0 2.125 -0.828125q0.828125 -0.828125 0.828125 -2.4375l0 -0.375l-1.84375 0q-1.46875 0 -2.375 0.46875q-0.90625 0.46875 -0.921875 1.453125zm11.663086 -13.25l0 16.125l-1.65625 0l0 -16.125l1.65625 0zm5.1187744 0l0 16.125l-1.65625 0l0 -16.125l1.65625 0zm7.7281494 1.03125q2.953125 0 4.34375 0.984375q1.40625 0.96875 1.40625 3.140625q0 1.609375 -0.953125 2.640625q-0.9375 1.03125 -2.8125 1.375l4.28125 6.953125l-2.203125 0l-4.09375 -6.78125l-2.296875 0l0 6.78125l-1.796875 0l0 -15.09375l4.125 0zm-0.203125 6.640625q2.109375 0 3.0625 -0.578125q0.96875 -0.59375 0.96875 -1.90625q0 -1.28125 -0.859375 -1.890625q-0.859375 -0.609375 -2.671875 -0.609375l-2.625 0l0 4.984375l2.125 0zm10.469055 -1.53125l0 6.0625q0 1.15625 0.546875 1.890625q0.546875 0.734375 1.75 0.75q1.53125 0 2.296875 -1.015625q0.78125 -1.03125 0.78125 -2.734375l0 -4.953125l1.671875 0l0 7.765625q0.015625 0.59375 0.078125 2.21875l-1.578125 0q-0.015625 -1.03125 -0.03125 -1.640625l-0.046875 0q-0.390625 0.828125 -1.296875 1.359375q-0.90625 0.53125 -2.046875 0.53125q-1.84375 -0.015625 -2.8125 -1.09375q-0.96875 -1.078125 -0.96875 -2.890625l0 -6.25l1.65625 0zm12.0147705 -6.140625l0 16.125l-1.65625 0l0 -16.125l1.65625 0zm7.8531494 5.890625q2.21875 0 3.453125 1.40625q1.25 1.390625 1.28125 3.9375l0 0.40625l-8.0625 0q0.125 1.390625 1.03125 2.296875q0.921875 0.890625 2.25 0.90625q2.03125 0 3.15625 -1.515625l1.265625 0.984375q-0.796875 1.015625 -1.859375 1.546875q-1.0625 0.515625 -2.5625 0.515625q-2.28125 0 -3.671875 -1.46875q-1.375 -1.484375 -1.40625 -3.765625q0 -2.265625 1.421875 -3.734375q1.421875 -1.46875 3.703125 -1.515625zm2.9375 4.34375q-0.0625 -1.296875 -0.84375 -2.046875q-0.78125 -0.765625 -2.1875 -0.765625q-1.28125 0 -2.15625 0.734375q-0.875 0.71875 -1.078125 2.078125l6.265625 0z" fill-rule="nonzero"/><path fill="#000000" d="m621.9265 225.84142l0 0c0 -5.9520264 4.8250732 -10.777115 10.7771 -10.777115l216.08356 0c2.8582764 0 5.5994873 1.1354523 7.6206055 3.1565552c2.0210571 2.021103 3.1565552 4.7622986 3.1565552 7.6205597l0 43.107193c0 5.9520264 -4.8251343 10.7771 -10.777161 10.7771l-216.08356 0c-5.9520264 0 -10.7771 -4.8250732 -10.7771 -10.7771z" fill-rule="evenodd"/><path stroke="#ffffff" stroke-width="1.0" stroke-linejoin="round" stroke-linecap="butt" d="m621.9265 225.84142l0 0c0 -5.9520264 4.8250732 -10.777115 10.7771 -10.777115l216.08356 0c2.8582764 0 5.5994873 1.1354523 7.6206055 3.1565552c2.0210571 2.021103 3.1565552 4.7622986 3.1565552 7.6205597l0 43.107193c0 5.9520264 -4.8251343 10.7771 -10.777161 10.7771l-216.08356 0c-5.9520264 0 -10.7771 -4.8250732 -10.7771 -10.7771z" fill-rule="evenodd"/><path fill="#96ffe0" d="m660.8995 239.39064q1.765625 0 3.125 0.640625q1.375 0.625 2.203125 1.734375l-1.5625 1.125q-0.6875 -0.921875 -1.6875 -1.375q-1.0 -0.46875 -2.078125 -0.46875q-2.421875 0 -4.078125 1.84375q-1.640625 1.828125 -1.6875 4.4375q0 2.6875 1.640625 4.46875q1.640625 1.78125 4.125 1.796875q2.703125 0 4.359375 -2.109375l1.34375 1.125q-1.984375 2.65625 -5.703125 2.65625q-3.3125 0 -5.484375 -2.28125q-2.15625 -2.296875 -2.203125 -5.65625q0 -3.375 2.1875 -5.625q2.1875 -2.265625 5.5 -2.3125zm9.718201 -0.640625l0 16.125l-1.65625 0l0 -16.125l1.65625 0zm8.056274 5.890625q2.328125 0 3.796875 1.4375q1.484375 1.4375 1.546875 3.8125q0 2.28125 -1.5 3.75q-1.484375 1.453125 -3.84375 1.484375q-2.34375 0 -3.8125 -1.46875q-1.46875 -1.484375 -1.515625 -3.765625q0 -2.3125 1.484375 -3.765625q1.5 -1.46875 3.84375 -1.484375zm-3.53125 5.25q0 1.640625 0.984375 2.65625q1.0 1.0 2.546875 1.046875q1.5625 0 2.546875 -1.03125q0.984375 -1.03125 1.0 -2.671875q0 -1.625 -1.0 -2.671875q-0.984375 -1.046875 -2.5625 -1.046875q-1.53125 0 -2.515625 1.03125q-0.984375 1.03125 -1.0 2.6875zm13.106445 -5.0l0 6.0625q0 1.15625 0.546875 1.890625q0.546875 0.734375 1.75 0.75q1.53125 0 2.296875 -1.015625q0.78125 -1.03125 0.78125 -2.734375l0 -4.953125l1.671875 0l0 7.765625q0.015625 0.59375 0.078125 2.21875l-1.578125 0q-0.015625 -1.03125 -0.03125 -1.640625l-0.046875 0q-0.390625 0.828125 -1.296875 1.359375q-0.90625 0.53125 -2.046875 0.53125q-1.84375 -0.015625 -2.8125 -1.09375q-0.96875 -1.078125 -0.96875 -2.890625l0 -6.25l1.65625 0zm20.155396 -6.140625l0 16.125l-1.65625 0l0 -1.765625l-0.046875 0q-0.5 0.953125 -1.546875 1.484375q-1.046875 0.53125 -2.28125 0.53125q-2.125 0 -3.546875 -1.5q-1.40625 -1.5 -1.453125 -3.734375q0 -2.28125 1.453125 -3.75q1.46875 -1.484375 3.796875 -1.5q2.15625 0 3.578125 1.703125l0.046875 0l0 -7.59375l1.65625 0zm-8.734375 11.140625q0 1.640625 0.984375 2.671875q1.0 1.015625 2.546875 1.03125q1.5625 0 2.53125 -1.015625q0.96875 -1.03125 1.015625 -2.6875q0 -1.625 -1.0 -2.671875q-0.984375 -1.046875 -2.5625 -1.046875q-1.53125 0 -2.5 1.03125q-0.96875 1.03125 -1.015625 2.6875zm16.531494 -10.5q2.75 0 4.21875 1.765625l-1.46875 1.28125q-0.859375 -1.34375 -2.75 -1.390625q-1.4375 0 -2.328125 0.6875q-0.890625 0.6875 -0.890625 1.859375q0 1.015625 0.671875 1.625q0.6875 0.59375 2.5625 1.171875q2.4375 0.703125 3.4375 1.71875q1.015625 1.0 1.015625 2.734375q0 2.0 -1.5 3.203125q-1.484375 1.1875 -3.8125 1.21875q-1.546875 0 -2.765625 -0.546875q-1.21875 -0.5625 -1.875 -1.546875l1.53125 -1.265625q0.5 0.8125 1.359375 1.25q0.875 0.4375 1.859375 0.4375q1.34375 0 2.3125 -0.75q0.96875 -0.765625 0.96875 -1.875q0 -1.0 -0.5625 -1.578125q-0.5625 -0.578125 -1.859375 -0.984375l-1.734375 -0.5625q-1.9375 -0.671875 -2.734375 -1.65625q-0.796875 -1.0 -0.796875 -2.453125q0 -1.90625 1.421875 -3.109375q1.4375 -1.21875 3.71875 -1.234375zm14.3272705 0q2.21875 0 3.96875 1.015625q1.75 1.015625 2.765625 2.78125q1.015625 1.765625 1.03125 3.953125q0 2.0 -1.046875 3.734375q-1.03125 1.734375 -2.625 2.421875l0 0.046875l4.671875 0l0 1.53125l-8.8125 0q-3.234375 0 -5.453125 -2.21875q-2.203125 -2.21875 -2.265625 -5.515625q0 -2.1875 1.015625 -3.953125q1.03125 -1.765625 2.828125 -2.78125q1.8125 -1.015625 3.921875 -1.015625zm-5.84375 7.75q0 2.546875 1.6875 4.296875q1.6875 1.734375 4.15625 1.78125q2.5 0 4.140625 -1.765625q1.65625 -1.765625 1.703125 -4.3125q0 -2.59375 -1.671875 -4.328125q-1.671875 -1.734375 -4.1875 -1.765625q-2.453125 0 -4.109375 1.734375q-1.65625 1.734375 -1.71875 4.359375zm18.53772 -7.359375l0 13.4375l6.90625 0l0 1.65625l-8.703125 0l0 -15.09375l1.796875 0zm10.664124 0l0 15.09375l-1.796875 0l0 -15.09375l1.796875 0zm8.357849 4.859375q1.875 0 2.828125 1.09375q0.96875 1.078125 0.96875 2.890625l0 6.25l-1.671875 0l0 -6.0625q0 -1.140625 -0.53125 -1.875q-0.53125 -0.75 -1.75 -0.765625q-1.53125 0 -2.3125 1.015625q-0.78125 1.015625 -0.78125 2.796875l0 4.890625l-1.65625 0l0 -7.765625q0 -0.109375 -0.078125 -2.21875l1.578125 0q0.03125 1.5 0.03125 1.640625l0.046875 0q0.40625 -0.84375 1.3125 -1.359375q0.90625 -0.53125 2.015625 -0.53125zm9.999084 0q2.390625 0.015625 3.390625 1.8125l-1.375 0.921875q-0.734375 -1.203125 -2.125 -1.203125q-0.828125 0 -1.390625 0.390625q-0.5625 0.375 -0.5625 1.0q0 1.0 2.5 1.453125q1.78125 0.3125 2.53125 1.046875q0.75 0.71875 0.75 1.9375q0 1.46875 -1.09375 2.296875q-1.09375 0.828125 -2.90625 0.828125q-1.40625 0 -2.3125 -0.4375q-0.90625 -0.453125 -1.5625 -1.40625l1.328125 -1.03125q0.609375 0.75 1.203125 1.046875q0.609375 0.296875 1.34375 0.296875q0.96875 0 1.578125 -0.40625q0.625 -0.421875 0.625 -1.125q0 -0.734375 -0.65625 -1.09375q-0.640625 -0.359375 -2.15625 -0.65625q-1.5 -0.328125 -2.171875 -0.953125q-0.671875 -0.640625 -0.671875 -1.78125q0 -1.25 1.03125 -2.078125q1.046875 -0.84375 2.703125 -0.859375zm8.554565 -2.578125l0 2.828125l2.9375 0l0 1.40625l-2.9375 0l0 5.34375q0 1.1875 0.375 1.578125q0.390625 0.375 1.125 0.375q0.828125 0 1.46875 -0.34375l0.0625 1.515625q-0.859375 0.359375 -1.9375 0.359375q-1.546875 0 -2.15625 -0.75q-0.59375 -0.765625 -0.59375 -2.484375l0 -5.59375l-2.1875 0l0 -1.40625l2.1875 0l0 -2.828125l1.65625 0zm8.835693 2.578125q2.171875 0 3.15625 1.03125q1.0 1.015625 1.015625 3.078125l0 4.484375q0 0.640625 0.15625 1.640625l-1.609375 0q-0.09375 -0.1875 -0.09375 -1.5l-0.046875 0q-1.125 1.71875 -3.28125 1.75q-1.640625 0 -2.6875 -0.8125q-1.03125 -0.828125 -1.03125 -2.140625q0 -1.8125 1.484375 -2.65625q1.5 -0.84375 4.6875 -0.84375l0.765625 0l0 -0.28125q0 -2.171875 -2.484375 -2.21875q-1.78125 0 -2.953125 1.09375l-1.046875 -1.09375q1.53125 -1.484375 3.96875 -1.53125zm-2.625 7.359375q0 1.6875 2.1875 1.71875q1.3125 0 2.125 -0.828125q0.828125 -0.828125 0.828125 -2.4375l0 -0.375l-1.84375 0q-1.46875 0 -2.375 0.46875q-0.90625 0.46875 -0.921875 1.453125zm14.756836 -7.359375q1.875 0 2.828125 1.09375q0.96875 1.078125 0.96875 2.890625l0 6.25l-1.671875 0l0 -6.0625q0 -1.140625 -0.53125 -1.875q-0.53125 -0.75 -1.75 -0.765625q-1.53125 0 -2.3125 1.015625q-0.78125 1.015625 -0.78125 2.796875l0 4.890625l-1.65625 0l0 -7.765625q0 -0.109375 -0.078125 -2.21875l1.578125 0q0.03125 1.5 0.03125 1.640625l0.046875 0q0.40625 -0.84375 1.3125 -1.359375q0.90625 -0.53125 2.015625 -0.53125zm11.561584 0q2.359375 0 3.8125 1.578125l-1.3125 1.171875q-1.015625 -1.21875 -2.53125 -1.21875q-1.546875 0 -2.453125 1.015625q-0.90625 1.015625 -0.90625 2.703125q0 1.59375 0.96875 2.640625q0.96875 1.046875 2.390625 1.0625q1.65625 0 2.546875 -1.234375l1.234375 1.171875q-1.390625 1.578125 -3.78125 1.59375q-2.28125 -0.015625 -3.703125 -1.4375q-1.40625 -1.4375 -1.453125 -3.796875q0.03125 -2.390625 1.5 -3.8125q1.46875 -1.4375 3.6875 -1.4375zm10.217712 0q2.21875 0 3.453125 1.40625q1.25 1.390625 1.28125 3.9375l0 0.40625l-8.0625 0q0.125 1.390625 1.03125 2.296875q0.921875 0.890625 2.25 0.90625q2.03125 0 3.15625 -1.515625l1.265625 0.984375q-0.796875 1.015625 -1.859375 1.546875q-1.0625 0.515625 -2.5625 0.515625q-2.28125 0 -3.671875 -1.46875q-1.375 -1.484375 -1.40625 -3.765625q0 -2.265625 1.421875 -3.734375q1.421875 -1.46875 3.703125 -1.515625zm2.9375 4.34375q-0.0625 -1.296875 -0.84375 -2.046875q-0.78125 -0.765625 -2.1875 -0.765625q-1.28125 0 -2.15625 0.734375q-0.875 0.71875 -1.078125 2.078125l6.265625 0z" fill-rule="nonzero"/><path fill="#000000" fill-opacity="0.0" d="m316.33597 270.84253l33.984253 0" fill-rule="evenodd"/><path stroke="#000000" stroke-width="1.0" stroke-linejoin="round" stroke-linecap="butt" d="m316.33597 270.84253l27.984253 0" fill-rule="evenodd"/><path fill="#000000" stroke="#000000" stroke-width="1.0" stroke-linecap="butt" d="m344.32022 272.49426l4.538086 -1.6517334l-4.538086 -1.6517334z" fill-rule="evenodd"/><path fill="#000000" fill-opacity="0.0" d="m587.95013 270.84253c8.494019 0 12.73999 -5.8582764 16.988037 -11.716553c4.248047 -5.858261 8.498108 -11.716522 16.996216 -11.716522" fill-rule="evenodd"/><path stroke="#000000" stroke-width="1.0" stroke-linejoin="round" stroke-linecap="butt" d="m587.95013 270.84253c8.494019 0 12.740051 -5.8582764 16.988037 -11.716553c2.1240234 -2.9291382 4.248535 -5.858261 6.904358 -8.055115c0.6638794 -0.5492096 1.361084 -1.0526581 2.0997314 -1.4988861c0.36932373 -0.22311401 0.74902344 -0.43193054 1.1401367 -0.62501526c0.19555664 -0.09654236 0.3939209 -0.18914795 0.5953369 -0.27764893c0.10070801 -0.04425049 0.2020874 -0.08747864 0.3043213 -0.12963867l0.055541992 -0.022155762" fill-rule="evenodd"/><path fill="#000000" stroke="#000000" stroke-width="1.0" stroke-linecap="butt" d="m616.34265 250.14082l4.1549683 -2.4613953l-4.7650757 -0.7852478z" fill-rule="evenodd"/><path fill="#000000" fill-opacity="0.0" d="m587.95013 270.84253c18.236938 0 27.355774 5.858246 36.473877 11.716522c9.118103 5.8582764 18.235535 11.716553 36.47101 11.716553" fill-rule="evenodd"/><path stroke="#000000" stroke-width="1.0" stroke-linejoin="round" stroke-linecap="butt" d="m587.95013 270.84253c18.236938 0 27.355774 5.858246 36.473938 11.716522c4.559021 2.9291382 9.11792 5.8582764 14.816467 8.055115c2.8492432 1.0984192 5.9833984 2.013794 9.545044 2.654541c1.7807617 0.32037354 3.668396 0.5720825 5.680725 0.7437134l0.43304443 0.034484863" fill-rule="evenodd"/><path fill="#000000" stroke="#000000" stroke-width="1.0" stroke-linecap="butt" d="m654.8364 295.69745l4.5977173 -1.4775696l-4.4718018 -1.8234863z" fill-rule="evenodd"/></g></svg>